{
.appVersion = "1342";
classes = (
{
automatic = 1;
code = "A Aacute Abreve Acircumflex Adieresis Agrave Amacron Aogonek Aring Atilde AE AEacute B C Cacute Ccaron Ccedilla Cdotaccent D Eth Dcaron Dcroat E Eacute Ecaron Ecircumflex Edieresis Edotaccent Egrave Emacron Eogonek F G Gbreve Gcommaaccent Gdotaccent H I Iacute Icircumflex Idieresis Idotaccent Igrave Imacron Iogonek J K Kcommaaccent L Lacute Lcaron Lcommaaccent Lslash M N Nacute Ncaron Ncommaaccent Ntilde O Oacute Ocircumflex Odieresis Ograve Ohungarumlaut Omacron Oslash Oslashacute Otilde OE P Thorn Q R Racute Rcaron Rcommaaccent S Sacute Scaron Scedilla Scommaaccent Germandbls T Tcaron Tcedilla Tcommaaccent U Uacute Ucircumflex Udieresis Ugrave Uhungarumlaut Umacron Uogonek Uring V W Wacute Wcircumflex Wdieresis Wgrave X Y Yacute Ycircumflex Ydieresis Ygrave Z Zacute Zcaron Zdotaccent Delta";
name = Uppercase;
}
);
copyright = "Copyright (c) 2020 The Open Sauce One Authors (https://github.com/marcologous/Open-Sauce-Fonts)";
customParameters = (
{
name = licenseURL;
value = "http://scripts.sil.org/OFL";
},
{
name = license;
value = "Copyright (c) 2020 The Open Sauce One Authors (https://github.com/marcologous/Open-Sauce-Fonts)\012\012This Font Software is licensed under the SIL Open Font License, Version 1.1.\012This license is copied below, and is also available with a FAQ at:\012http://scripts.sil.org/OFL";
},
{
name = fsType;
value = (
);
}
);
date = "2020-07-09 07:35:17 +0000";
designer = "Alfredo Marco Pradil";
designerURL = "http://www.creative-sauce.com";
familyName = "Open Sauce One";
featurePrefixes = (
{
automatic = 1;
code = "languagesystem DFLT dflt;\012\012languagesystem latn dflt;\012languagesystem latn AZE;\012languagesystem latn CRT;\012languagesystem latn KAZ;\012languagesystem latn TAT;\012languagesystem latn TRK;\012languagesystem latn ROM;\012languagesystem latn MOL;\012";
name = Languagesystems;
}
);
features = (
{
automatic = 1;

glyphs = (
{
color = 1;
glyphname = A;
lastChange = "2020-04-14 09:42:08 +0000";
layers = (
{
anchors = (
{
name = bottom;
position = "{310, 0}";
},
{
name = ogonek;
position = "{668, 0}";
},
{
name = top;
position = "{445, 763}";
}
);
guideLines = (
{
position = "{442, 436}";
}
);
layerId = "FD6EB2BB-8839-4CDB-86BF-4EEAE3F02079";
paths = (
{
closed = 1;
nodes = (
"152 0 LINE",
"419 564 LINE",
"488 0 LINE",
"668 0 LINE",
"542 763 LINE",
"348 763 LINE",
"-48 0 LINE"
);
},
{
closed = 1;
nodes = (
"477 137 LINE",
"457 292 LINE",
"265 292 LINE",
"191 137 LINE"
);
}
);
width = 720;
},
{
anchors = (
{
name = bottom;
position = "{298, 0}";
},
{
name = ogonek;
position = "{631, 0}";
},
{
name = top;
position = "{433, 763}";
}
);
guideLines = (
{
position = "{425, 436}";
}
);
layerId = "11907447-A26F-432E-A335-7727E0303767";
paths = (
{
closed = 1;
nodes = (
"63 0 LINE",
"421 669 LINE",
"543 0 LINE",
"631 0 LINE",
"485 763 LINE",
"381 763 LINE",
"-35 0 LINE"
);
},
{
closed = 1;
nodes = (
"520 187 LINE",
"504 269 LINE",
"188 269 LINE",
"142 187 LINE"
);
}
);
width = 694;
},
{
anchors = (
{
name = bottom;
position = "{296, 0}";
},
{
name = ogonek;
position = "{624, 0}";
},
{
name = top;
position = "{430, 763}";
}
);
guideLines = (
{
position = "{148, 437}";
}
);
layerId = "2F4EEC1B-9E89-4E08-AD53-AB625B6E887D";
paths = (
{
closed = 1;
nodes = (
"42 0 LINE",
"421 692 LINE",
"556 0 LINE",
"624 0 LINE",
"470 763 LINE",
"390 763 LINE",
"-32 0 LINE"
);
},
{
closed = 1;
nodes = (
"528 206 LINE",
"517 268 LINE",
"169 268 LINE",
"136 206 LINE"
);
}
);
width = 688;
}
);
leftKerningGroup = A;
note = A;
rightKerningGroup = A;
unicode = 0041;
},
{
color = 1;
glyphname = Aring;
lastChange = "2020-04-14 08:30:42 +0000";
layers = (
{
layerId = "11907447-A26F-432E-A335-7727E0303767";
paths = (
{
closed = 1;
nodes = (
"58 0 LINE",
"158 187 LINE",
"504 187 LINE",
"538 0 LINE",
"631 0 LINE",
"493 723 LINE",
"529 744 OFFCURVE",
"555 781 OFFCURVE",
"562 821 CURVE SMOOTH",
"574 888 OFFCURVE",
"527 939 OFFCURVE",
"463 939 CURVE SMOOTH",
"398 939 OFFCURVE",
"336 887 OFFCURVE",
"324 821 CURVE SMOOTH",
"317 781 OFFCURVE",
"329 744 OFFCURVE",
"359 723 CURVE",
"-35 0 LINE"
);
},
{
closed = 1;
nodes = (
"417 671 LINE",
"488 269 LINE",
"204 269 LINE"
);
},
{
closed = 1;
nodes = (
"402 764 OFFCURVE",
"381 789 OFFCURVE",
"387 823 CURVE SMOOTH",
"393 854 OFFCURVE",
"421 878 OFFCURVE",
"453 878 CURVE SMOOTH",
"488 878 OFFCURVE",
"506 853 OFFCURVE",
"500 823 CURVE SMOOTH",
"494 789 OFFCURVE",
"466 764 OFFCURVE",
"433 764 CURVE SMOOTH"
);
}
);
width = 694;
},
{
layerId = "FD6EB2BB-8839-4CDB-86BF-4EEAE3F02079";
paths = (
{
closed = 1;
nodes = (
"142 0 LINE",
"207 137 LINE",
"461 137 LINE",
"478 0 LINE",
"668 0 LINE",
"547 736 LINE",
"566 757 OFFCURVE",
"581 785 OFFCURVE",
"587 816 CURVE SMOOTH",
"600 890 OFFCURVE",
"550 949 OFFCURVE",
"477 949 CURVE SMOOTH",
"403 949 OFFCURVE",
"334 890 OFFCURVE",
"321 816 CURVE SMOOTH",
"316 787 OFFCURVE",
"320 758 OFFCURVE",
"334 736 CURVE",
"-48 0 LINE"
);
},
{
closed = 1;
nodes = (
"409 563 LINE",
"441 292 LINE",
"281 292 LINE"
);
},
{
closed = 1;
nodes = (
"417 766 OFFCURVE",
"400 787 OFFCURVE",
"405 818 CURVE SMOOTH",
"410 844 OFFCURVE",
"432 865 OFFCURVE",
"463 865 CURVE SMOOTH",
"495 865 OFFCURVE",
"508 845 OFFCURVE",
"503 818 CURVE SMOOTH",
"498 787 OFFCURVE",
"475 766 OFFCURVE",
"445 766 CURVE SMOOTH"
);
}
);
width = 720;
},
{
layerId = "2F4EEC1B-9E89-4E08-AD53-AB625B6E887D";
paths = (
{
closed = 1;
nodes = (
"39 0 LINE",
"152 206 LINE",
"512 206 LINE",
"553 0 LINE",
"624 0 LINE",
"476 730 LINE",
"513 749 OFFCURVE",
"543 784 OFFCURVE",
"550 826 CURVE SMOOTH",
"561 887 OFFCURVE",
"518 934 OFFCURVE",
"460 934 CURVE SMOOTH",
"399 934 OFFCURVE",
"343 886 OFFCURVE",
"332 826 CURVE SMOOTH",
"325 786 OFFCURVE",
"342 751 OFFCURVE",
"371 729 CURVE",
"-32 0 LINE"
);
},
{
closed = 1;
nodes = (
"418 694 LINE",
"501 267 LINE",
"185 267 LINE"
);
},
{
closed = 1;
nodes = (
"397 764 OFFCURVE",
"374 791 OFFCURVE",
"381 828 CURVE SMOOTH",
"386 861 OFFCURVE",
"418 888 OFFCURVE",
"453 888 CURVE SMOOTH",
"489 888 OFFCURVE",
"509 861 OFFCURVE",
"504 828 CURVE SMOOTH",
"497 792 OFFCURVE",
"466 764 OFFCURVE",
"431 764 CURVE SMOOTH"
);
}
);
width = 688;
}
);
leftKerningGroup = A;
leftMetricsKey = A;
rightKerningGroup = A;
rightMetricsKey = A;
unicode = 00C5;
},
{
color = 1;
glyphname = AE;
lastChange = "2020-04-14 09:43:08 +0000";
layers = (
{
anchors = (
{
name = bottom;
position = "{487, 0}";
},
{
name = top;
position = "{622, 763}";
}
);
background = {
components = (
{
name = A;
}
);
};
layerId = "11907447-A26F-432E-A335-7727E0303767";
paths = (
{
closed = 1;
nodes = (
"63 0 LINE",
"163 187 LINE",
"509 187 LINE",
"539 0 LINE",
"1009 0 LINE",
"993 83 LINE",
"616 83 LINE",
"567 342 LINE",
"943 342 LINE",
"928 424 LINE",
"551 424 LINE",
"502 680 LINE",
"879 680 LINE",
"863 763 LINE",
"381 763 LINE",
"-35 0 LINE"
);
},
{
closed = 1;
nodes = (
"422 672 LINE",
"493 269 LINE",
"209 269 LINE"
);
}
);
width = 1072;
},
{
anchors = (
{
name = bottom;
position = "{464, 0}";
},
{
name = top;
position = "{599, 763}";
}
);
background = {
components = (
{
name = A;
}
);
};
layerId = "FD6EB2BB-8839-4CDB-86BF-4EEAE3F02079";
paths = (
{
closed = 1;
nodes = (
"152 0 LINE",
"217 137 LINE",
"471 137 LINE",
"488 0 LINE",
"976 0 LINE",
"950 160 LINE",
"643 160 LINE",
"620 302 LINE",
"926 302 LINE",
"900 461 LINE",
"593 461 LINE",
"570 603 LINE",
"876 603 LINE",
"849 763 LINE",
"348 763 LINE",
"-48 0 LINE"
);
},
{
closed = 1;
nodes = (
"419 563 LINE",
"451 292 LINE",
"291 292 LINE"
);
}
);
width = 1028;
},
{
anchors = (
{
name = bottom;
position = "{483, 0}";
},
{
name = top;
position = "{617, 763}";
}
);
background = {
components = (
{
name = A;
}
);
};
layerId = "2F4EEC1B-9E89-4E08-AD53-AB625B6E887D";
paths = (
{
closed = 1;
nodes = (
"42 0 LINE",
"155 206 LINE",
"515 206 LINE",
"552 0 LINE",
"997 0 LINE",
"984 62 LINE",
"612 62 LINE",
"553 353 LINE",
"925 353 LINE",
"914 414 LINE",
"541 414 LINE",
"483 701 LINE",
"857 701 LINE",
"844 763 LINE",
"390 763 LINE",
"-32 0 LINE"
);
},
{
closed = 1;
nodes = (
"421 693 LINE",
"504 267 LINE",
"188 267 LINE"
);
}
);
width = 1061;
}
);
leftKerningGroup = A;
leftMetricsKey = A;
rightKerningGroup = A;
rightMetricsKey = A;
unicode = 00C6;
},
{
color = 1;
glyphname = B;
lastChange = "2020-04-14 08:41:38 +0000";
layers = (
{
anchors = (
{
name = bottom;
position = "{288, 0}";
},
{
name = top;
position = "{423, 763}";
}
);
layerId = "FD6EB2BB-8839-4CDB-86BF-4EEAE3F02079";
paths = (
{
closed = 1;
nodes = (
"336 0 LINE SMOOTH",
"366 0 OFFCURVE",
"470 0 OFFCURVE",
"554 56 CURVE SMOOTH",
"619 100 OFFCURVE",
"664 186 OFFCURVE",
"664 265 CURVE SMOOTH",
"664 336 OFFCURVE",
"624 384 OFFCURVE",
"550 401 CURVE",
"636 433 OFFCURVE",
"686 520 OFFCURVE",
"686 612 CURVE SMOOTH",
"686 647 OFFCURVE",
"677 674 OFFCURVE",
"659 697 CURVE SMOOTH",
"625 741 OFFCURVE",
"557 763 OFFCURVE",
"457 763 CURVE SMOOTH",
"145 763 LINE",
"10 0 LINE"
);
},
{
closed = 1;
nodes = (
"245 315 LINE",
"382 315 LINE SMOOTH",
"447 315 OFFCURVE",
"486 306 OFFCURVE",
"486 260 CURVE SMOOTH",
"486 234 OFFCURVE",
"475 200 OFFCURVE",
"450 183 CURVE SMOOTH",
"424 164 OFFCURVE",
"386 160 OFFCURVE",
"341 160 CURVE SMOOTH",
"217 160 LINE"
);
},
{
closed = 1;
nodes = (
"295 603 LINE",
"389 603 LINE SMOOTH",
"441 603 OFFCURVE",
"466 598 OFFCURVE",
"481 585 CURVE SMOOTH",
"491 576 OFFCURVE",
"497 564 OFFCURVE",
"497 548 CURVE SMOOTH",
"497 489 OFFCURVE",
"458 455 OFFCURVE",
"387 455 CURVE SMOOTH",
"269 455 LINE"
);
}
);
width = 703;
},
{
anchors = (
{
name = bottom;
position = "{285, 0}";
},
{
name = top;
position = "{420, 763}";
}
);
layerId = "11907447-A26F-432E-A335-7727E0303767";
paths = (
{
closed = 1;
nodes = (
"329 0 LINE SMOOTH",
"393 0 OFFCURVE",
"482 14 OFFCURVE",
"546 67 CURVE SMOOTH",
"601 114 OFFCURVE",
"632 186 OFFCURVE",
"632 259 CURVE SMOOTH",
"632 341 OFFCURVE",
"584 393 OFFCURVE",
"493 400 CURVE",
"590 409 OFFCURVE",
"657 511 OFFCURVE",
"657 615 CURVE SMOOTH",
"657 652 OFFCURVE",
"647 683 OFFCURVE",
"626 707 CURVE SMOOTH",
"594 743 OFFCURVE",
"539 763 OFFCURVE",
"452 763 CURVE SMOOTH",
"165 763 LINE",
"30 0 LINE"
);
},
{
closed = 1;
nodes = (
"184 350 LINE",
"401 350 LINE SMOOTH",
"439 350 OFFCURVE",
"540 350 OFFCURVE",
"540 252 CURVE SMOOTH",
"540 207 OFFCURVE",
"522 154 OFFCURVE",
"483 123 CURVE SMOOTH",
"433 83 OFFCURVE",
"364 83 OFFCURVE",
"334 83 CURVE SMOOTH",
"137 83 LINE"
);
},
{
closed = 1;
nodes = (
"242 680 LINE",
"417 680 LINE SMOOTH",
"472 680 OFFCURVE",
"516 669 OFFCURVE",
"540 641 CURVE SMOOTH",
"553 627 OFFCURVE",
"560 608 OFFCURVE",
"560 584 CURVE SMOOTH",
"560 494 OFFCURVE",
"495 432 OFFCURVE",
"393 432 CURVE SMOOTH",
"198 432 LINE"
);
}
);
width = 690;
},
{
anchors = (
{
name = bottom;
position = "{280, 0}";
},
{
name = top;
position = "{414, 763}";
}
);
layerId = "2F4EEC1B-9E89-4E08-AD53-AB625B6E887D";
paths = (
{
closed = 1;
nodes = (
"323 0 LINE SMOOTH",
"392 0 OFFCURVE",
"469 15 OFFCURVE",
"528 61 CURVE SMOOTH",
"586 107 OFFCURVE",
"619 181 OFFCURVE",
"619 255 CURVE SMOOTH",
"619 338 OFFCURVE",
"572 392 OFFCURVE",
"488 399 CURVE",
"578 409 OFFCURVE",
"645 513 OFFCURVE",
"645 617 CURVE SMOOTH",
"645 647 OFFCURVE",
"638 674 OFFCURVE",
"624 695 CURVE SMOOTH",
"596 739 OFFCURVE",
"538 763 OFFCURVE",
"445 763 CURVE SMOOTH",
"165 763 LINE",
"31 0 LINE"
);
},
{
closed = 1;
nodes = (
"163 361 LINE",
"406 361 LINE SMOOTH",
"463 361 OFFCURVE",
"550 345 OFFCURVE",
"550 249 CURVE SMOOTH",
"550 196 OFFCURVE",
"527 141 OFFCURVE",
"487 108 CURVE SMOOTH",
"439 69 OFFCURVE",
"374 62 OFFCURVE",
"327 62 CURVE SMOOTH",
"111 62 LINE"
);
},
{
closed = 1;
nodes = (
"223 701 LINE",
"420 701 LINE SMOOTH",
"478 701 OFFCURVE",
"523 689 OFFCURVE",
"549 661 CURVE SMOOTH",
"564 644 OFFCURVE",
"572 621 OFFCURVE",
"572 592 CURVE SMOOTH",
"572 495 OFFCURVE",
"500 423 OFFCURVE",
"395 423 CURVE SMOOTH",
"174 423 LINE"
);
}
);
width = 677;
}
);
leftKerningGroup = B;
note = B;
rightKerningGroup = B;
unicode = 0042;
},
{
color = 1;
glyphname = C;
lastChange = "2020-04-14 08:49:58 +0000";
layers = (
{
anchors = (
{
name = bottom;
position = "{339, 0}";
},
{
name = top;
position = "{474, 763}";
}
);
guideLines = (
{
position = "{111, 259}";
},
{
position = "{642, 505}";
},
{
position = "{546, 525}";
}
);
layerId = "FD6EB2BB-8839-4CDB-86BF-4EEAE3F02079";
paths = (
{
closed = 1;
nodes = (
"561 -17 OFFCURVE",
"698 94 OFFCURVE",
"747 259 CURVE",
"551 259 LINE",
"525 179 OFFCURVE",
"460 143 OFFCURVE",
"384 143 CURVE SMOOTH",
"283 143 OFFCURVE",
"232 208 OFFCURVE",
"232 314 CURVE SMOOTH",
"232 469 OFFCURVE",
"317 619 OFFCURVE",
"468 619 CURVE SMOOTH",
"544 619 OFFCURVE",
"597 583 OFFCURVE",
"594 505 CURVE",
"790 505 LINE",
"799 669 OFFCURVE",
"701 779 OFFCURVE",
"500 779 CURVE SMOOTH",
"230 779 OFFCURVE",
"41 564 OFFCURVE",
"41 292 CURVE SMOOTH",
"41 119 OFFCURVE",
"137 -17 OFFCURVE",
"360 -17 CURVE SMOOTH"
);
}
);
width = 779;
},
{
anchors = (
{
name = bottom;
position = "{323, 0}";
},
{
name = top;
position = "{458, 763}";
}
);
guideLines = (
{
position = "{633, 231}";
}
);
layerId = "11907447-A26F-432E-A335-7727E0303767";
paths = (
{
closed = 1;
nodes = (
"521 -10 OFFCURVE",
"649 83 OFFCURVE",
"699 231 CURVE",
"599 231 LINE",
"561 126 OFFCURVE",
"474 72 OFFCURVE",
"364 72 CURVE SMOOTH",
"222 72 OFFCURVE",
"153 164 OFFCURVE",
"153 298 CURVE SMOOTH",
"153 504 OFFCURVE",
"274 691 OFFCURVE",
"473 691 CURVE SMOOTH",
"583 691 OFFCURVE",
"652 637 OFFCURVE",
"656 552 CURVE",
"756 552 LINE",
"756 682 OFFCURVE",
"660 773 OFFCURVE",
"490 773 CURVE SMOOTH",
"234 773 OFFCURVE",
"60 551 OFFCURVE",
"60 287 CURVE SMOOTH",
"60 122 OFFCURVE",
"148 -10 OFFCURVE",
"351 -10 CURVE SMOOTH"
);
}
);
width = 748;
},
{
anchors = (
{
name = bottom;
position = "{346, 0}";
},
{
name = top;
position = "{480, 763}";
}
);
layerId = "2F4EEC1B-9E89-4E08-AD53-AB625B6E887D";
paths = (
{
closed = 1;
nodes = (
"508 -10 OFFCURVE",
"632 79 OFFCURVE",
"681 216 CURVE",
"608 216 LINE",
"568 111 OFFCURVE",
"473 52 OFFCURVE",
"354 52 CURVE SMOOTH",
"201 52 OFFCURVE",
"130 152 OFFCURVE",
"130 294 CURVE SMOOTH",
"130 512 OFFCURVE",
"259 711 OFFCURVE",
"470 711 CURVE SMOOTH",
"589 711 OFFCURVE",
"665 652 OFFCURVE",
"669 561 CURVE",
"742 561 LINE",
"739 685 OFFCURVE",
"646 773 OFFCURVE",
"483 773 CURVE SMOOTH",
"231 773 OFFCURVE",
"60 548 OFFCURVE",
"60 287 CURVE SMOOTH",
"60 121 OFFCURVE",
"146 -10 OFFCURVE",
"345 -10 CURVE SMOOTH"
);
}
);
width = 733;
}
);
leftKerningGroup = C;
note = C;
rightKerningGroup = C;
unicode = 0043;
},
{
color = 1;
glyphname = D;
lastChange = "2020-04-14 08:49:48 +0000";
layers = (
{
anchors = (
{
name = bottom;
position = "{298, 0}";
},
{
name = center;
position = "{229, 382}";
},
{
name = top;
position = "{433, 763}";
}
);
layerId = "FD6EB2BB-8839-4CDB-86BF-4EEAE3F02079";
paths = (
{
closed = 1;
nodes = (
"241 0 LINE SMOOTH",
"534 0 OFFCURVE",
"721 187 OFFCURVE",
"721 475 CURVE SMOOTH",
"721 662 OFFCURVE",
"601 763 OFFCURVE",
"376 763 CURVE SMOOTH",
"145 763 LINE",
"10 0 LINE"
);
},
{
closed = 1;
nodes = (
"295 603 LINE",
"345 603 LINE SMOOTH",
"466 603 OFFCURVE",
"538 546 OFFCURVE",
"538 436 CURVE SMOOTH",
"538 269 OFFCURVE",
"441 160 OFFCURVE",
"267 160 CURVE SMOOTH",
"217 160 LINE"
);
}
);
width = 726;
},
{
anchors = (
{
name = bottom;
position = "{307, 0}";
},
{
name = center;
position = "{231, 382}";
},
{
name = top;
position = "{442, 763}";
}
);
layerId = "11907447-A26F-432E-A335-7727E0303767";
paths = (
{
closed = 1;
nodes = (
"239 0 LINE SMOOTH",
"527 0 OFFCURVE",
"708 190 OFFCURVE",
"708 475 CURVE SMOOTH",
"708 660 OFFCURVE",
"594 763 OFFCURVE",
"375 763 CURVE SMOOTH",
"165 763 LINE",
"30 0 LINE"
);
},
{
closed = 1;
nodes = (
"242 680 LINE",
"359 680 LINE SMOOTH",
"512 680 OFFCURVE",
"615 622 OFFCURVE",
"615 462 CURVE SMOOTH",
"615 230 OFFCURVE",
"493 83 OFFCURVE",
"253 83 CURVE SMOOTH",
"137 83 LINE"
);
}
);
width = 732;
},
{
anchors = (
{
name = bottom;
position = "{304, 0}";
},
{
name = center;
position = "{231, 382}";
},
{
name = top;
position = "{438, 763}";
}
);
layerId = "2F4EEC1B-9E89-4E08-AD53-AB625B6E887D";
paths = (
{
closed = 1;
nodes = (
"234 0 LINE SMOOTH",
"521 0 OFFCURVE",
"699 191 OFFCURVE",
"699 476 CURVE SMOOTH",
"699 660 OFFCURVE",
"585 763 OFFCURVE",
"369 763 CURVE SMOOTH",
"165 763 LINE",
"31 0 LINE"
);
},
{
closed = 1;
nodes = (
"223 701 LINE",
"358 701 LINE SMOOTH",
"526 701 OFFCURVE",
"631 631 OFFCURVE",
"631 466 CURVE SMOOTH",
"631 223 OFFCURVE",
"495 62 OFFCURVE",
"245 62 CURVE SMOOTH",
"111 62 LINE"
);
}
);
width = 723;
}
);
leftKerningGroup = B;
note = D;
rightKerningGroup = D;
unicode = 0044;
},
{
color = 1;
glyphname = E;
lastChange = "2020-04-14 08:30:42 +0000";
layers = (
{
anchors = (
{
name = bottom;
position = "{271, 0}";
},
{
name = ogonek;
position = "{531, 0}";
},
{
name = top;
position = "{406, 763}";
},
{
name = topleft;
position = "{77, 763}";
}
);
guideLines = (
{
angle = 180;
position = "{488, 461}";
},
{
angle = 180;
position = "{404, 302}";
}
);
layerId = "FD6EB2BB-8839-4CDB-86BF-4EEAE3F02079";
paths = (
{
closed = 1;
nodes = (
"531 0 LINE",
"559 160 LINE",
"217 160 LINE",
"242 302 LINE",
"551 302 LINE",
"579 461 LINE",
"270 461 LINE",
"295 603 LINE",
"637 603 LINE",
"666 763 LINE",
"145 763 LINE",
"10 0 LINE"
);
}
);
width = 624;
},
{
anchors = (
{
name = bottom;
position = "{277, 0}";
},
{
name = ogonek;
position = "{523, 0}";
},
{
name = top;
position = "{412, 763}";
},
{
name = topleft;
position = "{84, 763}";
}
);
layerId = "11907447-A26F-432E-A335-7727E0303767";
paths = (
{
closed = 1;
nodes = (
"523 0 LINE",
"538 83 LINE",
"137 83 LINE",
"183 342 LINE",
"537 342 LINE",
"551 424 LINE",
"197 424 LINE",
"242 680 LINE",
"643 680 LINE",
"658 763 LINE",
"165 763 LINE",
"30 0 LINE"
);
}
);
width = 616;
},
{
anchors = (
{
name = bottom;
position = "{274, 0}";
},
{
name = ogonek;
position = "{517, 0}";
},
{
name = top;
position = "{408, 763}";
},
{
name = topleft;
position = "{80, 763}";
}
);
layerId = "2F4EEC1B-9E89-4E08-AD53-AB625B6E887D";
paths = (
{
closed = 1;
nodes = (
"517 0 LINE",
"528 62 LINE",
"111 62 LINE",
"162 352 LINE",
"528 352 LINE",
"539 414 LINE",
"173 414 LINE",
"223 701 LINE",
"640 701 LINE",
"651 763 LINE",
"165 763 LINE",
"31 0 LINE"
);
}
);
width = 609;
}
);
leftKerningGroup = B;
note = E;
rightKerningGroup = E;
unicode = 0045;
},
{
color = 1;
glyphname = F;
lastChange = "2020-04-14 08:30:42 +0000";
layers = (
{
background = {
paths = (
{
closed = 1;
nodes = (
"223 0 LINE SMOOTH",
"233 0 OFFCURVE",
"239 6 OFFCURVE",
"239 16 CURVE SMOOTH",
"239 286 LINE SMOOTH",
"239 296 OFFCURVE",
"245 302 OFFCURVE",
"255 302 CURVE SMOOTH",
"532 302 LINE SMOOTH",
"542 302 OFFCURVE",
"548 308 OFFCURVE",
"548 318 CURVE SMOOTH",
"548 445 LINE SMOOTH",
"548 455 OFFCURVE",
"542 461 OFFCURVE",
"532 461 CURVE SMOOTH",
"255 461 LINE SMOOTH",
"245 461 OFFCURVE",
"239 467 OFFCURVE",
"239 477 CURVE SMOOTH",
"239 587 LINE SMOOTH",
"239 597 OFFCURVE",
"245 603 OFFCURVE",
"255 603 CURVE SMOOTH",
"565 603 LINE SMOOTH",
"575 603 OFFCURVE",
"581 609 OFFCURVE",
"581 619 CURVE SMOOTH",
"581 747 LINE SMOOTH",
"581 757 OFFCURVE",
"575 763 OFFCURVE",
"565 763 CURVE SMOOTH",
"76 763 LINE SMOOTH",
"66 763 OFFCURVE",
"60 757 OFFCURVE",
"60 747 CURVE SMOOTH",
"60 16 LINE SMOOTH",
"60 6 OFFCURVE",
"66 0 OFFCURVE",
"76 0 CURVE SMOOTH"
);
}
);
};
layerId = "FD6EB2BB-8839-4CDB-86BF-4EEAE3F02079";
paths = (
{
closed = 1;
nodes = (
"189 0 LINE",
"242 302 LINE",
"551 302 LINE",
"579 461 LINE",
"270 461 LINE",
"295 603 LINE",
"637 603 LINE",
"666 763 LINE",
"145 763 LINE",
"10 0 LINE"
);
}
);
width = 606;
},
{
background = {
paths = (
{
closed = 1;
nodes = (
"155 0 LINE SMOOTH",
"165 0 OFFCURVE",
"171 6 OFFCURVE",
"171 16 CURVE SMOOTH",
"171 326 LINE SMOOTH",
"171 336 OFFCURVE",
"177 342 OFFCURVE",
"187 342 CURVE SMOOTH",
"509 342 LINE SMOOTH",
"519 342 OFFCURVE",
"525 348 OFFCURVE",
"525 358 CURVE SMOOTH",
"525 408 LINE SMOOTH",
"525 418 OFFCURVE",
"519 424 OFFCURVE",
"509 424 CURVE SMOOTH",
"187 424 LINE SMOOTH",
"177 424 OFFCURVE",
"171 430 OFFCURVE",
"171 440 CURVE SMOOTH",
"171 664 LINE SMOOTH",
"171 674 OFFCURVE",
"177 680 OFFCURVE",
"187 680 CURVE SMOOTH",
"556 680 LINE SMOOTH",
"566 680 OFFCURVE",
"572 686 OFFCURVE",
"572 696 CURVE SMOOTH",
"572 747 LINE SMOOTH",
"572 757 OFFCURVE",
"566 763 OFFCURVE",
"556 763 CURVE SMOOTH",
"95 763 LINE SMOOTH",
"85 763 OFFCURVE",
"79 757 OFFCURVE",
"79 747 CURVE SMOOTH",
"79 16 LINE SMOOTH",
"79 6 OFFCURVE",
"85 0 OFFCURVE",
"95 0 CURVE SMOOTH"
);
}
);
};
layerId = "11907447-A26F-432E-A335-7727E0303767";
paths = (
{
closed = 1;
nodes = (
"122 0 LINE",
"183 342 LINE",
"537 342 LINE",
"551 424 LINE",
"197 424 LINE",
"242 680 LINE",
"643 680 LINE",
"658 763 LINE",
"165 763 LINE",
"30 0 LINE"
);
}
);
width = 601;
},
{
anchors = (
{
name = bottom;
position = "{237, 0}";
},
{
name = top;
position = "{371, 763}";
}
);
background = {
anchors = (
{
name = bottom;
position = "{285, 0}";
},
{
name = top;
position = "{285, 763}";
}
);
paths = (
{
closed = 1;
nodes = (
"138 0 LINE SMOOTH",
"144 0 OFFCURVE",
"148 4 OFFCURVE",
"148 10 CURVE SMOOTH",
"148 343 LINE SMOOTH",
"148 349 OFFCURVE",
"152 353 OFFCURVE",
"158 353 CURVE SMOOTH",
"504 353 LINE SMOOTH",
"510 353 OFFCURVE",
"514 357 OFFCURVE",
"514 363 CURVE SMOOTH",
"514 404 LINE SMOOTH",
"514 410 OFFCURVE",
"510 414 OFFCURVE",
"504 414 CURVE SMOOTH",
"158 414 LINE SMOOTH",
"152 414 OFFCURVE",
"148 418 OFFCURVE",
"148 424 CURVE SMOOTH",
"148 691 LINE SMOOTH",
"148 697 OFFCURVE",
"152 701 OFFCURVE",
"158 701 CURVE SMOOTH",
"555 701 LINE SMOOTH",
"561 701 OFFCURVE",
"565 705 OFFCURVE",
"565 711 CURVE SMOOTH",
"565 753 LINE SMOOTH",
"565 759 OFFCURVE",
"561 763 OFFCURVE",
"555 763 CURVE SMOOTH",
"89 763 LINE SMOOTH",
"83 763 OFFCURVE",
"79 759 OFFCURVE",
"79 753 CURVE SMOOTH",
"79 10 LINE SMOOTH",
"79 4 OFFCURVE",
"83 0 OFFCURVE",
"89 0 CURVE SMOOTH"
);
}
);
};
layerId = "2F4EEC1B-9E89-4E08-AD53-AB625B6E887D";
paths = (
{
closed = 1;
nodes = (
"100 0 LINE",
"162 353 LINE",
"528 353 LINE",
"539 414 LINE",
"173 414 LINE",
"223 701 LINE",
"640 701 LINE",
"651 763 LINE",
"165 763 LINE",
"31 0 LINE"
);
}
);
width = 594;
}
);
leftKerningGroup = B;
note = F;
rightKerningGroup = F;
unicode = 0046;
},
{
color = 1;
glyphname = G;
lastChange = "2020-04-14 08:49:33 +0000";
layers = (
{
anchors = (
{
name = bottom;
position = "{364, 0}";
},
{
name = top;
position = "{499, 763}";
}
);
guideLines = (
{
position = "{643, 505}";
}
);
layerId = "FD6EB2BB-8839-4CDB-86BF-4EEAE3F02079";
paths = (
{
closed = 1;
nodes = (
"429 -17 OFFCURVE",
"512 -2 OFFCURVE",
"578 71 CURVE",
"565 0 LINE",
"728 0 LINE",
"803 426 LINE",
"465 426 LINE",
"440 282 LINE",
"599 282 LINE",
"576 184 OFFCURVE",
"508 143 OFFCURVE",
"407 143 CURVE SMOOTH",
"289 143 OFFCURVE",
"231 210 OFFCURVE",
"231 318 CURVE SMOOTH",
"231 471 OFFCURVE",
"321 619 OFFCURVE",
"471 619 CURVE SMOOTH",
"565 619 OFFCURVE",
"613 581 OFFCURVE",
"618 505 CURVE",
"814 505 LINE",
"818 670 OFFCURVE",
"715 779 OFFCURVE",
"499 779 CURVE SMOOTH",
"229 779 OFFCURVE",
"40 564 OFFCURVE",
"40 292 CURVE SMOOTH",
"40 119 OFFCURVE",
"136 -17 OFFCURVE",
"359 -17 CURVE SMOOTH"
);
}
);
width = 827;
},
{
anchors = (
{
name = bottom;
position = "{355, 0}";
},
{
name = top;
position = "{490, 763}";
}
);
layerId = "11907447-A26F-432E-A335-7727E0303767";
paths = (
{
closed = 1;
nodes = (
"456 -10 OFFCURVE",
"562 28 OFFCURVE",
"630 109 CURVE",
"611 0 LINE",
"695 0 LINE",
"766 399 LINE",
"493 399 LINE",
"478 317 LINE",
"661 317 LINE",
"634 165 OFFCURVE",
"522 72 OFFCURVE",
"373 72 CURVE SMOOTH",
"222 72 OFFCURVE",
"154 175 OFFCURVE",
"154 308 CURVE SMOOTH",
"154 510 OFFCURVE",
"283 691 OFFCURVE",
"480 691 CURVE SMOOTH",
"591 691 OFFCURVE",
"657 636 OFFCURVE",
"677 553 CURVE",
"780 553 LINE",
"761 683 OFFCURVE",
"667 773 OFFCURVE",
"497 773 CURVE SMOOTH",
"242 773 OFFCURVE",
"60 553 OFFCURVE",
"60 292 CURVE SMOOTH",
"60 128 OFFCURVE",
"147 -10 OFFCURVE",
"359 -10 CURVE SMOOTH"
);
}
);
width = 807;
},
{
anchors = (
{
name = bottom;
position = "{352, 0}";
},
{
name = top;
position = "{486, 763}";
}
);
layerId = "2F4EEC1B-9E89-4E08-AD53-AB625B6E887D";
paths = (
{
closed = 1;
nodes = (
"460 -10 OFFCURVE",
"578 34 OFFCURVE",
"632 141 CURVE",
"608 0 LINE",
"672 0 LINE",
"741 392 LINE",
"485 392 LINE",
"474 330 LINE",
"661 330 LINE",
"632 166 OFFCURVE",
"518 52 OFFCURVE",
"361 52 CURVE SMOOTH",
"202 52 OFFCURVE",
"131 161 OFFCURVE",
"131 301 CURVE SMOOTH",
"131 517 OFFCURVE",
"267 711 OFFCURVE",
"476 711 CURVE SMOOTH",
"602 711 OFFCURVE",
"671 651 OFFCURVE",
"682 562 CURVE",
"759 562 LINE",
"747 684 OFFCURVE",
"658 773 OFFCURVE",
"488 773 CURVE SMOOTH",
"236 773 OFFCURVE",
"61 550 OFFCURVE",
"61 289 CURVE SMOOTH",
"61 125 OFFCURVE",
"146 -10 OFFCURVE",
"351 -10 CURVE SMOOTH"
);
}
);
width = 783;
}
);
leftKerningGroup = C;
note = G;
rightKerningGroup = G;
unicode = 0047;
},
{
color = 1;
glyphname = H;
lastChange = "2020-04-14 08:30:42 +0000";
layers = (
{
anchors = (
{
name = bottom;
position = "{334, 0}";
},
{
name = center;
position = "{447, 639}";
},
{
name = top;
position = "{469, 763}";
},
{
name = topleft;
position = "{105, 763}";
}
);
background = {
paths = (
{
closed = 1;
nodes = (
"239 0 LINE",
"239 301 LINE",
"529 301 LINE",
"529 0 LINE",
"709 0 LINE",
"709 763 LINE",
"529 763 LINE",
"529 461 LINE",
"239 461 LINE",
"239 763 LINE",
"60 763 LINE",
"60 0 LINE"
);
}
);
};
layerId = "FD6EB2BB-8839-4CDB-86BF-4EEAE3F02079";
paths = (
{
closed = 1;
nodes = (
"189 0 LINE",
"242 301 LINE",
"532 301 LINE",
"479 0 LINE",
"658 0 LINE",
"793 763 LINE",
"614 763 LINE",
"560 461 LINE",
"270 461 LINE",
"324 763 LINE",
"145 763 LINE",
"10 0 LINE"
);
}
);
width = 770;
},
{
anchors = (
{
name = bottom;
position = "{314, 0}";
},
{
name = center;
position = "{423, 616}";
},
{
name = top;
position = "{449, 763}";
},
{
name = topleft;
position = "{106, 763}";
}
);
background = {
paths = (
{
closed = 1;
nodes = (
"171 0 LINE",
"171 343 LINE",
"553 343 LINE",
"553 0 LINE",
"645 0 LINE",
"645 763 LINE",
"553 763 LINE",
"553 425 LINE",
"171 425 LINE",
"171 763 LINE",
"79 763 LINE",
"79 0 LINE"
);
}
);
};
layerId = "11907447-A26F-432E-A335-7727E0303767";
paths = (
{
closed = 1;
nodes = (
"122 0 LINE",
"183 343 LINE",
"565 343 LINE",
"504 0 LINE",
"596 0 LINE",
"731 763 LINE",
"639 763 LINE",
"579 425 LINE",
"197 425 LINE",
"257 763 LINE",
"165 763 LINE",
"30 0 LINE"
);
}
);
width = 725;
},
{
anchors = (
{
name = bottom;
position = "{303, 0}";
},
{
name = center;
position = "{410, 609}";
},
{
name = top;
position = "{437, 763}";
},
{
name = topleft;
position = "{80, 763}";
}
);
background = {
anchors = (
{
name = bottom;
position = "{351, 0}";
},
{
name = center;
position = "{351, 382}";
},
{
name = top;
position = "{351, 763}";
},
{
name = topleft;
position = "{-6, 763}";
}
);
paths = (
{
closed = 1;
nodes = (
"148 0 LINE",
"148 354 LINE",
"554 354 LINE",
"554 0 LINE",
"623 0 LINE",
"623 763 LINE",
"554 763 LINE",
"554 416 LINE",
"148 416 LINE",
"148 763 LINE",
"79 763 LINE",
"79 0 LINE"
);
}
);
};
layerId = "2F4EEC1B-9E89-4E08-AD53-AB625B6E887D";
paths = (
{
closed = 1;
nodes = (
"100 0 LINE",
"162 354 LINE",
"568 354 LINE",
"506 0 LINE",
"575 0 LINE",
"709 763 LINE",
"640 763 LINE",
"579 416 LINE",
"173 416 LINE",
"234 763 LINE",
"165 763 LINE",
"31 0 LINE"
);
}
);
width = 703;
}
);
leftKerningGroup = B;
note = H;
rightKerningGroup = H;
unicode = 0048;
},
{
color = 1;
glyphname = I;
lastChange = "2020-04-14 08:30:42 +0000";
layers = (
{
anchors = (
{
name = bottom;
position = "{100, 0}";
},
{
name = ogonek;
position = "{189, 0}";
},
{
name = top;
position = "{235, 763}";
},
{
name = topleft;
position = "{77, 763}";
}
);
background = {
anchors = (
{
name = bottom;
position = "{150, 0}";
},
{
name = ogonek;
position = "{223, 0}";
},
{
name = top;
position = "{150, 763}";
},
{
name = topleft;
position = "{-8, 763}";
}
);
paths = (
{
closed = 1;
nodes = (
"223 0 LINE SMOOTH",
"233 0 OFFCURVE",
"239 6 OFFCURVE",
"239 16 CURVE SMOOTH",
"239 747 LINE SMOOTH",
"239 757 OFFCURVE",
"233 763 OFFCURVE",
"223 763 CURVE SMOOTH",
"76 763 LINE SMOOTH",
"66 763 OFFCURVE",
"60 757 OFFCURVE",
"60 747 CURVE SMOOTH",
"60 16 LINE SMOOTH",
"60 6 OFFCURVE",
"66 0 OFFCURVE",
"76 0 CURVE SMOOTH"
);
}
);
};
layerId = "FD6EB2BB-8839-4CDB-86BF-4EEAE3F02079";
paths = (
{
closed = 1;
nodes = (
"189 0 LINE",
"324 763 LINE",
"145 763 LINE",
"10 0 LINE"
);
}
);
width = 300;
},
{
anchors = (
{
name = bottom;
position = "{76, 0}";
},
{
name = ogonek;
position = "{122, 0}";
},
{
name = top;
position = "{211, 763}";
},
{
name = topleft;
position = "{84, 763}";
}
);
background = {
anchors = (
{
name = bottom;
position = "{125, 0}";
},
{
name = ogonek;
position = "{155, 0}";
},
{
name = top;
position = "{125, 763}";
},
{
name = topleft;
position = "{-2, 763}";
}
);
paths = (
{
closed = 1;
nodes = (
"155 0 LINE SMOOTH",
"165 0 OFFCURVE",
"171 6 OFFCURVE",
"171 16 CURVE SMOOTH",
"171 747 LINE SMOOTH",
"171 757 OFFCURVE",
"165 763 OFFCURVE",
"155 763 CURVE SMOOTH",
"95 763 LINE SMOOTH",
"85 763 OFFCURVE",
"79 757 OFFCURVE",
"79 747 CURVE SMOOTH",
"79 16 LINE SMOOTH",
"79 6 OFFCURVE",
"85 0 OFFCURVE",
"95 0 CURVE SMOOTH"
);
}
);
};
layerId = "11907447-A26F-432E-A335-7727E0303767";
paths = (
{
closed = 1;
nodes = (
"122 0 LINE",
"257 763 LINE",
"165 763 LINE",
"30 0 LINE"
);
}
);
width = 251;
},
{
anchors = (
{
name = bottom;
position = "{66, 0}";
},
{
name = ogonek;
position = "{100, 0}";
},
{
name = top;
position = "{200, 763}";
},
{
name = topleft;
position = "{80, 763}";
}
);
background = {
anchors = (
{
name = bottom;
position = "{114, 0}";
},
{
name = ogonek;
position = "{138, 0}";
},
{
name = top;
position = "{114, 763}";
},
{
name = topleft;
position = "{-6, 763}";
}
);
paths = (
{
closed = 1;
nodes = (
"138 0 LINE SMOOTH",
"144 0 OFFCURVE",
"148 4 OFFCURVE",
"148 10 CURVE SMOOTH",
"148 753 LINE SMOOTH",
"148 759 OFFCURVE",
"144 763 OFFCURVE",
"138 763 CURVE SMOOTH",
"89 763 LINE SMOOTH",
"83 763 OFFCURVE",
"79 759 OFFCURVE",
"79 753 CURVE SMOOTH",
"79 10 LINE SMOOTH",
"79 4 OFFCURVE",
"83 0 OFFCURVE",
"89 0 CURVE SMOOTH"
);
}
);
};
layerId = "2F4EEC1B-9E89-4E08-AD53-AB625B6E887D";
paths = (
{
closed = 1;
nodes = (
"100 0 LINE",
"234 763 LINE",
"165 763 LINE",
"31 0 LINE"
);
}
);
width = 228;
}
);
leftKerningGroup = I;
note = I;
rightKerningGroup = I;
unicode = 0049;
},
{
color = 1;
glyphname = J;
lastChange = "2020-04-14 08:50:10 +0000";
layers = (
{
background = {
paths = (
{
closed = 1;
nodes = (
"106 0 LINE SMOOTH",
"276 0 OFFCURVE",
"346 46 OFFCURVE",
"346 218 CURVE SMOOTH",
"346 747 LINE SMOOTH",
"346 757 OFFCURVE",
"340 763 OFFCURVE",
"330 763 CURVE SMOOTH",
"182 763 LINE SMOOTH",
"172 763 OFFCURVE",
"166 757 OFFCURVE",
"166 747 CURVE SMOOTH",
"166 220 LINE SMOOTH",
"166 176 OFFCURVE",
"143 160 OFFCURVE",
"106 160 CURVE SMOOTH",
"24 160 LINE SMOOTH",
"14 160 OFFCURVE",
"8 154 OFFCURVE",
"8 144 CURVE SMOOTH",
"8 16 LINE SMOOTH",
"8 6 OFFCURVE",
"14 0 OFFCURVE",
"24 0 CURVE SMOOTH"
);
}
);
};
layerId = "FD6EB2BB-8839-4CDB-86BF-4EEAE3F02079";
paths = (
{
closed = 1;
nodes = (
"56 0 LINE SMOOTH",
"226 0 OFFCURVE",
"303 46 OFFCURVE",
"334 218 CURVE SMOOTH",
"431 763 LINE",
"251 763 LINE",
"155 220 LINE SMOOTH",
"147 176 OFFCURVE",
"121 160 OFFCURVE",
"84 160 CURVE SMOOTH",
"-14 160 LINE",
"-42 0 LINE"
);
}
);
width = 402;
},
{
background = {
paths = (
{
closed = 1;
nodes = (
"112 0 LINE SMOOTH",
"268 0 OFFCURVE",
"307 68 OFFCURVE",
"307 184 CURVE SMOOTH",
"307 747 LINE SMOOTH",
"307 757 OFFCURVE",
"301 763 OFFCURVE",
"291 763 CURVE SMOOTH",
"231 763 LINE SMOOTH",
"221 763 OFFCURVE",
"215 757 OFFCURVE",
"215 747 CURVE SMOOTH",
"215 185 LINE SMOOTH",
"215 113 OFFCURVE",
"180 83 OFFCURVE",
"112 83 CURVE SMOOTH",
"32 83 LINE SMOOTH",
"22 83 OFFCURVE",
"16 77 OFFCURVE",
"16 67 CURVE SMOOTH",
"16 16 LINE SMOOTH",
"16 6 OFFCURVE",
"22 0 OFFCURVE",
"32 0 CURVE SMOOTH"
);
}
);
};
layerId = "11907447-A26F-432E-A335-7727E0303767";
paths = (
{
closed = 1;
nodes = (
"63 0 LINE SMOOTH",
"219 0 OFFCURVE",
"271 68 OFFCURVE",
"291 184 CURVE SMOOTH",
"393 763 LINE",
"301 763 LINE",
"199 185 LINE SMOOTH",
"186 113 OFFCURVE",
"146 83 OFFCURVE",
"78 83 CURVE SMOOTH",
"-18 83 LINE",
"-33 0 LINE"
);
}
);
width = 383;
},
{
anchors = (
{
name = bottom;
position = "{145, 0}";
},
{
name = top;
position = "{279, 763}";
}
);
background = {
anchors = (
{
name = bottom;
position = "{193, 0}";
},
{
name = top;
position = "{193, 763}";
}
);
paths = (
{
closed = 1;
nodes = (
"112 0 LINE SMOOTH",
"257 0 OFFCURVE",
"295 67 OFFCURVE",
"295 175 CURVE SMOOTH",
"295 753 LINE SMOOTH",
"295 759 OFFCURVE",
"291 763 OFFCURVE",
"285 763 CURVE SMOOTH",
"236 763 LINE SMOOTH",
"230 763 OFFCURVE",
"226 759 OFFCURVE",
"226 753 CURVE SMOOTH",
"226 176 LINE SMOOTH",
"226 100 OFFCURVE",
"192 62 OFFCURVE",
"112 62 CURVE SMOOTH",
"26 62 LINE SMOOTH",
"20 62 OFFCURVE",
"16 58 OFFCURVE",
"16 52 CURVE SMOOTH",
"16 10 LINE SMOOTH",
"16 4 OFFCURVE",
"20 0 OFFCURVE",
"26 0 CURVE SMOOTH"
);
}
);
};
layerId = "2F4EEC1B-9E89-4E08-AD53-AB625B6E887D";
paths = (
{
closed = 1;
nodes = (
"64 0 LINE SMOOTH",
"209 0 OFFCURVE",
"258 67 OFFCURVE",
"277 175 CURVE SMOOTH",
"381 763 LINE",
"312 763 LINE",
"209 176 LINE SMOOTH",
"196 100 OFFCURVE",
"155 62 OFFCURVE",
"75 62 CURVE SMOOTH",
"-21 62 LINE",
"-32 0 LINE"
);
}
);
width = 371;
}
);
leftKerningGroup = J;
note = J;
rightKerningGroup = J;
unicode = 004A;
},
{
color = 1;
glyphname = K;
lastChange = "2020-04-14 09:41:12 +0000";
layers = (
{
anchors = (
{
name = bottom;
position = "{298, 0}";
},
{
name = top;
position = "{433, 763}";
}
);
background = {
paths = (
{
closed = 1;
nodes = (
"189 0 LINE",
"234 255 LINE SMOOTH",
"244 312 OFFCURVE",
"241 328 OFFCURVE",
"229 359 CURVE",
"254 369 LINE",
"264 332 OFFCURVE",
"286 286 OFFCURVE",
"295 267 CURVE SMOOTH",
"430 0 LINE",
"643 0 LINE",
"430 393 LINE",
"778 763 LINE",
"558 763 LINE",
"331 515 LINE SMOOTH",
"317 496 OFFCURVE",
"286 458 OFFCURVE",
"279 413 CURVE",
"261 413 LINE",
"324 763 LINE",
"145 763 LINE",
"10 0 LINE"
);
}
);
};
layerId = "FD6EB2BB-8839-4CDB-86BF-4EEAE3F02079";
paths = (
{
closed = 1;
nodes = (
"189 0 LINE",
"251 355 LINE",
"428 0 LINE",
"645 0 LINE",
"430 393 LINE",
"776 763 LINE",
"561 763 LINE",
"268 445 LINE",
"324 763 LINE",
"145 763 LINE",
"10 0 LINE"
);
}
);
width = 695;
},
{
anchors = (
{
name = bottom;
position = "{267, 0}";
},
{
name = top;
position = "{402, 763}";
}
);
background = {
paths = (
{
closed = 1;
nodes = (
"122 0 LINE",
"176 303 LINE SMOOTH",
"183 341 OFFCURVE",
"180 350 OFFCURVE",
"168 365 CURVE",
"187 381 LINE",
"201 360 OFFCURVE",
"219 332 OFFCURVE",
"227 321 CURVE SMOOTH",
"454 0 LINE",
"569 0 LINE",
"288 391 LINE",
"699 763 LINE",
"573 763 LINE",
"248 465 LINE SMOOTH",
"237 454 OFFCURVE",
"215 434 OFFCURVE",
"211 410 CURVE",
"194 410 LINE",
"257 763 LINE",
"165 763 LINE",
"30 0 LINE"
);
}
);
};
layerId = "11907447-A26F-432E-A335-7727E0303767";
paths = (
{
closed = 1;
nodes = (
"122 0 LINE",
"189 375 LINE",
"454 0 LINE",
"569 0 LINE",
"288 391 LINE",
"699 763 LINE",
"574 763 LINE",
"195 417 LINE",
"257 763 LINE",
"165 763 LINE",
"30 0 LINE"
);
}
);
width = 632;
},
{
anchors = (
{
name = bottom;
position = "{251, 0}";
},
{
name = top;
position = "{385, 763}";
}
);
background = {
paths = (
{
closed = 1;
nodes = (
"100 0 LINE",
"156 322 LINE SMOOTH",
"162 356 OFFCURVE",
"161 361 OFFCURVE",
"152 379 CURVE",
"171 390 LINE",
"180 369 OFFCURVE",
"201 340 OFFCURVE",
"210 328 CURVE SMOOTH",
"459 0 LINE",
"546 0 LINE",
"243 392 LINE",
"670 763 LINE",
"577 763 LINE",
"230 464 LINE SMOOTH",
"217 452 OFFCURVE",
"191 430 OFFCURVE",
"188 406 CURVE",
"171 406 LINE",
"234 763 LINE",
"165 763 LINE",
"31 0 LINE"
);
}
);
};
layerId = "2F4EEC1B-9E89-4E08-AD53-AB625B6E887D";
paths = (
{
closed = 1;
nodes = (
"100 0 LINE",
"167 385 LINE",
"459 0 LINE",
"546 0 LINE",
"243 392 LINE",
"670 763 LINE",
"577 763 LINE",
"172 410 LINE",
"234 763 LINE",
"165 763 LINE",
"31 0 LINE"
);
}
);
width = 612;
}
);
leftKerningGroup = B;
note = K;
rightKerningGroup = K;
unicode = 004B;
},
{
color = 1;
glyphname = L;
lastChange = "2020-04-14 08:30:42 +0000";
layers = (
{
anchors = (
{
name = bottom;
position = "{255, 0}";
},
{
name = center;
position = "{279, 382}";
},
{
name = top;
position = "{235, 763}";
},
{
name = topright;
position = "{363, 567}";
}
);
background = {
anchors = (
{
name = bottom;
position = "{305, 0}";
},
{
name = center;
position = "{262, 382}";
},
{
name = top;
position = "{150, 763}";
},
{
name = topright;
position = "{313, 567}";
}
);
paths = (
{
closed = 1;
nodes = (
"534 0 LINE SMOOTH",
"544 0 OFFCURVE",
"550 6 OFFCURVE",
"550 16 CURVE SMOOTH",
"550 144 LINE SMOOTH",
"550 154 OFFCURVE",
"544 160 OFFCURVE",
"534 160 CURVE SMOOTH",
"255 160 LINE SMOOTH",
"245 160 OFFCURVE",
"239 166 OFFCURVE",
"239 176 CURVE SMOOTH",
"239 747 LINE SMOOTH",
"239 757 OFFCURVE",
"233 763 OFFCURVE",
"223 763 CURVE SMOOTH",
"76 763 LINE SMOOTH",
"66 763 OFFCURVE",
"60 757 OFFCURVE",
"60 747 CURVE SMOOTH",
"60 16 LINE SMOOTH",
"60 6 OFFCURVE",
"66 0 OFFCURVE",
"76 0 CURVE SMOOTH"
);
}
);
};
layerId = "FD6EB2BB-8839-4CDB-86BF-4EEAE3F02079";
paths = (
{
closed = 1;
nodes = (
"500 0 LINE",
"528 160 LINE",
"217 160 LINE",
"324 763 LINE",
"145 763 LINE",
"10 0 LINE"
);
}
);
width = 558;
},
{
anchors = (
{
name = bottom;
position = "{247, 0}";
},
{
name = center;
position = "{275, 382}";
},
{
name = top;
position = "{211, 763}";
},
{
name = topright;
position = "{395, 553}";
}
);
background = {
anchors = (
{
name = bottom;
position = "{296, 0}";
},
{
name = center;
position = "{256, 382}";
},
{
name = top;
position = "{125, 763}";
},
{
name = topright;
position = "{346, 553}";
}
);
paths = (
{
closed = 1;
nodes = (
"497 0 LINE SMOOTH",
"507 0 OFFCURVE",
"513 6 OFFCURVE",
"513 16 CURVE SMOOTH",
"513 67 LINE SMOOTH",
"513 77 OFFCURVE",
"507 83 OFFCURVE",
"497 83 CURVE SMOOTH",
"187 83 LINE SMOOTH",
"177 83 OFFCURVE",
"171 89 OFFCURVE",
"171 99 CURVE SMOOTH",
"171 747 LINE SMOOTH",
"171 757 OFFCURVE",
"165 763 OFFCURVE",
"155 763 CURVE SMOOTH",
"95 763 LINE SMOOTH",
"85 763 OFFCURVE",
"79 757 OFFCURVE",
"79 747 CURVE SMOOTH",
"79 16 LINE SMOOTH",
"79 6 OFFCURVE",
"85 0 OFFCURVE",
"95 0 CURVE SMOOTH"
);
}
);
};
layerId = "11907447-A26F-432E-A335-7727E0303767";
paths = (
{
closed = 1;
nodes = (
"464 0 LINE",
"479 83 LINE",
"137 83 LINE",
"257 763 LINE",
"165 763 LINE",
"30 0 LINE"
);
}
);
width = 528;
},
{
anchors = (
{
name = bottom;
position = "{241, 0}";
},
{
name = center;
position = "{267, 382}";
},
{
name = top;
position = "{200, 763}";
},
{
name = topright;
position = "{379, 549}";
}
);
background = {
anchors = (
{
name = bottom;
position = "{289, 0}";
},
{
name = center;
position = "{248, 382}";
},
{
name = top;
position = "{114, 763}";
},
{
name = topright;
position = "{331, 549}";
}
);
paths = (
{
closed = 1;
nodes = (
"488 0 LINE SMOOTH",
"494 0 OFFCURVE",
"498 4 OFFCURVE",
"498 10 CURVE SMOOTH",
"498 52 LINE SMOOTH",
"498 58 OFFCURVE",
"494 62 OFFCURVE",
"488 62 CURVE SMOOTH",
"158 62 LINE SMOOTH",
"152 62 OFFCURVE",
"148 66 OFFCURVE",
"148 72 CURVE SMOOTH",
"148 753 LINE SMOOTH",
"148 759 OFFCURVE",
"144 763 OFFCURVE",
"138 763 CURVE SMOOTH",
"89 763 LINE SMOOTH",
"83 763 OFFCURVE",
"79 759 OFFCURVE",
"79 753 CURVE SMOOTH",
"79 10 LINE SMOOTH",
"79 4 OFFCURVE",
"83 0 OFFCURVE",
"89 0 CURVE SMOOTH"
);
}
);
};
layerId = "2F4EEC1B-9E89-4E08-AD53-AB625B6E887D";
paths = (
{
closed = 1;
nodes = (
"450 0 LINE",
"461 62 LINE",
"111 62 LINE",
"234 763 LINE",
"165 763 LINE",
"31 0 LINE"
);
}
);
width = 513;
}
);
leftKerningGroup = B;
note = L;
rightKerningGroup = L;
unicode = 004C;
},
{
color = 1;
glyphname = Lslash;
lastChange = "2020-04-14 08:30:42 +0000";
layers = (
{
anchors = (
{
name = bottom;
position = "{275, 0}";
},
{
name = center;
position = "{301, 382}";
},
{
name = top;
position = "{368, 763}";
},
{
name = topright;
position = "{622, 763}";
}
);
background = {
anchors = (
{
name = bottom;
position = "{323, 0}";
},
{
name = center;
position = "{282, 382}";
},
{
name = top;
position = "{282, 763}";
},
{
name = topright;
position = "{536, 763}";
}
);
paths = (
{
closed = 1;
nodes = (
"522 0 LINE SMOOTH",
"528 0 OFFCURVE",
"532 4 OFFCURVE",
"532 10 CURVE SMOOTH",
"532 52 LINE SMOOTH",
"532 58 OFFCURVE",
"528 62 OFFCURVE",
"522 62 CURVE SMOOTH",
"192 62 LINE SMOOTH",
"186 62 OFFCURVE",
"182 66 OFFCURVE",
"182 72 CURVE SMOOTH",
"182 380 LINE SMOOTH",
"182 385 OFFCURVE",
"184 390 OFFCURVE",
"189 392 CURVE SMOOTH",
"392 497 LINE SMOOTH",
"397 499 OFFCURVE",
"399 504 OFFCURVE",
"399 509 CURVE SMOOTH",
"399 550 LINE SMOOTH",
"399 557 OFFCURVE",
"394 561 OFFCURVE",
"387 557 CURVE SMOOTH",
"194 457 LINE SMOOTH",
"187 453 OFFCURVE",
"182 457 OFFCURVE",
"182 464 CURVE SMOOTH",
"182 753 LINE SMOOTH",
"182 759 OFFCURVE",
"178 763 OFFCURVE",
"172 763 CURVE SMOOTH",
"123 763 LINE SMOOTH",
"117 763 OFFCURVE",
"113 759 OFFCURVE",
"113 753 CURVE SMOOTH",
"113 424 LINE SMOOTH",
"113 419 OFFCURVE",
"111 414 OFFCURVE",
"106 412 CURVE SMOOTH",
"47 382 LINE SMOOTH",
"42 380 OFFCURVE",
"40 375 OFFCURVE",
"40 370 CURVE SMOOTH",
"40 328 LINE SMOOTH",
"40 321 OFFCURVE",
"45 317 OFFCURVE",
"52 321 CURVE SMOOTH",
"101 347 LINE SMOOTH",
"108 351 OFFCURVE",
"113 347 OFFCURVE",
"113 340 CURVE SMOOTH",
"113 10 LINE SMOOTH",
"113 4 OFFCURVE",
"117 0 OFFCURVE",
"123 0 CURVE SMOOTH"
);
}
);
};
layerId = "2F4EEC1B-9E89-4E08-AD53-AB625B6E887D";
paths = (
{
closed = 1;
nodes = (
"484 0 LINE",
"495 62 LINE",
"145 62 LINE",
"202 388 LINE",
"439 501 LINE",
"450 563 LINE",
"213 451 LINE",
"268 763 LINE",
"199 763 LINE",
"138 416 LINE",
"58 378 LINE",
"47 315 LINE",
"127 353 LINE",
"65 0 LINE"
);
}
);
width = 560;
},
{
anchors = (
{
name = bottom;
position = "{282, 0}";
},
{
name = center;
position = "{310, 382}";
},
{
name = top;
position = "{377, 763}";
},
{
name = topright;
position = "{635, 763}";
}
);
background = {
anchors = (
{
name = bottom;
position = "{331, 0}";
},
{
name = center;
position = "{291, 382}";
},
{
name = top;
position = "{291, 763}";
},
{
name = topright;
position = "{549, 763}";
}
);
paths = (
{
closed = 1;
nodes = (
"532 0 LINE SMOOTH",
"542 0 OFFCURVE",
"548 6 OFFCURVE",
"548 16 CURVE SMOOTH",
"548 67 LINE SMOOTH",
"548 77 OFFCURVE",
"542 83 OFFCURVE",
"532 83 CURVE SMOOTH",
"222 83 LINE SMOOTH",
"212 83 OFFCURVE",
"206 89 OFFCURVE",
"206 99 CURVE SMOOTH",
"206 376 LINE SMOOTH",
"206 385 OFFCURVE",
"210 391 OFFCURVE",
"218 395 CURVE SMOOTH",
"394 486 LINE SMOOTH",
"402 490 OFFCURVE",
"405 496 OFFCURVE",
"405 505 CURVE SMOOTH",
"405 549 LINE SMOOTH",
"405 561 OFFCURVE",
"397 566 OFFCURVE",
"386 560 CURVE SMOOTH",
"225 477 LINE SMOOTH",
"214 471 OFFCURVE",
"206 476 OFFCURVE",
"206 488 CURVE SMOOTH",
"206 747 LINE SMOOTH",
"206 757 OFFCURVE",
"200 763 OFFCURVE",
"190 763 CURVE SMOOTH",
"130 763 LINE SMOOTH",
"120 763 OFFCURVE",
"114 757 OFFCURVE",
"114 747 CURVE SMOOTH",
"114 433 LINE SMOOTH",
"114 424 OFFCURVE",
"110 418 OFFCURVE",
"102 414 CURVE SMOOTH",
"50 387 LINE SMOOTH",
"42 383 OFFCURVE",
"38 377 OFFCURVE",
"38 368 CURVE SMOOTH",
"38 323 LINE SMOOTH",
"38 311 OFFCURVE",
"46 306 OFFCURVE",
"57 312 CURVE SMOOTH",
"95 331 LINE SMOOTH",
"106 336 OFFCURVE",
"114 332 OFFCURVE",
"114 320 CURVE SMOOTH",
"114 16 LINE SMOOTH",
"114 6 OFFCURVE",
"120 0 OFFCURVE",
"130 0 CURVE SMOOTH"
);
}
);
};
layerId = "11907447-A26F-432E-A335-7727E0303767";
paths = (
{
closed = 1;
nodes = (
"499 0 LINE",
"514 83 LINE",
"172 83 LINE",
"226 389 LINE",
"443 492 LINE",
"457 570 LINE",
"240 467 LINE",
"292 763 LINE",
"200 763 LINE",
"139 420 LINE",
"56 381 LINE",
"43 303 LINE",
"125 340 LINE",
"65 0 LINE"
);
}
);
width = 568;
},
{
anchors = (
{
name = bottom;
position = "{300, 0}";
},
{
name = center;
position = "{324, 382}";
},
{
name = top;
position = "{392, 763}";
},
{
name = topright;
position = "{662, 763}";
}
);
background = {
anchors = (
{
name = bottom;
position = "{350, 0}";
},
{
name = center;
position = "{307, 382}";
},
{
name = top;
position = "{307, 763}";
},
{
name = topright;
position = "{577, 763}";
}
);
paths = (
{
closed = 1;
nodes = (
"579 0 LINE SMOOTH",
"589 0 OFFCURVE",
"595 6 OFFCURVE",
"595 16 CURVE SMOOTH",
"595 144 LINE SMOOTH",
"595 154 OFFCURVE",
"589 160 OFFCURVE",
"579 160 CURVE SMOOTH",
"300 160 LINE SMOOTH",
"290 160 OFFCURVE",
"284 166 OFFCURVE",
"284 176 CURVE SMOOTH",
"284 360 LINE SMOOTH",
"284 369 OFFCURVE",
"288 375 OFFCURVE",
"296 379 CURVE SMOOTH",
"414 440 LINE SMOOTH",
"422 444 OFFCURVE",
"425 450 OFFCURVE",
"425 459 CURVE SMOOTH",
"425 563 LINE SMOOTH",
"425 575 OFFCURVE",
"417 580 OFFCURVE",
"406 574 CURVE SMOOTH",
"303 521 LINE SMOOTH",
"292 515 OFFCURVE",
"284 520 OFFCURVE",
"284 532 CURVE SMOOTH",
"284 747 LINE SMOOTH",
"284 757 OFFCURVE",
"278 763 OFFCURVE",
"268 763 CURVE SMOOTH",
"121 763 LINE SMOOTH",
"111 763 OFFCURVE",
"105 757 OFFCURVE",
"105 747 CURVE SMOOTH",
"105 432 LINE SMOOTH",
"105 423 OFFCURVE",
"101 417 OFFCURVE",
"93 413 CURVE SMOOTH",
"43 387 LINE SMOOTH",
"35 383 OFFCURVE",
"31 377 OFFCURVE",
"31 368 CURVE SMOOTH",
"31 263 LINE SMOOTH",
"31 251 OFFCURVE",
"39 246 OFFCURVE",
"50 252 CURVE SMOOTH",
"86 270 LINE SMOOTH",
"97 275 OFFCURVE",
"105 271 OFFCURVE",
"105 259 CURVE SMOOTH",
"105 16 LINE SMOOTH",
"105 6 OFFCURVE",
"111 0 OFFCURVE",
"121 0 CURVE SMOOTH"
);
}
);
};
layerId = "FD6EB2BB-8839-4CDB-86BF-4EEAE3F02079";
paths = (
{
closed = 1;
nodes = (
"545 0 LINE",
"573 160 LINE",
"262 160 LINE",
"300 373 LINE",
"454 446 LINE",
"478 584 LINE",
"324 511 LINE",
"369 763 LINE",
"190 763 LINE",
"129 419 LINE",
"48 381 LINE",
"24 243 LINE",
"104 279 LINE",
"55 0 LINE"
);
}
);
width = 595;
}
);
unicode = 0141;
},
{
color = 1;
glyphname = M;
lastChange = "2020-04-14 09:43:37 +0000";
layers = (
{
anchors = (
{
name = bottom;
position = "{424, 0}";
},
{
name = top;
position = "{559, 763}";
}
);
layerId = "FD6EB2BB-8839-4CDB-86BF-4EEAE3F02079";
paths = (
{
closed = 1;
nodes = (
"189 0 LINE",
"298 616 LINE",
"337 0 LINE",
"511 0 LINE",
"768 620 LINE",
"659 0 LINE",
"838 0 LINE",
"973 763 LINE",
"674 763 LINE",
"452 214 LINE",
"423 763 LINE",
"145 763 LINE",
"10 0 LINE"
);
}
);
width = 949;
},
{
anchors = (
{
name = bottom;
position = "{401, 0}";
},
{
name = top;
position = "{536, 763}";
}
);
layerId = "11907447-A26F-432E-A335-7727E0303767";
paths = (
{
closed = 1;
nodes = (
"122 0 LINE",
"246 703 LINE",
"355 0 LINE",
"446 0 LINE",
"804 708 LINE",
"679 0 LINE",
"771 0 LINE",
"906 763 LINE",
"735 763 LINE",
"415 114 LINE",
"325 763 LINE",
"165 763 LINE",
"30 0 LINE"
);
}
);
width = 899;
},
{
anchors = (
{
name = bottom;
position = "{390, 0}";
},
{
name = top;
position = "{524, 763}";
}
);
layerId = "2F4EEC1B-9E89-4E08-AD53-AB625B6E887D";
paths = (
{
closed = 1;
nodes = (
"100 0 LINE",
"222 692 LINE",
"347 0 LINE",
"433 0 LINE",
"801 690 LINE",
"680 0 LINE",
"749 0 LINE",
"883 763 LINE",
"769 763 LINE",
"399 70 LINE",
"273 763 LINE",
"165 763 LINE",
"31 0 LINE"
);
}
);
width = 876;
}
);
leftKerningGroup = B;
note = M;
rightKerningGroup = H;
unicode = 004D;
},
{
color = 1;
glyphname = N;
lastChange = "2020-04-14 08:30:42 +0000";
layers = (
{
anchors = (
{
name = bottom;
position = "{337, 0}";
},
{
name = top;
position = "{472, 763}";
}
);
layerId = "FD6EB2BB-8839-4CDB-86BF-4EEAE3F02079";
paths = (
{
closed = 1;
nodes = (
"189 0 LINE",
"271 466 LINE",
"482 0 LINE",
"664 0 LINE",
"799 763 LINE",
"620 763 LINE",
"538 300 LINE",
"327 763 LINE",
"145 763 LINE",
"10 0 LINE"
);
}
);
width = 774;
},
{
anchors = (
{
name = bottom;
position = "{314, 0}";
},
{
name = top;
position = "{449, 763}";
}
);
layerId = "11907447-A26F-432E-A335-7727E0303767";
paths = (
{
closed = 1;
nodes = (
"122 0 LINE",
"240 669 LINE",
"464 0 LINE",
"598 0 LINE",
"733 763 LINE",
"642 763 LINE",
"523 92 LINE",
"299 763 LINE",
"165 763 LINE",
"30 0 LINE"
);
}
);
width = 727;
},
{
anchors = (
{
name = bottom;
position = "{304, 0}";
},
{
name = top;
position = "{438, 763}";
}
);
layerId = "2F4EEC1B-9E89-4E08-AD53-AB625B6E887D";
paths = (
{
closed = 1;
nodes = (
"100 0 LINE",
"222 697 LINE",
"470 0 LINE",
"576 0 LINE",
"710 763 LINE",
"642 763 LINE",
"519 63 LINE",
"271 763 LINE",
"165 763 LINE",
"31 0 LINE"
);
}
);
width = 704;
}
);
leftKerningGroup = B;
note = N;
rightKerningGroup = H;
unicode = 004E;
},
{
color = 1;
glyphname = O;
lastChange = "2020-04-14 08:48:22 +0000";
layers = (
{
anchors = (
{
name = bottom;
position = "{362, 0}";
},
{
name = center;
position = "{429, 382}";
},
{
name = ogonek;
position = "{486, 0}";
},
{
name = top;
position = "{497, 763}";
},
{
name = topleft;
position = "{106, 763}";
},
{
name = topright;
position = "{888, 763}";
}
);
layerId = "FD6EB2BB-8839-4CDB-86BF-4EEAE3F02079";
paths = (
{
closed = 1;
nodes = (
"629 -17 OFFCURVE",
"818 200 OFFCURVE",
"818 473 CURVE SMOOTH",
"818 645 OFFCURVE",
"721 779 OFFCURVE",
"500 779 CURVE SMOOTH",
"230 779 OFFCURVE",
"41 564 OFFCURVE",
"41 292 CURVE SMOOTH",
"41 119 OFFCURVE",
"137 -17 OFFCURVE",
"360 -17 CURVE SMOOTH"
);
},
{
closed = 1;
nodes = (
"287 143 OFFCURVE",
"232 210 OFFCURVE",
"232 317 CURVE SMOOTH",
"232 470 OFFCURVE",
"321 619 OFFCURVE",
"472 619 CURVE SMOOTH",
"572 619 OFFCURVE",
"627 554 OFFCURVE",
"627 448 CURVE SMOOTH",
"627 294 OFFCURVE",
"539 143 OFFCURVE",
"388 143 CURVE SMOOTH"
);
}
);
width = 826;
},
{
anchors = (
{
name = bottom;
position = "{356, 0}";
},
{
name = center;
position = "{424, 382}";
},
{
name = ogonek;
position = "{445, 0}";
},
{
name = top;
position = "{491, 763}";
},
{
name = topleft;
position = "{104, 763}";
},
{
name = topright;
position = "{878, 763}";
}
);
layerId = "11907447-A26F-432E-A335-7727E0303767";
paths = (
{
closed = 1;
nodes = (
"609 -10 OFFCURVE",
"787 211 OFFCURVE",
"787 473 CURVE SMOOTH",
"787 641 OFFCURVE",
"698 773 OFFCURVE",
"492 773 CURVE SMOOTH",
"237 773 OFFCURVE",
"60 552 OFFCURVE",
"60 289 CURVE SMOOTH",
"60 122 OFFCURVE",
"150 -10 OFFCURVE",
"353 -10 CURVE SMOOTH"
);
},
{
closed = 1;
nodes = (
"226 73 OFFCURVE",
"153 165 OFFCURVE",
"153 302 CURVE SMOOTH",
"153 505 OFFCURVE",
"278 690 OFFCURVE",
"477 690 CURVE SMOOTH",
"622 690 OFFCURVE",
"694 597 OFFCURVE",
"694 461 CURVE SMOOTH",
"694 257 OFFCURVE",
"568 73 OFFCURVE",
"368 73 CURVE SMOOTH"
);
}
);
width = 811;
},
{
anchors = (
{
name = bottom;
position = "{350, 0}";
},
{
name = center;
position = "{417, 382}";
},
{
name = ogonek;
position = "{434, 0}";
},
{
name = top;
position = "{484, 763}";
},
{
name = topleft;
position = "{99, 763}";
},
{
name = topright;
position = "{869, 763}";
}
);
layerId = "2F4EEC1B-9E89-4E08-AD53-AB625B6E887D";
paths = (
{
closed = 1;
nodes = (
"598 -10 OFFCURVE",
"772 215 OFFCURVE",
"772 476 CURVE SMOOTH",
"772 642 OFFCURVE",
"684 773 OFFCURVE",
"485 773 CURVE SMOOTH",
"234 773 OFFCURVE",
"60 549 OFFCURVE",
"60 288 CURVE SMOOTH",
"60 122 OFFCURVE",
"148 -10 OFFCURVE",
"347 -10 CURVE SMOOTH"
);
},
{
closed = 1;
nodes = (
"204 52 OFFCURVE",
"130 153 OFFCURVE",
"130 297 CURVE SMOOTH",
"130 513 OFFCURVE",
"263 711 OFFCURVE",
"474 711 CURVE SMOOTH",
"628 711 OFFCURVE",
"702 610 OFFCURVE",
"702 467 CURVE SMOOTH",
"702 250 OFFCURVE",
"569 52 OFFCURVE",
"358 52 CURVE SMOOTH"
);
}
);
width = 794;
}
);
leftKerningGroup = C;
note = O;
rightKerningGroup = D;
unicode = 004F;
},
{
glyphname = OE;
lastChange = "2020-04-14 08:49:12 +0000";
layers = (
{
anchors = (
{
name = bottom;
position = "{555, 0}";
},
{
name = top;
position = "{689, 763}";
}
);
layerId = "2F4EEC1B-9E89-4E08-AD53-AB625B6E887D";
paths = (
{
closed = 1;
nodes = (
"477 -10 OFFCURVE",
"579 46 OFFCURVE",
"653 142 CURVE",
"628 0 LINE",
"1114 0 LINE",
"1125 62 LINE",
"708 62 LINE",
"759 353 LINE",
"1125 353 LINE",
"1136 414 LINE",
"770 414 LINE",
"820 701 LINE",
"1237 701 LINE",
"1248 763 LINE",
"762 763 LINE",
"737 622 LINE",
"697 717 OFFCURVE",
"615 773 OFFCURVE",
"485 773 CURVE SMOOTH",
"234 773 OFFCURVE",
"60 549 OFFCURVE",
"60 288 CURVE SMOOTH",
"60 122 OFFCURVE",
"148 -10 OFFCURVE",
"347 -10 CURVE SMOOTH"
);
},
{
closed = 1;
nodes = (
"204 52 OFFCURVE",
"130 153 OFFCURVE",
"130 297 CURVE SMOOTH",
"130 513 OFFCURVE",
"263 711 OFFCURVE",
"474 711 CURVE SMOOTH",
"628 711 OFFCURVE",
"702 610 OFFCURVE",
"702 467 CURVE SMOOTH",
"702 250 OFFCURVE",
"569 52 OFFCURVE",
"358 52 CURVE SMOOTH"
);
}
);
width = 1206;
},
{
anchors = (
{
name = bottom;
position = "{553, 0}";
},
{
name = top;
position = "{688, 763}";
}
);
layerId = "11907447-A26F-432E-A335-7727E0303767";
paths = (
{
closed = 1;
nodes = (
"457 -10 OFFCURVE",
"548 29 OFFCURVE",
"639 117 CURVE",
"618 0 LINE",
"1111 0 LINE",
"1126 83 LINE",
"725 83 LINE",
"771 342 LINE",
"1125 342 LINE",
"1139 424 LINE",
"785 424 LINE",
"830 680 LINE",
"1231 680 LINE",
"1246 763 LINE",
"753 763 LINE",
"732 646 LINE",
"677 734 OFFCURVE",
"601 773 OFFCURVE",
"492 773 CURVE SMOOTH",
"237 773 OFFCURVE",
"60 552 OFFCURVE",
"60 289 CURVE SMOOTH",
"60 122 OFFCURVE",
"150 -10 OFFCURVE",
"353 -10 CURVE SMOOTH"
);
},
{
closed = 1;
nodes = (
"226 73 OFFCURVE",
"153 165 OFFCURVE",
"153 302 CURVE SMOOTH",
"153 505 OFFCURVE",
"278 690 OFFCURVE",
"477 690 CURVE SMOOTH",
"622 690 OFFCURVE",
"694 597 OFFCURVE",
"694 461 CURVE SMOOTH",
"694 257 OFFCURVE",
"568 73 OFFCURVE",
"368 73 CURVE SMOOTH"
);
}
);
width = 1204;
},
{
anchors = (
{
name = bottom;
position = "{536, 0}";
},
{
name = top;
position = "{671, 763}";
}
);
layerId = "FD6EB2BB-8839-4CDB-86BF-4EEAE3F02079";
paths = (
{
closed = 1;
nodes = (
"434 -17 OFFCURVE",
"516 13 OFFCURVE",
"570 66 CURVE",
"558 0 LINE",
"1079 0 LINE",
"1107 160 LINE",
"765 160 LINE",
"790 302 LINE",
"1099 302 LINE",
"1127 461 LINE",
"818 461 LINE",
"843 603 LINE",
"1185 603 LINE",
"1214 763 LINE",
"693 763 LINE",
"681 695 LINE",
"647 742 OFFCURVE",
"575 779 OFFCURVE",
"483 779 CURVE SMOOTH",
"224 779 OFFCURVE",
"41 556 OFFCURVE",
"41 291 CURVE SMOOTH",
"41 119 OFFCURVE",
"135 -17 OFFCURVE",
"343 -17 CURVE SMOOTH"
);
},
{
closed = 1;
nodes = (
"287 143 OFFCURVE",
"232 210 OFFCURVE",
"232 317 CURVE SMOOTH",
"232 470 OFFCURVE",
"321 619 OFFCURVE",
"472 619 CURVE SMOOTH",
"572 619 OFFCURVE",
"627 554 OFFCURVE",
"627 448 CURVE SMOOTH",
"627 294 OFFCURVE",
"539 143 OFFCURVE",
"388 143 CURVE SMOOTH"
);
}
);
width = 1172;
}
);
leftKerningGroup = C;
leftMetricsKey = O;
rightKerningGroup = E;
rightMetricsKey = E;
unicode = 0152;
},
{
color = 1;
glyphname = P;
lastChange = "2020-04-14 08:51:12 +0000";
layers = (
{
anchors = (
{
name = bottom;
position = "{274, 0}";
},
{
name = top;
position = "{409, 763}";
}
);
layerId = "FD6EB2BB-8839-4CDB-86BF-4EEAE3F02079";
paths = (
{
closed = 1;
nodes = (
"189 0 LINE",
"241 294 LINE",
"422 294 LINE SMOOTH",
"593 294 OFFCURVE",
"710 423 OFFCURVE",
"710 592 CURVE SMOOTH",
"710 714 OFFCURVE",
"627 763 OFFCURVE",
"505 763 CURVE SMOOTH",
"145 763 LINE",
"10 0 LINE"
);
},
{
closed = 1;
nodes = (
"295 603 LINE",
"451 603 LINE SMOOTH",
"502 603 OFFCURVE",
"529 583 OFFCURVE",
"529 545 CURVE SMOOTH",
"529 487 OFFCURVE",
"481 449 OFFCURVE",
"414 449 CURVE SMOOTH",
"268 449 LINE"
);
}
);
width = 683;
},
{
anchors = (
{
name = bottom;
position = "{261, 0}";
},
{
name = top;
position = "{396, 763}";
}
);
layerId = "11907447-A26F-432E-A335-7727E0303767";
paths = (
{
closed = 1;
nodes = (
"122 0 LINE",
"179 322 LINE",
"371 322 LINE SMOOTH",
"539 322 OFFCURVE",
"657 434 OFFCURVE",
"657 596 CURVE SMOOTH",
"657 708 OFFCURVE",
"577 763 OFFCURVE",
"449 763 CURVE SMOOTH",
"165 763 LINE",
"30 0 LINE"
);
},
{
closed = 1;
nodes = (
"242 680 LINE",
"422 680 LINE SMOOTH",
"513 680 OFFCURVE",
"564 641 OFFCURVE",
"564 571 CURVE SMOOTH",
"564 468 OFFCURVE",
"478 404 OFFCURVE",
"363 404 CURVE SMOOTH",
"193 404 LINE"
);
}
);
width = 640;
},
{
anchors = (
{
name = bottom;
position = "{252, 0}";
},
{
name = top;
position = "{386, 763}";
}
);
layerId = "2F4EEC1B-9E89-4E08-AD53-AB625B6E887D";
paths = (
{
closed = 1;
nodes = (
"100 0 LINE",
"158 332 LINE",
"353 332 LINE SMOOTH",
"520 332 OFFCURVE",
"637 436 OFFCURVE",
"637 596 CURVE SMOOTH",
"637 706 OFFCURVE",
"558 763 OFFCURVE",
"429 763 CURVE SMOOTH",
"165 763 LINE",
"31 0 LINE"
);
},
{
closed = 1;
nodes = (
"223 701 LINE",
"409 701 LINE SMOOTH",
"512 701 OFFCURVE",
"568 656 OFFCURVE",
"568 578 CURVE SMOOTH",
"568 463 OFFCURVE",
"474 392 OFFCURVE",
"345 392 CURVE SMOOTH",
"169 392 LINE"
);
}
);
width = 620;
}
);
leftKerningGroup = B;
note = P;
rightKerningGroup = P;
unicode = 0050;
},
{
color = 1;
glyphname = Thorn;
lastChange = "2020-04-14 08:48:00 +0000";
layers = (
{
layerId = "FD6EB2BB-8839-4CDB-86BF-4EEAE3F02079";
paths = (
{
closed = 1;
nodes = (
"188 0 LINE",
"224 204 LINE",
"405 204 LINE SMOOTH",
"572 204 OFFCURVE",
"692 328 OFFCURVE",
"692 493 CURVE SMOOTH",
"692 613 OFFCURVE",
"609 663 OFFCURVE",
"486 663 CURVE SMOOTH",
"305 663 LINE",
"323 763 LINE",
"145 763 LINE",
"10 0 LINE"
);
},
{
closed = 1;
nodes = (
"277 502 LINE",
"438 502 LINE SMOOTH",
"484 502 OFFCURVE",
"510 484 OFFCURVE",
"510 448 CURVE SMOOTH",
"510 395 OFFCURVE",
"474 360 OFFCURVE",
"412 360 CURVE SMOOTH",
"251 360 LINE"
);
}
);
width = 672;
},
{
layerId = "11907447-A26F-432E-A335-7727E0303767";
paths = (
{
closed = 1;
nodes = (
"121 0 LINE",
"160 221 LINE",
"352 221 LINE SMOOTH",
"519 221 OFFCURVE",
"638 328 OFFCURVE",
"638 488 CURVE SMOOTH",
"638 600 OFFCURVE",
"558 655 OFFCURVE",
"429 655 CURVE SMOOTH",
"237 655 LINE",
"256 763 LINE",
"165 763 LINE",
"30 0 LINE"
);
},
{
closed = 1;
nodes = (
"222 572 LINE",
"404 572 LINE SMOOTH",
"494 572 OFFCURVE",
"545 534 OFFCURVE",
"545 465 CURVE SMOOTH",
"545 364 OFFCURVE",
"470 302 OFFCURVE",
"356 302 CURVE SMOOTH",
"174 302 LINE"
);
}
);
width = 641;
},
{
anchors = (
{
name = bottom;
position = "{252, 0}";
},
{
name = top;
position = "{386, 763}";
}
);
layerId = "2F4EEC1B-9E89-4E08-AD53-AB625B6E887D";
paths = (
{
closed = 1;
nodes = (
"99 0 LINE",
"138 226 LINE",
"333 226 LINE SMOOTH",
"500 226 OFFCURVE",
"618 329 OFFCURVE",
"618 487 CURVE SMOOTH",
"618 596 OFFCURVE",
"539 653 OFFCURVE",
"409 653 CURVE SMOOTH",
"214 653 LINE",
"233 763 LINE",
"165 763 LINE",
"31 0 LINE"
);
},
{
closed = 1;
nodes = (
"203 591 LINE",
"391 591 LINE SMOOTH",
"493 591 OFFCURVE",
"549 547 OFFCURVE",
"549 470 CURVE SMOOTH",
"549 356 OFFCURVE",
"465 287 OFFCURVE",
"337 287 CURVE SMOOTH",
"149 287 LINE"
);
}
);
width = 628;
}
);
leftKerningGroup = B;
leftMetricsKey = P;
note = Thorn;
rightKerningGroup = Thorn;
unicode = 00DE;
},
{
color = 1;
glyphname = Q;
lastChange = "2020-04-14 08:50:35 +0000";
layers = (
{
anchors = (
{
name = bottom;
position = "{364, 0}";
},
{
name = top;
position = "{499, 763}";
}
);
layerId = "FD6EB2BB-8839-4CDB-86BF-4EEAE3F02079";
paths = (
{
closed = 1;
nodes = (
"629 -17 OFFCURVE",
"818 200 OFFCURVE",
"818 473 CURVE SMOOTH",
"818 645 OFFCURVE",
"721 779 OFFCURVE",
"500 779 CURVE SMOOTH",
"230 779 OFFCURVE",
"41 564 OFFCURVE",
"41 292 CURVE SMOOTH",
"41 119 OFFCURVE",
"137 -17 OFFCURVE",
"360 -17 CURVE SMOOTH"
);
},
{
closed = 1;
nodes = (
"725 -87 LINE",
"640 97 LINE",
"472 30 LINE",
"523 -87 LINE"
);
},
{
closed = 1;
nodes = (
"287 143 OFFCURVE",
"232 210 OFFCURVE",
"232 317 CURVE SMOOTH",
"232 470 OFFCURVE",
"321 619 OFFCURVE",
"472 619 CURVE SMOOTH",
"572 619 OFFCURVE",
"627 554 OFFCURVE",
"627 448 CURVE SMOOTH",
"627 294 OFFCURVE",
"539 143 OFFCURVE",
"388 143 CURVE SMOOTH"
);
}
);
width = 828;
},
{
anchors = (
{
name = bottom;
position = "{357, 0}";
},
{
name = top;
position = "{492, 763}";
}
);
layerId = "11907447-A26F-432E-A335-7727E0303767";
paths = (
{
closed = 1;
nodes = (
"609 -10 OFFCURVE",
"787 211 OFFCURVE",
"787 473 CURVE SMOOTH",
"787 641 OFFCURVE",
"698 773 OFFCURVE",
"492 773 CURVE SMOOTH",
"237 773 OFFCURVE",
"60 552 OFFCURVE",
"60 289 CURVE SMOOTH",
"60 122 OFFCURVE",
"150 -10 OFFCURVE",
"353 -10 CURVE SMOOTH"
);
},
{
closed = 1;
nodes = (
"672 -87 LINE",
"593 83 LINE",
"505 45 LINE",
"571 -87 LINE"
);
},
{
closed = 1;
nodes = (
"226 73 OFFCURVE",
"153 165 OFFCURVE",
"153 302 CURVE SMOOTH",
"153 505 OFFCURVE",
"278 690 OFFCURVE",
"477 690 CURVE SMOOTH",
"622 690 OFFCURVE",
"694 597 OFFCURVE",
"694 461 CURVE SMOOTH",
"694 257 OFFCURVE",
"568 73 OFFCURVE",
"368 73 CURVE SMOOTH"
);
}
);
width = 812;
},
{
anchors = (
{
name = bottom;
position = "{349, 0}";
},
{
name = top;
position = "{483, 763}";
}
);
layerId = "2F4EEC1B-9E89-4E08-AD53-AB625B6E887D";
paths = (
{
closed = 1;
nodes = (
"598 -10 OFFCURVE",
"772 215 OFFCURVE",
"772 476 CURVE SMOOTH",
"772 642 OFFCURVE",
"684 773 OFFCURVE",
"485 773 CURVE SMOOTH",
"234 773 OFFCURVE",
"60 549 OFFCURVE",
"60 288 CURVE SMOOTH",
"60 122 OFFCURVE",
"148 -10 OFFCURVE",
"347 -10 CURVE SMOOTH"
);
},
{
closed = 1;
nodes = (
"652 -87 LINE",
"576 80 LINE",
"508 53 LINE",
"573 -87 LINE"
);
},
{
closed = 1;
nodes = (
"204 52 OFFCURVE",
"130 153 OFFCURVE",
"130 297 CURVE SMOOTH",
"130 513 OFFCURVE",
"263 711 OFFCURVE",
"474 711 CURVE SMOOTH",
"628 711 OFFCURVE",
"702 610 OFFCURVE",
"702 467 CURVE SMOOTH",
"702 250 OFFCURVE",
"569 52 OFFCURVE",
"358 52 CURVE SMOOTH"
);
}
);
width = 794;
}
);
leftKerningGroup = C;
note = Q;
rightKerningGroup = Q;
unicode = 0051;
},
{
color = 1;
glyphname = R;
lastChange = "2020-04-14 09:40:38 +0000";
layers = (
{
anchors = (
{
name = bottom;
position = "{317, 0}";
},
{
name = top;
position = "{427, 763}";
}
);
layerId = "FD6EB2BB-8839-4CDB-86BF-4EEAE3F02079";
paths = (
{
closed = 1;
nodes = (
"189 0 LINE",
"241 294 LINE",
"422 294 LINE SMOOTH",
"593 294 OFFCURVE",
"710 423 OFFCURVE",
"710 592 CURVE SMOOTH",
"710 714 OFFCURVE",
"627 763 OFFCURVE",
"505 763 CURVE SMOOTH",
"145 763 LINE",
"10 0 LINE"
);
},
{
closed = 1;
nodes = (
"634 0 LINE",
"553 357 LINE",
"384 309 LINE",
"454 0 LINE"
);
},
{
closed = 1;
nodes = (
"295 603 LINE",
"451 603 LINE SMOOTH",
"502 603 OFFCURVE",
"529 583 OFFCURVE",
"529 545 CURVE SMOOTH",
"529 487 OFFCURVE",
"481 449 OFFCURVE",
"414 449 CURVE SMOOTH",
"268 449 LINE"
);
}
);
width = 708;
},
{
anchors = (
{
name = bottom;
position = "{295, 0}";
},
{
name = top;
position = "{407, 763}";
}
);
layerId = "11907447-A26F-432E-A335-7727E0303767";
paths = (
{
closed = 1;
nodes = (
"122 0 LINE",
"179 322 LINE",
"371 322 LINE SMOOTH",
"539 322 OFFCURVE",
"657 434 OFFCURVE",
"657 596 CURVE SMOOTH",
"657 708 OFFCURVE",
"577 763 OFFCURVE",
"449 763 CURVE SMOOTH",
"165 763 LINE",
"30 0 LINE"
);
},
{
closed = 1;
nodes = (
"566 0 LINE",
"471 369 LINE",
"388 339 LINE",
"473 0 LINE"
);
},
{
closed = 1;
nodes = (
"242 680 LINE",
"422 680 LINE SMOOTH",
"513 680 OFFCURVE",
"564 641 OFFCURVE",
"564 571 CURVE SMOOTH",
"564 468 OFFCURVE",
"478 404 OFFCURVE",
"363 404 CURVE SMOOTH",
"193 404 LINE"
);
}
);
width = 660;
},
{
anchors = (
{
name = bottom;
position = "{285, 0}";
},
{
name = top;
position = "{396, 763}";
}
);
layerId = "2F4EEC1B-9E89-4E08-AD53-AB625B6E887D";
paths = (
{
closed = 1;
nodes = (
"100 0 LINE",
"158 332 LINE",
"353 332 LINE SMOOTH",
"520 332 OFFCURVE",
"637 436 OFFCURVE",
"637 596 CURVE SMOOTH",
"637 706 OFFCURVE",
"558 763 OFFCURVE",
"429 763 CURVE SMOOTH",
"165 763 LINE",
"31 0 LINE"
);
},
{
closed = 1;
nodes = (
"544 0 LINE",
"446 369 LINE",
"382 347 LINE",
"474 0 LINE"
);
},
{
closed = 1;
nodes = (
"223 701 LINE",
"409 701 LINE SMOOTH",
"512 701 OFFCURVE",
"568 656 OFFCURVE",
"568 578 CURVE SMOOTH",
"568 463 OFFCURVE",
"474 392 OFFCURVE",
"345 392 CURVE SMOOTH",
"169 392 LINE"
);
}
);
width = 639;
}
);
leftKerningGroup = B;
note = R;
rightKerningGroup = R;
unicode = 0052;
},
{
color = 1;
glyphname = S;
lastChange = "2020-04-14 08:48:07 +0000";
layers = (
{
anchors = (
{
name = bottom;
position = "{306, 0}";
},
{
name = top;
position = "{441, 763}";
}
);
guideLines = (
{
position = "{547, 525}";
},
{
position = "{106, 259}";
}
);
layerId = "FD6EB2BB-8839-4CDB-86BF-4EEAE3F02079";
paths = (
{
closed = 1;
nodes = (
"520 -17 OFFCURVE",
"673 93 OFFCURVE",
"673 271 CURVE SMOOTH",
"673 410 OFFCURVE",
"536 444 OFFCURVE",
"423 469 CURVE SMOOTH",
"344 487 OFFCURVE",
"277 504 OFFCURVE",
"277 551 CURVE SMOOTH",
"277 606 OFFCURVE",
"337 629 OFFCURVE",
"391 629 CURVE SMOOTH",
"466 629 OFFCURVE",
"511 590 OFFCURVE",
"518 525 CURVE",
"703 525 LINE",
"703 695 OFFCURVE",
"581 779 OFFCURVE",
"421 779 CURVE SMOOTH",
"242 779 OFFCURVE",
"93 675 OFFCURVE",
"93 505 CURVE SMOOTH",
"93 372 OFFCURVE",
"226 340 OFFCURVE",
"338 315 CURVE SMOOTH",
"418 297 OFFCURVE",
"488 280 OFFCURVE",
"488 229 CURVE SMOOTH",
"488 169 OFFCURVE",
"425 133 OFFCURVE",
"353 133 CURVE SMOOTH",
"284 133 OFFCURVE",
"220 159 OFFCURVE",
"212 259 CURVE",
"27 259 LINE",
"27 68 OFFCURVE",
"142 -17 OFFCURVE",
"328 -17 CURVE SMOOTH"
);
}
);
width = 712;
},
{
anchors = (
{
name = bottom;
position = "{287, 0}";
},
{
name = top;
position = "{422, 763}";
}
);
guideLines = (
{
angle = 180;
position = "{701, 552}";
},
{
position = "{645, 231}";
}
);
layerId = "11907447-A26F-432E-A335-7727E0303767";
paths = (
{
closed = 1;
nodes = (
"483 -10 OFFCURVE",
"615 91 OFFCURVE",
"615 257 CURVE SMOOTH",
"615 385 OFFCURVE",
"497 412 OFFCURVE",
"388 436 CURVE SMOOTH",
"298 456 OFFCURVE",
"215 475 OFFCURVE",
"215 550 CURVE SMOOTH",
"215 638 OFFCURVE",
"291 691 OFFCURVE",
"395 691 CURVE SMOOTH",
"479 691 OFFCURVE",
"556 657 OFFCURVE",
"560 553 CURVE",
"649 553 LINE",
"649 710 OFFCURVE",
"540 773 OFFCURVE",
"411 773 CURVE SMOOTH",
"249 773 OFFCURVE",
"120 674 OFFCURVE",
"120 523 CURVE SMOOTH",
"120 408 OFFCURVE",
"230 383 OFFCURVE",
"334 361 CURVE SMOOTH",
"429 341 OFFCURVE",
"520 320 OFFCURVE",
"520 233 CURVE SMOOTH",
"520 130 OFFCURVE",
"440 72 OFFCURVE",
"323 72 CURVE SMOOTH",
"228 72 OFFCURVE",
"131 109 OFFCURVE",
"127 231 CURVE",
"34 231 LINE",
"34 60 OFFCURVE",
"153 -10 OFFCURVE",
"304 -10 CURVE SMOOTH"
);
}
);
width = 673;
},
{
anchors = (
{
name = bottom;
position = "{278, 0}";
},
{
name = top;
position = "{412, 763}";
}
);
layerId = "2F4EEC1B-9E89-4E08-AD53-AB625B6E887D";
paths = (
{
closed = 1;
nodes = (
"465 -10 OFFCURVE",
"597 93 OFFCURVE",
"597 256 CURVE SMOOTH",
"597 381 OFFCURVE",
"481 408 OFFCURVE",
"373 432 CURVE SMOOTH",
"280 453 OFFCURVE",
"193 473 OFFCURVE",
"193 555 CURVE SMOOTH",
"193 650 OFFCURVE",
"287 711 OFFCURVE",
"397 711 CURVE SMOOTH",
"495 711 OFFCURVE",
"560 671 OFFCURVE",
"564 562 CURVE",
"630 562 LINE",
"630 711 OFFCURVE",
"542 773 OFFCURVE",
"409 773 CURVE SMOOTH",
"256 773 OFFCURVE",
"122 679 OFFCURVE",
"122 535 CURVE SMOOTH",
"122 420 OFFCURVE",
"230 395 OFFCURVE",
"335 372 CURVE SMOOTH",
"433 351 OFFCURVE",
"527 329 OFFCURVE",
"527 238 CURVE SMOOTH",
"527 125 OFFCURVE",
"432 52 OFFCURVE",
"305 52 CURVE SMOOTH",
"203 52 OFFCURVE",
"103 91 OFFCURVE",
"103 216 CURVE",
"33 216 LINE",
"33 55 OFFCURVE",
"145 -10 OFFCURVE",
"289 -10 CURVE SMOOTH"
);
}
);
width = 653;
}
);
leftKerningGroup = S;
note = S;
rightKerningGroup = S;
unicode = 0053;
},
{
color = 1;
glyphname = Germandbls;
lastChange = "2020-04-14 08:44:14 +0000";
layers = (
{
anchors = (
{
name = bottom;
position = "{280, 0}";
},
{
name = top;
position = "{414, 763}";
}
);
background = {
paths = (
{
closed = 0;
nodes = (
"400 433 LINE SMOOTH"
);
}
);
};
layerId = "2F4EEC1B-9E89-4E08-AD53-AB625B6E887D";
paths = (
{
closed = 1;
nodes = (
"100 0 LINE",
"179 452 LINE SMOOTH",
"196 548 OFFCURVE",
"224 615 OFFCURVE",
"260 652 CURVE SMOOTH",
"300 694 OFFCURVE",
"351 711 OFFCURVE",
"411 711 CURVE SMOOTH",
"489 711 OFFCURVE",
"523 694 OFFCURVE",
"563 655 CURVE",
"327 457 LINE",
"312 371 LINE",
"408 371 LINE SMOOTH",
"464 371 OFFCURVE",
"551 356 OFFCURVE",
"551 254 CURVE SMOOTH",
"551 125 OFFCURVE",
"460 62 OFFCURVE",
"327 62 CURVE SMOOTH",
"203 62 LINE",
"192 0 LINE",
"323 0 LINE SMOOTH",
"495 0 OFFCURVE",
"621 98 OFFCURVE",
"621 266 CURVE SMOOTH",
"621 381 OFFCURVE",
"534 433 OFFCURVE",
"428 433 CURVE SMOOTH",
"411 433 OFFCURVE",
"393 432 OFFCURVE",
"375 429 CURVE",
"622 635 LINE",
"631 688 LINE",
"571 751 OFFCURVE",
"508 773 OFFCURVE",
"422 773 CURVE SMOOTH",
"333 773 OFFCURVE",
"265 747 OFFCURVE",
"214 697 CURVE SMOOTH",
"164 646 OFFCURVE",
"131 571 OFFCURVE",
"110 452 CURVE SMOOTH",
"31 0 LINE"
);
}
);
width = 678;
},
{
anchors = (
{
name = bottom;
position = "{285, 0}";
},
{
name = top;
position = "{420, 763}";
}
);
layerId = "11907447-A26F-432E-A335-7727E0303767";
paths = (
{
closed = 1;
nodes = (
"122 0 LINE",
"212 507 LINE SMOOTH",
"226 584 OFFCURVE",
"252 627 OFFCURVE",
"288 654 CURVE SMOOTH",
"322 680 OFFCURVE",
"365 690 OFFCURVE",
"410 690 CURVE SMOOTH",
"472 690 OFFCURVE",
"527 673 OFFCURVE",
"561 636 CURVE",
"376 481 LINE",
"355 360 LINE",
"403 360 LINE SMOOTH",
"441 360 OFFCURVE",
"540 360 OFFCURVE",
"540 257 CURVE SMOOTH",
"540 132 OFFCURVE",
"456 83 OFFCURVE",
"334 83 CURVE SMOOTH",
"237 83 LINE",
"222 0 LINE",
"329 0 LINE SMOOTH",
"505 0 OFFCURVE",
"633 93 OFFCURVE",
"633 268 CURVE SMOOTH",
"633 357 OFFCURVE",
"586 413 OFFCURVE",
"495 430 CURVE SMOOTH",
"478 433 OFFCURVE",
"459 434 OFFCURVE",
"439 434 CURVE",
"635 600 LINE",
"648 675 LINE",
"592 736 OFFCURVE",
"533 773 OFFCURVE",
"425 773 CURVE SMOOTH",
"354 773 OFFCURVE",
"292 756 OFFCURVE",
"243 722 CURVE SMOOTH",
"180 679 OFFCURVE",
"138 611 OFFCURVE",
"120 507 CURVE SMOOTH",
"30 0 LINE"
);
}
);
width = 691;
},
{
anchors = (
{
name = bottom;
position = "{288, 0}";
},
{
name = top;
position = "{423, 763}";
}
);
layerId = "FD6EB2BB-8839-4CDB-86BF-4EEAE3F02079";
paths = (
{
closed = 1;
nodes = (
"189 0 LINE",
"268 450 LINE SMOOTH",
"281 525 OFFCURVE",
"299 560 OFFCURVE",
"322 583 CURVE SMOOTH",
"350 611 OFFCURVE",
"383 619 OFFCURVE",
"418 619 CURVE SMOOTH",
"459 619 OFFCURVE",
"488 602 OFFCURVE",
"509 583 CURVE",
"352 452 LINE",
"328 315 LINE",
"393 315 LINE SMOOTH",
"455 315 OFFCURVE",
"485 296 OFFCURVE",
"485 257 CURVE SMOOTH",
"485 197 OFFCURVE",
"444 160 OFFCURVE",
"372 160 CURVE SMOOTH",
"277 160 LINE",
"249 0 LINE",
"336 0 LINE SMOOTH",
"511 0 OFFCURVE",
"667 93 OFFCURVE",
"667 284 CURVE SMOOTH",
"667 346 OFFCURVE",
"642 389 OFFCURVE",
"594 413 CURVE SMOOTH",
"574 423 OFFCURVE",
"550 431 OFFCURVE",
"522 435 CURVE",
"643 535 LINE",
"670 686 LINE",
"623 738 OFFCURVE",
"548 779 OFFCURVE",
"446 779 CURVE SMOOTH",
"337 779 OFFCURVE",
"260 751 OFFCURVE",
"205 701 CURVE SMOOTH",
"144 646 OFFCURVE",
"110 567 OFFCURVE",
"89 450 CURVE SMOOTH",
"10 0 LINE"
);
}
);
width = 704;
}
);
leftMetricsKey = I;
rightMetricsKey = B;
unicode = 1E9E;
},
{
color = 1;
glyphname = T;
lastChange = "2020-04-14 08:30:42 +0000";
layers = (
{
anchors = (
{
name = bottom;
position = "{263, 0}";
},
{
name = center;
position = "{330, 382}";
},
{
name = top;
position = "{398, 763}";
}
);
background = {
anchors = (
{
name = bottom;
position = "{313, 0}";
},
{
name = center;
position = "{313, 382}";
},
{
name = top;
position = "{313, 763}";
}
);
paths = (
{
closed = 1;
nodes = (
"386 0 LINE SMOOTH",
"396 0 OFFCURVE",
"402 6 OFFCURVE",
"402 16 CURVE SMOOTH",
"402 587 LINE SMOOTH",
"402 597 OFFCURVE",
"408 603 OFFCURVE",
"418 603 CURVE SMOOTH",
"601 603 LINE SMOOTH",
"611 603 OFFCURVE",
"617 609 OFFCURVE",
"617 619 CURVE SMOOTH",
"617 747 LINE SMOOTH",
"617 757 OFFCURVE",
"611 763 OFFCURVE",
"601 763 CURVE SMOOTH",
"24 763 LINE SMOOTH",
"14 763 OFFCURVE",
"8 757 OFFCURVE",
"8 747 CURVE SMOOTH",
"8 619 LINE SMOOTH",
"8 609 OFFCURVE",
"14 603 OFFCURVE",
"24 603 CURVE SMOOTH",
"207 603 LINE SMOOTH",
"217 603 OFFCURVE",
"223 597 OFFCURVE",
"223 587 CURVE SMOOTH",
"223 16 LINE SMOOTH",
"223 6 OFFCURVE",
"229 0 OFFCURVE",
"239 0 CURVE SMOOTH"
);
}
);
};
layerId = "FD6EB2BB-8839-4CDB-86BF-4EEAE3F02079";
paths = (
{
closed = 1;
nodes = (
"352 0 LINE",
"458 603 LINE",
"673 603 LINE",
"702 763 LINE",
"93 763 LINE",
"64 603 LINE",
"279 603 LINE",
"173 0 LINE"
);
}
);
width = 625;
},
{
anchors = (
{
name = bottom;
position = "{270, 0}";
},
{
name = center;
position = "{338, 382}";
},
{
name = top;
position = "{405, 763}";
}
);
background = {
anchors = (
{
name = bottom;
position = "{319, 0}";
},
{
name = center;
position = "{319, 382}";
},
{
name = top;
position = "{319, 763}";
}
);
paths = (
{
closed = 1;
nodes = (
"348 0 LINE SMOOTH",
"358 0 OFFCURVE",
"364 6 OFFCURVE",
"364 16 CURVE SMOOTH",
"364 664 LINE SMOOTH",
"364 674 OFFCURVE",
"370 680 OFFCURVE",
"380 680 CURVE SMOOTH",
"607 680 LINE SMOOTH",
"617 680 OFFCURVE",
"623 686 OFFCURVE",
"623 696 CURVE SMOOTH",
"623 747 LINE SMOOTH",
"623 757 OFFCURVE",
"617 763 OFFCURVE",
"607 763 CURVE SMOOTH",
"30 763 LINE SMOOTH",
"20 763 OFFCURVE",
"14 757 OFFCURVE",
"14 747 CURVE SMOOTH",
"14 696 LINE SMOOTH",
"14 686 OFFCURVE",
"20 680 OFFCURVE",
"30 680 CURVE SMOOTH",
"256 680 LINE SMOOTH",
"266 680 OFFCURVE",
"272 674 OFFCURVE",
"272 664 CURVE SMOOTH",
"272 16 LINE SMOOTH",
"272 6 OFFCURVE",
"278 0 OFFCURVE",
"288 0 CURVE SMOOTH"
);
}
);
};
layerId = "11907447-A26F-432E-A335-7727E0303767";
paths = (
{
closed = 1;
nodes = (
"315 0 LINE",
"435 680 LINE",
"694 680 LINE",
"709 763 LINE",
"100 763 LINE",
"85 680 LINE",
"343 680 LINE",
"223 0 LINE"
);
}
);
width = 637;
},
{
anchors = (
{
name = bottom;
position = "{269, 0}";
},
{
name = center;
position = "{336, 382}";
},
{
name = top;
position = "{403, 763}";
}
);
background = {
anchors = (
{
name = bottom;
position = "{317, 0}";
},
{
name = center;
position = "{317, 382}";
},
{
name = top;
position = "{317, 763}";
}
);
paths = (
{
closed = 1;
nodes = (
"341 0 LINE SMOOTH",
"347 0 OFFCURVE",
"351 4 OFFCURVE",
"351 10 CURVE SMOOTH",
"351 691 LINE SMOOTH",
"351 697 OFFCURVE",
"355 701 OFFCURVE",
"361 701 CURVE SMOOTH",
"610 701 LINE SMOOTH",
"616 701 OFFCURVE",
"620 705 OFFCURVE",
"620 711 CURVE SMOOTH",
"620 753 LINE SMOOTH",
"620 759 OFFCURVE",
"616 763 OFFCURVE",
"610 763 CURVE SMOOTH",
"24 763 LINE SMOOTH",
"18 763 OFFCURVE",
"14 759 OFFCURVE",
"14 753 CURVE SMOOTH",
"14 711 LINE SMOOTH",
"14 705 OFFCURVE",
"18 701 OFFCURVE",
"24 701 CURVE SMOOTH",
"272 701 LINE SMOOTH",
"278 701 OFFCURVE",
"282 697 OFFCURVE",
"282 691 CURVE SMOOTH",
"282 10 LINE SMOOTH",
"282 4 OFFCURVE",
"286 0 OFFCURVE",
"292 0 CURVE SMOOTH"
);
}
);
};
layerId = "2F4EEC1B-9E89-4E08-AD53-AB625B6E887D";
paths = (
{
closed = 1;
nodes = (
"303 0 LINE",
"426 701 LINE",
"695 701 LINE",
"706 763 LINE",
"100 763 LINE",
"89 701 LINE",
"357 701 LINE",
"234 0 LINE"
);
}
);
width = 634;
}
);
leftKerningGroup = T;
note = T;
rightKerningGroup = T;
unicode = 0054;
},
{
color = 1;
glyphname = U;
lastChange = "2020-07-09 08:29:15 +0000";
layers = (
{
anchors = (
{
name = bottom;
position = "{327, 0}";
},
{
name = ogonek;
position = "{403, 0}";
},
{
name = top;
position = "{462, 763}";
},
{
name = topright;
position = "{836, 763}";
}
);
layerId = "FD6EB2BB-8839-4CDB-86BF-4EEAE3F02079";
paths = (
{
closed = 1;
nodes = (
"559 -17 OFFCURVE",
"670 110 OFFCURVE",
"701 285 CURVE SMOOTH",
"786 763 LINE",
"606 763 LINE",
"521 285 LINE SMOOTH",
"507 207 OFFCURVE",
"468 143 OFFCURVE",
"352 143 CURVE SMOOTH",
"256 143 OFFCURVE",
"228 186 OFFCURVE",
"228 244 CURVE SMOOTH",
"228 257 OFFCURVE",
"230 271 OFFCURVE",
"232 285 CURVE SMOOTH",
"317 763 LINE",
"137 763 LINE",
"52 285 LINE SMOOTH",
"47 259 OFFCURVE",
"45 234 OFFCURVE",
"45 210 CURVE SMOOTH",
"45 75 OFFCURVE",
"123 -17 OFFCURVE",
"324 -17 CURVE SMOOTH"
);
}
);
width = 754;
},
{
anchors = (
{
name = bottom;
position = "{306, 0}";
},
{
name = ogonek;
position = "{359, 0}";
},
{
name = top;
position = "{441, 763}";
},
{
name = topright;
position = "{790, 763}";
}
);
layerId = "11907447-A26F-432E-A335-7727E0303767";
paths = (
{
closed = 1;
nodes = (
"497 -10 OFFCURVE",
"606 95 OFFCURVE",
"636 264 CURVE SMOOTH",
"724 763 LINE",
"632 763 LINE",
"544 264 LINE SMOOTH",
"523 145 OFFCURVE",
"452 72 OFFCURVE",
"319 72 CURVE SMOOTH",
"207 72 OFFCURVE",
"157 124 OFFCURVE",
"157 212 CURVE SMOOTH",
"157 228 OFFCURVE",
"159 246 OFFCURVE",
"162 264 CURVE SMOOTH",
"250 763 LINE",
"158 763 LINE",
"70 264 LINE SMOOTH",
"66 239 OFFCURVE",
"63 216 OFFCURVE",
"63 194 CURVE SMOOTH",
"63 67 OFFCURVE",
"139 -10 OFFCURVE",
"304 -10 CURVE SMOOTH"
);
}
);
width = 711;
},
{
anchors = (
{
name = bottom;
position = "{297, 0}";
},
{
name = ogonek;
position = "{342, 0}";
},
{
name = top;
position = "{431, 763}";
},
{
name = topright;
position = "{773, 763}";
}
);
layerId = "2F4EEC1B-9E89-4E08-AD53-AB625B6E887D";
paths = (
{
closed = 1;
nodes = (
"481 -10 OFFCURVE",
"584 96 OFFCURVE",
"615 270 CURVE SMOOTH",
"702 763 LINE",
"633 763 LINE",
"546 270 LINE SMOOTH",
"522 134 OFFCURVE",
"448 52 OFFCURVE",
"305 52 CURVE SMOOTH",
"186 52 OFFCURVE",
"134 109 OFFCURVE",
"134 207 CURVE SMOOTH",
"134 226 OFFCURVE",
"136 247 OFFCURVE",
"140 270 CURVE SMOOTH",
"227 763 LINE",
"158 763 LINE",
"71 270 LINE SMOOTH",
"66 243 OFFCURVE",
"64 218 OFFCURVE",
"64 195 CURVE SMOOTH",
"64 66 OFFCURVE",
"136 -10 OFFCURVE",
"294 -10 CURVE SMOOTH"
);
}
);
width = 689;
}
);
leftKerningGroup = U;
note = U;
rightKerningGroup = J;
unicode = 0055;
},
{
color = 1;
glyphname = V;
lastChange = "2020-04-14 09:42:21 +0000";
layers = (
{
anchors = (
{
name = bottom;
position = "{304, 0}";
},
{
name = top;
position = "{439, 763}";
}
);
background = {
paths = (
{
closed = 1;
nodes = (
"401 0 LINE",
"797 763 LINE",
"597 763 LINE",
"372 297 LINE SMOOTH",
"346 244 OFFCURVE",
"341 212 OFFCURVE",
"337 183 CURVE",
"318 183 LINE",
"323 216 OFFCURVE",
"323 231 OFFCURVE",
"317 285 CURVE SMOOTH",
"261 763 LINE",
"81 763 LINE",
"207 0 LINE"
);
}
);
};
layerId = "FD6EB2BB-8839-4CDB-86BF-4EEAE3F02079";
paths = (
{
closed = 1;
nodes = (
"401 0 LINE",
"797 763 LINE",
"597 763 LINE",
"329 201 LINE",
"261 763 LINE",
"81 763 LINE",
"207 0 LINE"
);
}
);
width = 708;
},
{
anchors = (
{
name = bottom;
position = "{298, 0}";
},
{
name = top;
position = "{433, 763}";
}
);
background = {
paths = (
{
closed = 1;
nodes = (
"350 0 LINE",
"765 763 LINE",
"667 763 LINE",
"348 171 LINE SMOOTH",
"335 147 OFFCURVE",
"323 122 OFFCURVE",
"318 87 CURVE",
"300 87 LINE",
"304 118 OFFCURVE",
"301 140 OFFCURVE",
"296 165 CURVE SMOOTH",
"187 763 LINE",
"99 763 LINE",
"246 0 LINE"
);
}
);
};
layerId = "11907447-A26F-432E-A335-7727E0303767";
paths = (
{
closed = 1;
nodes = (
"350 0 LINE",
"766 763 LINE",
"671 763 LINE",
"313 94 LINE",
"191 763 LINE",
"100 763 LINE",
"246 0 LINE"
);
}
);
width = 694;
},
{
anchors = (
{
name = bottom;
position = "{296, 0}";
},
{
name = top;
position = "{430, 763}";
}
);
background = {
paths = (
{
closed = 1;
nodes = (
"336 0 LINE",
"759 763 LINE",
"684 763 LINE",
"351 158 LINE SMOOTH",
"329 118 OFFCURVE",
"318 96 OFFCURVE",
"312 63 CURVE",
"295 63 LINE",
"297 96 OFFCURVE",
"295 114 OFFCURVE",
"287 154 CURVE SMOOTH",
"170 763 LINE",
"103 763 LINE",
"256 0 LINE"
);
}
);
};
layerId = "2F4EEC1B-9E89-4E08-AD53-AB625B6E887D";
paths = (
{
closed = 1;
nodes = (
"336 0 LINE",
"758 763 LINE",
"685 763 LINE",
"306 69 LINE",
"171 763 LINE",
"102 763 LINE",
"256 0 LINE"
);
}
);
width = 688;
}
);
leftKerningGroup = V;
note = V;
rightKerningGroup = V;
unicode = 0056;
},
{
color = 1;
glyphname = W;
lastChange = "2020-04-14 09:34:25 +0000";
layers = (
{
anchors = (
{
name = bottom;
position = "{519, 0}";
},
{
name = top;
position = "{654, 763}";
}
);
layerId = "FD6EB2BB-8839-4CDB-86BF-4EEAE3F02079";
paths = (
{
closed = 1;
nodes = (
"413 0 LINE",
"628 616 LINE",
"625 0 LINE",
"895 0 LINE",
"1212 763 LINE",
"1019 763 LINE",
"770 127 LINE",
"772 763 LINE",
"526 763 LINE",
"303 128 LINE",
"279 763 LINE",
"96 763 LINE",
"143 0 LINE"
);
}
);
width = 1138;
},
{
anchors = (
{
name = bottom;
position = "{487, 0}";
},
{
name = top;
position = "{622, 763}";
}
);
layerId = "11907447-A26F-432E-A335-7727E0303767";
paths = (
{
closed = 1;
nodes = (
"301 0 LINE",
"596 613 LINE",
"675 0 LINE",
"779 0 LINE",
"1140 763 LINE",
"1037 763 LINE",
"737 131 LINE",
"660 763 LINE",
"572 763 LINE",
"273 132 LINE",
"195 763 LINE",
"106 763 LINE",
"197 0 LINE"
);
}
);
width = 1074;
},
{
anchors = (
{
name = bottom;
position = "{493, 0}";
},
{
name = top;
position = "{627, 763}";
}
);
layerId = "2F4EEC1B-9E89-4E08-AD53-AB625B6E887D";
paths = (
{
closed = 1;
nodes = (
"285 0 LINE",
"607 650 LINE",
"700 0 LINE",
"780 0 LINE",
"1145 763 LINE",
"1068 763 LINE",
"747 99 LINE",
"654 763 LINE",
"589 763 LINE",
"261 98 LINE",
"176 763 LINE",
"108 763 LINE",
"204 0 LINE"
);
}
);
width = 1081;
}
);
leftKerningGroup = W;
note = W;
rightKerningGroup = W;
unicode = 0057;
},
{
color = 1;
glyphname = X;
lastChange = "2020-04-14 09:35:57 +0000";
layers = (
{
layerId = "FD6EB2BB-8839-4CDB-86BF-4EEAE3F02079";
paths = (
{
closed = 1;
nodes = (
"181 0 LINE",
"383 245 LINE",
"498 0 LINE",
"695 0 LINE",
"515 379 LINE",
"832 763 LINE",
"604 763 LINE",
"397 500 LINE",
"285 763 LINE",
"87 763 LINE",
"268 379 LINE",
"-46 0 LINE"
);
}
);
width = 749;
},
{
layerId = "11907447-A26F-432E-A335-7727E0303767";
paths = (
{
closed = 1;
nodes = (
"83 0 LINE",
"356 314 LINE",
"517 0 LINE",
"619 0 LINE",
"423 384 LINE",
"750 763 LINE",
"633 763 LINE",
"365 448 LINE",
"209 763 LINE",
"106 763 LINE",
"299 384 LINE",
"-33 0 LINE"
);
}
);
width = 684;
},
{
anchors = (
{
name = bottom;
position = "{285, 0}";
},
{
name = top;
position = "{419, 763}";
}
);
layerId = "2F4EEC1B-9E89-4E08-AD53-AB625B6E887D";
paths = (
{
closed = 1;
nodes = (
"58 0 LINE",
"347 334 LINE",
"522 0 LINE",
"599 0 LINE",
"398 385 LINE",
"728 763 LINE",
"640 763 LINE",
"356 432 LINE",
"187 763 LINE",
"110 763 LINE",
"306 385 LINE",
"-29 0 LINE"
);
}
);
width = 667;
}
);
leftKerningGroup = X;
note = X;
rightKerningGroup = X;
unicode = 0058;
},
{
color = 1;
glyphname = Y;
lastChange = "2020-04-14 09:36:17 +0000";
layers = (
{
anchors = (
{
name = bottom;
position = "{307, 0}";
},
{
name = top;
position = "{442, 763}";
},
{
name = topleft;
position = "{109, 763}";
}
);
layerId = "FD6EB2BB-8839-4CDB-86BF-4EEAE3F02079";
paths = (
{
closed = 1;
nodes = (
"403 0 LINE",
"456 303 LINE",
"811 763 LINE",
"587 763 LINE",
"378 476 LINE",
"271 763 LINE",
"77 763 LINE",
"268 303 LINE",
"215 0 LINE"
);
}
);
width = 718;
},
{
anchors = (
{
name = bottom;
position = "{288, 0}";
},
{
name = top;
position = "{423, 763}";
},
{
name = topleft;
position = "{94, 763}";
}
);
layerId = "11907447-A26F-432E-A335-7727E0303767";
paths = (
{
closed = 1;
nodes = (
"337 0 LINE",
"389 292 LINE",
"755 763 LINE",
"643 763 LINE",
"348 383 LINE",
"190 763 LINE",
"90 763 LINE",
"293 292 LINE",
"241 0 LINE"
);
}
);
width = 674;
},
{
anchors = (
{
name = bottom;
position = "{283, 0}";
},
{
name = top;
position = "{417, 763}";
},
{
name = topleft;
position = "{106, 763}";
}
);
guideLines = (
{
position = "{140, 442}";
}
);
layerId = "2F4EEC1B-9E89-4E08-AD53-AB625B6E887D";
paths = (
{
closed = 1;
nodes = (
"319 0 LINE",
"370 292 LINE",
"740 763 LINE",
"655 763 LINE",
"341 359 LINE",
"169 763 LINE",
"94 763 LINE",
"298 292 LINE",
"247 0 LINE"
);
}
);
width = 662;
}
);
leftKerningGroup = Y;
note = Y;
rightKerningGroup = Y;
unicode = 0059;
},
{
color = 1;
glyphname = Z;
lastChange = "2020-04-14 09:38:19 +0000";
layers = (
{
anchors = (
{
name = bottom;
position = "{264, 0}";
},
{
name = center;
position = "{331, 382}";
},
{
name = top;
position = "{399, 763}";
}
);
layerId = "FD6EB2BB-8839-4CDB-86BF-4EEAE3F02079";
paths = (
{
closed = 1;
nodes = (
"543 0 LINE",
"571 160 LINE",
"251 160 LINE",
"653 636 LINE",
"676 763 LINE",
"132 763 LINE",
"103 603 LINE",
"406 603 LINE",
"-3 121 LINE",
"-24 0 LINE"
);
}
);
width = 624;
},
{
anchors = (
{
name = bottom;
position = "{269, 0}";
},
{
name = center;
position = "{337, 382}";
},
{
name = top;
position = "{404, 763}";
}
);
layerId = "11907447-A26F-432E-A335-7727E0303767";
paths = (
{
closed = 1;
nodes = (
"552 0 LINE",
"567 83 LINE",
"123 83 LINE",
"676 694 LINE",
"688 763 LINE",
"139 763 LINE",
"124 680 LINE",
"549 680 LINE",
"-8 67 LINE",
"-20 0 LINE"
);
}
);
width = 634;
},
{
anchors = (
{
name = bottom;
position = "{272, 0}";
},
{
name = center;
position = "{339, 382}";
},
{
name = top;
position = "{406, 763}";
}
);
layerId = "2F4EEC1B-9E89-4E08-AD53-AB625B6E887D";
paths = (
{
closed = 1;
nodes = (
"556 0 LINE",
"567 62 LINE",
"77 62 LINE",
"682 708 LINE",
"692 763 LINE",
"139 763 LINE",
"128 701 LINE",
"596 701 LINE",
"-10 54 LINE",
"-19 0 LINE"
);
}
);
width = 638;
}
);
leftKerningGroup = Z;
note = Z;
rightKerningGroup = Z;
unicode = 005A;
},
{
color = 1;
glyphname = a;
lastChange = "2020-04-14 08:52:15 +0000";
layers = (
{
anchors = (
{
name = bottom;
position = "{257, 0}";
},
{
name = ogonek;
position = "{502, 0}";
},
{
name = top;
position = "{357, 567}";
}
);
guideLines = (
{
angle = 270;
position = "{638, 763}";
},
{
position = "{429, 367}";
}
);
layerId = "FD6EB2BB-8839-4CDB-86BF-4EEAE3F02079";
paths = (
{
closed = 1;
nodes = (
"213 -12 OFFCURVE",
"260 -5 OFFCURVE",
"297 18 CURVE SMOOTH",
"317 30 OFFCURVE",
"334 47 OFFCURVE",
"346 69 CURVE",
"334 0 LINE",
"502 0 LINE",
"549 269 LINE SMOOTH",
"558 318 OFFCURVE",
"566 364 OFFCURVE",
"566 405 CURVE SMOOTH",
"566 451 OFFCURVE",
"556 491 OFFCURVE",
"524 523 CURVE SMOOTH",
"486 562 OFFCURVE",
"424 579 OFFCURVE",
"358 579 CURVE SMOOTH",
"244 579 OFFCURVE",
"117 520 OFFCURVE",
"71 378 CURVE",
"238 378 LINE",
"254 426 OFFCURVE",
"296 453 OFFCURVE",
"335 453 CURVE SMOOTH",
"360 453 OFFCURVE",
"378 447 OFFCURVE",
"388 433 CURVE SMOOTH",
"397 421 OFFCURVE",
"401 405 OFFCURVE",
"401 385 CURVE SMOOTH",
"401 379 OFFCURVE",
"401 373 OFFCURVE",
"400 367 CURVE",
"248 341 LINE SMOOTH",
"110 317 OFFCURVE",
"8 262 OFFCURVE",
"8 123 CURVE SMOOTH",
"8 33 OFFCURVE",
"76 -12 OFFCURVE",
"167 -12 CURVE SMOOTH"
);
},
{
closed = 1;
nodes = (
"205 115 OFFCURVE",
"179 127 OFFCURVE",
"179 156 CURVE SMOOTH",
"179 201 OFFCURVE",
"220 218 OFFCURVE",
"275 228 CURVE SMOOTH",
"382 248 LINE",
"369 186 OFFCURVE",
"351 150 OFFCURVE",
"302 129 CURVE SMOOTH",
"280 120 OFFCURVE",
"257 115 OFFCURVE",
"238 115 CURVE SMOOTH"
);
}
);
width = 601;
},
{
anchors = (
{
name = bottom;
position = "{246, 0}";
},
{
name = ogonek;
position = "{462, 0}";
},
{
name = top;
position = "{344, 553}";
}
);
guideLines = (
{
angle = 270;
position = "{465, 351}";
}
);
layerId = "11907447-A26F-432E-A335-7727E0303767";
paths = (
{
closed = 1;
nodes = (
"229 -10 OFFCURVE",
"273 -1 OFFCURVE",
"314 22 CURVE SMOOTH",
"342 37 OFFCURVE",
"367 58 OFFCURVE",
"393 87 CURVE",
"377 0 LINE",
"462 0 LINE",
"520 326 LINE SMOOTH",
"523 343 OFFCURVE",
"527 369 OFFCURVE",
"527 398 CURVE SMOOTH",
"527 434 OFFCURVE",
"520 475 OFFCURVE",
"493 506 CURVE SMOOTH",
"461 544 OFFCURVE",
"406 563 OFFCURVE",
"342 563 CURVE SMOOTH",
"236 563 OFFCURVE",
"128 502 OFFCURVE",
"88 387 CURVE",
"173 387 LINE",
"197 449 OFFCURVE",
"259 488 OFFCURVE",
"327 488 CURVE SMOOTH",
"370 488 OFFCURVE",
"403 474 OFFCURVE",
"423 450 CURVE SMOOTH",
"436 434 OFFCURVE",
"443 413 OFFCURVE",
"443 387 CURVE SMOOTH",
"443 376 OFFCURVE",
"442 364 OFFCURVE",
"439 351 CURVE",
"235 313 LINE SMOOTH",
"112 290 OFFCURVE",
"22 229 OFFCURVE",
"22 115 CURVE SMOOTH",
"22 37 OFFCURVE",
"79 -10 OFFCURVE",
"177 -10 CURVE SMOOTH"
);
},
{
closed = 1;
nodes = (
"144 65 OFFCURVE",
"110 91 OFFCURVE",
"110 134 CURVE SMOOTH",
"110 200 OFFCURVE",
"165 231 OFFCURVE",
"242 246 CURVE SMOOTH",
"428 282 LINE",
"412 190 OFFCURVE",
"378 125 OFFCURVE",
"292 84 CURVE SMOOTH",
"265 71 OFFCURVE",
"235 65 OFFCURVE",
"201 65 CURVE SMOOTH"
);
}
);
width = 576;
},
{
anchors = (
{
name = bottom;
position = "{240, 0}";
},
{
name = ogonek;
position = "{448, 0}";
},
{
name = top;
position = "{336, 549}";
}
);
guideLines = (
{
angle = 270;
position = "{469, 347}";
}
);
layerId = "2F4EEC1B-9E89-4E08-AD53-AB625B6E887D";
paths = (
{
closed = 1;
nodes = (
"229 -10 OFFCURVE",
"272 2 OFFCURVE",
"310 23 CURVE SMOOTH",
"346 42 OFFCURVE",
"377 69 OFFCURVE",
"401 103 CURVE",
"383 0 LINE",
"448 0 LINE",
"505 328 LINE SMOOTH",
"509 352 OFFCURVE",
"512 374 OFFCURVE",
"512 394 CURVE SMOOTH",
"512 438 OFFCURVE",
"501 475 OFFCURVE",
"480 502 CURVE SMOOTH",
"452 539 OFFCURVE",
"403 559 OFFCURVE",
"333 559 CURVE SMOOTH",
"227 559 OFFCURVE",
"124 498 OFFCURVE",
"88 389 CURVE",
"153 389 LINE",
"178 457 OFFCURVE",
"248 501 OFFCURVE",
"322 501 CURVE SMOOTH",
"373 501 OFFCURVE",
"408 488 OFFCURVE",
"427 461 CURVE SMOOTH",
"441 442 OFFCURVE",
"447 416 OFFCURVE",
"447 386 CURVE SMOOTH",
"447 374 OFFCURVE",
"446 361 OFFCURVE",
"444 347 CURVE",
"241 308 LINE SMOOTH",
"123 285 OFFCURVE",
"22 235 OFFCURVE",
"22 117 CURVE SMOOTH",
"22 34 OFFCURVE",
"88 -10 OFFCURVE",
"185 -10 CURVE SMOOTH"
);
},
{
closed = 1;
nodes = (
"131 48 OFFCURVE",
"88 76 OFFCURVE",
"88 128 CURVE SMOOTH",
"88 202 OFFCURVE",
"150 234 OFFCURVE",
"232 251 CURVE SMOOTH",
"434 292 LINE",
"416 191 OFFCURVE",
"376 109 OFFCURVE",
"288 70 CURVE SMOOTH",
"255 55 OFFCURVE",
"223 48 OFFCURVE",
"190 48 CURVE SMOOTH"
);
}
);
width = 561;
}
);
leftKerningGroup = a;
note = a;
rightKerningGroup = a;
unicode = 0061;
},
{
glyphname = ae;
lastChange = "2020-07-09 08:28:17 +0000";
layers = (
{
anchors = (
{
name = bottom;
position = "{453, 0}";
},
{
name = top;
position = "{549, 549}";
}
);
layerId = "2F4EEC1B-9E89-4E08-AD53-AB625B6E887D";
paths = (
{
closed = 1;
nodes = (
"777 -10 OFFCURVE",
"875 71 OFFCURVE",
"925 173 CURVE",
"856 173 LINE",
"819 104 OFFCURVE",
"746 48 OFFCURVE",
"655 48 CURVE SMOOTH",
"551 48 OFFCURVE",
"493 128 OFFCURVE",
"493 233 CURVE SMOOTH",
"493 243 OFFCURVE",
"494 253 OFFCURVE",
"495 263 CURVE",
"953 263 LINE",
"957 284 OFFCURVE",
"960 313 OFFCURVE",
"960 332 CURVE SMOOTH",
"960 466 OFFCURVE",
"883 559 OFFCURVE",
"744 559 CURVE SMOOTH",
"566 559 OFFCURVE",
"428 393 OFFCURVE",
"428 214 CURVE SMOOTH",
"428 83 OFFCURVE",
"512 -10 OFFCURVE",
"645 -10 CURVE SMOOTH"
);
},
{
closed = 1;
nodes = (
"131 48 OFFCURVE",
"88 76 OFFCURVE",
"88 128 CURVE SMOOTH",
"88 202 OFFCURVE",
"150 234 OFFCURVE",
"232 251 CURVE SMOOTH",
"434 292 LINE",
"416 191 OFFCURVE",
"376 109 OFFCURVE",
"288 70 CURVE SMOOTH",
"255 55 OFFCURVE",
"223 48 OFFCURVE",
"190 48 CURVE SMOOTH"
);
},
{
closed = 1;
nodes = (
"265 -10 OFFCURVE",
"365 20 OFFCURVE",
"427 129 CURVE",
"471 129 LINE",
"505 328 LINE SMOOTH",
"509 352 OFFCURVE",
"512 374 OFFCURVE",
"512 394 CURVE SMOOTH",
"512 438 OFFCURVE",
"501 475 OFFCURVE",
"480 502 CURVE SMOOTH",
"452 539 OFFCURVE",
"403 559 OFFCURVE",
"333 559 CURVE SMOOTH",
"227 559 OFFCURVE",
"124 498 OFFCURVE",
"88 389 CURVE",
"153 389 LINE",
"178 457 OFFCURVE",
"248 501 OFFCURVE",
"322 501 CURVE SMOOTH",
"373 501 OFFCURVE",
"408 488 OFFCURVE",
"427 461 CURVE SMOOTH",
"441 442 OFFCURVE",
"447 416 OFFCURVE",
"447 386 CURVE SMOOTH",
"447 374 OFFCURVE",
"446 361 OFFCURVE",
"444 347 CURVE",
"241 308 LINE SMOOTH",
"123 285 OFFCURVE",
"22 235 OFFCURVE",
"22 117 CURVE SMOOTH",
"22 34 OFFCURVE",
"88 -10 OFFCURVE",
"185 -10 CURVE SMOOTH"
);
},
{
closed = 1;
nodes = (
"515 338 OFFCURVE",
"527 366 OFFCURVE",
"541 388 CURVE SMOOTH",
"585 459 OFFCURVE",
"655 501 OFFCURVE",
"735 501 CURVE SMOOTH",
"832 501 OFFCURVE",
"899 436 OFFCURVE",
"899 332 CURVE SMOOTH",
"899 327 OFFCURVE",
"899 321 OFFCURVE",
"899 316 CURVE",
"508 316 LINE"
);
}
);
width = 1002;
},
{
anchors = (
{
name = bottom;
position = "{456, 0}";
},
{
name = top;
position = "{554, 553}";
}
);
layerId = "11907447-A26F-432E-A335-7727E0303767";
paths = (
{
closed = 1;
nodes = (
"783 -10 OFFCURVE",
"882 74 OFFCURVE",
"935 178 CURVE",
"844 178 LINE",
"809 117 OFFCURVE",
"743 65 OFFCURVE",
"659 65 CURVE SMOOTH",
"566 65 OFFCURVE",
"508 142 OFFCURVE",
"508 235 CURVE SMOOTH",
"508 244 OFFCURVE",
"508 252 OFFCURVE",
"509 260 CURVE",
"959 260 LINE",
"966 301 OFFCURVE",
"969 324 OFFCURVE",
"970 349 CURVE SMOOTH",
"970 489 OFFCURVE",
"869 563 OFFCURVE",
"746 563 CURVE SMOOTH",
"563 563 OFFCURVE",
"423 398 OFFCURVE",
"423 215 CURVE SMOOTH",
"423 83 OFFCURVE",
"507 -10 OFFCURVE",
"646 -10 CURVE SMOOTH"
);
},
{
closed = 1;
nodes = (
"144 65 OFFCURVE",
"110 91 OFFCURVE",
"110 134 CURVE SMOOTH",
"110 200 OFFCURVE",
"165 231 OFFCURVE",
"242 246 CURVE SMOOTH",
"428 282 LINE",
"412 190 OFFCURVE",
"378 125 OFFCURVE",
"292 84 CURVE SMOOTH",
"265 71 OFFCURVE",
"235 65 OFFCURVE",
"201 65 CURVE SMOOTH"
);
},
{
closed = 1;
nodes = (
"268 -10 OFFCURVE",
"360 17 OFFCURVE",
"430 120 CURVE",
"482 120 LINE",
"520 326 LINE SMOOTH",
"523 343 OFFCURVE",
"527 369 OFFCURVE",
"527 398 CURVE SMOOTH",
"527 434 OFFCURVE",
"520 475 OFFCURVE",
"493 506 CURVE SMOOTH",
"461 544 OFFCURVE",
"406 563 OFFCURVE",
"342 563 CURVE SMOOTH",
"236 563 OFFCURVE",
"128 502 OFFCURVE",
"88 387 CURVE",
"173 387 LINE",
"197 449 OFFCURVE",
"259 488 OFFCURVE",
"327 488 CURVE SMOOTH",
"370 488 OFFCURVE",
"403 474 OFFCURVE",
"423 450 CURVE SMOOTH",
"436 434 OFFCURVE",
"443 413 OFFCURVE",
"443 387 CURVE SMOOTH",
"443 376 OFFCURVE",
"442 364 OFFCURVE",
"439 351 CURVE",
"235 313 LINE SMOOTH",
"112 290 OFFCURVE",
"22 229 OFFCURVE",
"22 115 CURVE SMOOTH",
"22 37 OFFCURVE",
"79 -10 OFFCURVE",
"177 -10 CURVE SMOOTH"
);
},
{
closed = 1;
nodes = (
"536 352 OFFCURVE",
"545 372 OFFCURVE",
"556 389 CURVE SMOOTH",
"597 452 OFFCURVE",
"660 488 OFFCURVE",
"734 488 CURVE SMOOTH",
"817 488 OFFCURVE",
"882 438 OFFCURVE",
"882 358 CURVE SMOOTH",
"882 350 OFFCURVE",
"882 342 OFFCURVE",
"881 335 CURVE",
"530 335 LINE"
);
}
);
width = 1009;
},
{
anchors = (
{
name = bottom;
position = "{453, 0}";
},
{
name = top;
position = "{553, 567}";
}
);
layerId = "FD6EB2BB-8839-4CDB-86BF-4EEAE3F02079";
paths = (
{
closed = 1;
nodes = (
"793 -12 OFFCURVE",
"897 84 OFFCURVE",
"949 196 CURVE",
"780 196 LINE",
"759 161 OFFCURVE",
"718 132 OFFCURVE",
"667 132 CURVE SMOOTH",
"596 132 OFFCURVE",
"559 171 OFFCURVE",
"559 242 CURVE SMOOTH",
"559 244 OFFCURVE",
"559 246 OFFCURVE",
"559 248 CURVE",
"967 248 LINE",
"975 295 OFFCURVE",
"979 321 OFFCURVE",
"979 350 CURVE SMOOTH",
"979 515 OFFCURVE",
"863 579 OFFCURVE",
"732 579 CURVE SMOOTH",
"535 579 OFFCURVE",
"383 416 OFFCURVE",
"383 221 CURVE SMOOTH",
"383 83 OFFCURVE",
"475 -12 OFFCURVE",
"633 -12 CURVE SMOOTH"
);
},
{
closed = 1;
nodes = (
"205 115 OFFCURVE",
"179 127 OFFCURVE",
"179 156 CURVE SMOOTH",
"179 201 OFFCURVE",
"220 218 OFFCURVE",
"275 228 CURVE SMOOTH",
"382 248 LINE",
"369 186 OFFCURVE",
"351 150 OFFCURVE",
"302 129 CURVE SMOOTH",
"280 120 OFFCURVE",
"257 115 OFFCURVE",
"238 115 CURVE SMOOTH"
);
},
{
closed = 1;
nodes = (
"260 -12 OFFCURVE",
"369 0 OFFCURVE",
"443 109 CURVE",
"521 109 LINE",
"549 269 LINE SMOOTH",
"558 318 OFFCURVE",
"566 364 OFFCURVE",
"566 405 CURVE SMOOTH",
"566 451 OFFCURVE",
"556 491 OFFCURVE",
"524 523 CURVE SMOOTH",
"486 562 OFFCURVE",
"424 579 OFFCURVE",
"358 579 CURVE SMOOTH",
"244 579 OFFCURVE",
"117 520 OFFCURVE",
"71 378 CURVE",
"238 378 LINE",
"254 426 OFFCURVE",
"296 453 OFFCURVE",
"335 453 CURVE SMOOTH",
"360 453 OFFCURVE",
"378 447 OFFCURVE",
"388 433 CURVE SMOOTH",
"397 421 OFFCURVE",
"401 405 OFFCURVE",
"401 385 CURVE SMOOTH",
"401 379 OFFCURVE",
"401 373 OFFCURVE",
"400 367 CURVE",
"248 341 LINE SMOOTH",
"110 317 OFFCURVE",
"8 262 OFFCURVE",
"8 123 CURVE SMOOTH",
"8 33 OFFCURVE",
"76 -12 OFFCURVE",
"187 -12 CURVE SMOOTH"
);
},
{
closed = 1;
nodes = (
"589 380 OFFCURVE",
"597 399 OFFCURVE",
"620 418 CURVE SMOOTH",
"648 442 OFFCURVE",
"682 451 OFFCURVE",
"716 451 CURVE SMOOTH",
"750 451 OFFCURVE",
"780 442 OFFCURVE",
"800 418 CURVE SMOOTH",
"815 400 OFFCURVE",
"817 380 OFFCURVE",
"818 367 CURVE",
"585 367 LINE"
);
}
);
width = 1005;
}
);
leftKerningGroup = a;
leftMetricsKey = a;
rightKerningGroup = e;
rightMetricsKey = e;
unicode = 00E6;
},
{
color = 1;
glyphname = b;
lastChange = "2020-04-14 08:52:43 +0000";
layers = (
{
anchors = (
{
name = bottom;
position = "{262, 0}";
},
{
name = top;
position = "{397, 763}";
}
);
guideLines = (
{
angle = 270;
position = "{47, 0}";
}
);
layerId = "FD6EB2BB-8839-4CDB-86BF-4EEAE3F02079";
paths = (
{
closed = 1;
nodes = (
"494 -12 OFFCURVE",
"622 169 OFFCURVE",
"622 355 CURVE SMOOTH",
"622 489 OFFCURVE",
"544 579 OFFCURVE",
"420 579 CURVE SMOOTH",
"360 579 OFFCURVE",
"310 563 OFFCURVE",
"262 506 CURVE",
"308 763 LINE",
"140 763 LINE",
"5 0 LINE",
"173 0 LINE",
"184 61 LINE",
"212 4 OFFCURVE",
"256 -12 OFFCURVE",
"316 -12 CURVE SMOOTH"
);
},
{
closed = 1;
nodes = (
"231 131 OFFCURVE",
"193 175 OFFCURVE",
"193 245 CURVE SMOOTH",
"193 339 OFFCURVE",
"253 436 OFFCURVE",
"348 436 CURVE SMOOTH",
"412 436 OFFCURVE",
"449 391 OFFCURVE",
"449 323 CURVE SMOOTH",
"449 229 OFFCURVE",
"389 131 OFFCURVE",
"294 131 CURVE SMOOTH"
);
}
);
width = 649;
},
{
anchors = (
{
name = bottom;
position = "{257, 0}";
},
{
name = top;
position = "{403, 763}";
}
);
guideLines = (
{
position = "{-38, 0}";
}
);
layerId = "11907447-A26F-432E-A335-7727E0303767";
paths = (
{
closed = 1;
nodes = (
"468 -10 OFFCURVE",
"590 161 OFFCURVE",
"590 346 CURVE SMOOTH",
"590 477 OFFCURVE",
"516 563 OFFCURVE",
"389 563 CURVE SMOOTH",
"315 563 OFFCURVE",
"261 541 OFFCURVE",
"191 467 CURVE",
"243 763 LINE",
"158 763 LINE",
"23 0 LINE",
"108 0 LINE",
"123 86 LINE",
"167 14 OFFCURVE",
"211 -10 OFFCURVE",
"287 -10 CURVE SMOOTH"
);
},
{
closed = 1;
nodes = (
"205 65 OFFCURVE",
"149 131 OFFCURVE",
"149 226 CURVE SMOOTH",
"149 355 OFFCURVE",
"239 488 OFFCURVE",
"367 488 CURVE SMOOTH",
"455 488 OFFCURVE",
"504 423 OFFCURVE",
"504 329 CURVE SMOOTH",
"504 200 OFFCURVE",
"420 65 OFFCURVE",
"293 65 CURVE SMOOTH"
);
}
);
width = 634;
},
{
anchors = (
{
name = bottom;
position = "{254, 0}";
},
{
name = top;
position = "{388, 763}";
}
);
layerId = "2F4EEC1B-9E89-4E08-AD53-AB625B6E887D";
paths = (
{
closed = 1;
nodes = (
"456 -10 OFFCURVE",
"579 162 OFFCURVE",
"579 342 CURVE SMOOTH",
"579 472 OFFCURVE",
"506 559 OFFCURVE",
"383 559 CURVE SMOOTH",
"304 559 OFFCURVE",
"229 519 OFFCURVE",
"167 447 CURVE",
"223 763 LINE",
"158 763 LINE",
"24 0 LINE",
"89 0 LINE",
"107 102 LINE",
"142 32 OFFCURVE",
"202 -10 OFFCURVE",
"283 -10 CURVE SMOOTH"
);
},
{
closed = 1;
nodes = (
"191 48 OFFCURVE",
"130 120 OFFCURVE",
"130 223 CURVE SMOOTH",
"130 364 OFFCURVE",
"233 501 OFFCURVE",
"367 501 CURVE SMOOTH",
"462 501 OFFCURVE",
"513 431 OFFCURVE",
"513 332 CURVE SMOOTH",
"513 192 OFFCURVE",
"423 48 OFFCURVE",
"287 48 CURVE SMOOTH"
);
}
);
width = 623;
}
);
leftKerningGroup = b;
note = b;
rightKerningGroup = b;
unicode = 0062;
},
{
color = 1;
glyphname = c;
lastChange = "2020-04-14 08:52:56 +0000";
layers = (
{
anchors = (
{
name = bottom;
position = "{267, 0}";
},
{
name = top;
position = "{367, 567}";
}
);
layerId = "FD6EB2BB-8839-4CDB-86BF-4EEAE3F02079";
paths = (
{
closed = 1;
nodes = (
"417 -12 OFFCURVE",
"539 65 OFFCURVE",
"591 196 CURVE",
"408 196 LINE",
"388 149 OFFCURVE",
"356 122 OFFCURVE",
"299 122 CURVE SMOOTH",
"237 122 OFFCURVE",
"201 164 OFFCURVE",
"201 237 CURVE SMOOTH",
"201 339 OFFCURVE",
"254 446 OFFCURVE",
"356 446 CURVE SMOOTH",
"406 446 OFFCURVE",
"431 424 OFFCURVE",
"438 378 CURVE",
"622 378 LINE",
"614 501 OFFCURVE",
"522 579 OFFCURVE",
"379 579 CURVE SMOOTH",
"175 579 OFFCURVE",
"27 422 OFFCURVE",
"27 221 CURVE SMOOTH",
"27 78 OFFCURVE",
"120 -12 OFFCURVE",
"275 -12 CURVE SMOOTH"
);
}
);
width = 633;
},
{
anchors = (
{
name = bottom;
position = "{253, 0}";
},
{
name = top;
position = "{351, 553}";
}
);
layerId = "11907447-A26F-432E-A335-7727E0303767";
paths = (
{
closed = 1;
nodes = (
"389 -10 OFFCURVE",
"499 60 OFFCURVE",
"544 178 CURVE",
"453 178 LINE",
"423 110 OFFCURVE",
"356 65 OFFCURVE",
"279 65 CURVE SMOOTH",
"188 65 OFFCURVE",
"129 131 OFFCURVE",
"129 231 CURVE SMOOTH",
"129 363 OFFCURVE",
"226 488 OFFCURVE",
"353 488 CURVE SMOOTH",
"424 488 OFFCURVE",
"475 449 OFFCURVE",
"485 387 CURVE",
"576 387 LINE",
"570 494 OFFCURVE",
"491 563 OFFCURVE",
"367 563 CURVE SMOOTH",
"185 563 OFFCURVE",
"43 403 OFFCURVE",
"43 217 CURVE SMOOTH",
"43 82 OFFCURVE",
"128 -10 OFFCURVE",
"265 -10 CURVE SMOOTH"
);
}
);
width = 602;
},
{
anchors = (
{
name = bottom;
position = "{266, 0}";
},
{
name = top;
position = "{362, 549}";
}
);
layerId = "2F4EEC1B-9E89-4E08-AD53-AB625B6E887D";
paths = (
{
closed = 1;
nodes = (
"381 -10 OFFCURVE",
"487 61 OFFCURVE",
"530 173 CURVE",
"459 173 LINE",
"430 99 OFFCURVE",
"356 48 OFFCURVE",
"270 48 CURVE SMOOTH",
"171 48 OFFCURVE",
"108 119 OFFCURVE",
"108 226 CURVE SMOOTH",
"108 368 OFFCURVE",
"213 501 OFFCURVE",
"350 501 CURVE SMOOTH",
"430 501 OFFCURVE",
"486 457 OFFCURVE",
"494 389 CURVE",
"564 389 LINE",
"557 492 OFFCURVE",
"479 559 OFFCURVE",
"360 559 CURVE SMOOTH",
"183 559 OFFCURVE",
"43 397 OFFCURVE",
"43 216 CURVE SMOOTH",
"43 82 OFFCURVE",
"127 -10 OFFCURVE",
"260 -10 CURVE SMOOTH"
);
}
);
width = 591;
}
);
leftKerningGroup = c;
note = c;
rightKerningGroup = c;
unicode = 0063;
},
{
color = 1;
glyphname = d;
lastChange = "2020-04-14 08:53:09 +0000";
layers = (
{
anchors = (
{
name = bottom;
position = "{288, 0}";
},
{
name = center;
position = "{511, 671}";
},
{
name = top;
position = "{423, 763}";
},
{
name = topright;
position = "{694, 567}";
}
);
guideLines = (
{
angle = 270;
position = "{302, 0}";
}
);
layerId = "FD6EB2BB-8839-4CDB-86BF-4EEAE3F02079";
paths = (
{
closed = 1;
nodes = (
"289 -12 OFFCURVE",
"339 4 OFFCURVE",
"387 61 CURVE",
"376 0 LINE",
"544 0 LINE",
"679 763 LINE",
"511 763 LINE",
"465 506 LINE",
"437 563 OFFCURVE",
"393 579 OFFCURVE",
"333 579 CURVE SMOOTH",
"155 579 OFFCURVE",
"27 400 OFFCURVE",
"27 213 CURVE SMOOTH",
"27 78 OFFCURVE",
"105 -12 OFFCURVE",
"229 -12 CURVE SMOOTH"
);
},
{
closed = 1;
nodes = (
"237 131 OFFCURVE",
"200 176 OFFCURVE",
"200 245 CURVE SMOOTH",
"200 339 OFFCURVE",
"261 436 OFFCURVE",
"355 436 CURVE SMOOTH",
"418 436 OFFCURVE",
"456 392 OFFCURVE",
"456 323 CURVE SMOOTH",
"456 229 OFFCURVE",
"396 131 OFFCURVE",
"301 131 CURVE SMOOTH"
);
}
);
width = 649;
},
{
anchors = (
{
name = bottom;
position = "{279, 0}";
},
{
name = center;
position = "{513, 671}";
},
{
name = top;
position = "{414, 763}";
},
{
name = topright;
position = "{673, 553}";
}
);
layerId = "11907447-A26F-432E-A335-7727E0303767";
paths = (
{
closed = 1;
nodes = (
"321 -10 OFFCURVE",
"375 14 OFFCURVE",
"443 86 CURVE",
"428 0 LINE",
"513 0 LINE",
"648 763 LINE",
"563 763 LINE",
"511 467 LINE",
"467 541 OFFCURVE",
"421 563 OFFCURVE",
"347 563 CURVE SMOOTH",
"166 563 OFFCURVE",
"44 392 OFFCURVE",
"44 206 CURVE SMOOTH",
"44 76 OFFCURVE",
"118 -10 OFFCURVE",
"245 -10 CURVE SMOOTH"
);
},
{
closed = 1;
nodes = (
"179 65 OFFCURVE",
"130 130 OFFCURVE",
"130 223 CURVE SMOOTH",
"130 353 OFFCURVE",
"214 488 OFFCURVE",
"341 488 CURVE SMOOTH",
"429 488 OFFCURVE",
"485 422 OFFCURVE",
"485 326 CURVE SMOOTH",
"485 194 OFFCURVE",
"392 65 OFFCURVE",
"267 65 CURVE SMOOTH"
);
}
);
width = 634;
},
{
anchors = (
{
name = bottom;
position = "{275, 0}";
},
{
name = center;
position = "{513, 671}";
},
{
name = top;
position = "{409, 763}";
},
{
name = topright;
position = "{663, 549}";
}
);
layerId = "2F4EEC1B-9E89-4E08-AD53-AB625B6E887D";
paths = (
{
closed = 1;
nodes = (
"321 -10 OFFCURVE",
"395 32 OFFCURVE",
"456 102 CURVE",
"438 0 LINE",
"503 0 LINE",
"637 763 LINE",
"572 763 LINE",
"516 447 LINE",
"480 519 OFFCURVE",
"420 559 OFFCURVE",
"340 559 CURVE SMOOTH",
"167 559 OFFCURVE",
"44 388 OFFCURVE",
"44 207 CURVE SMOOTH",
"44 77 OFFCURVE",
"117 -10 OFFCURVE",
"240 -10 CURVE SMOOTH"
);
},
{
closed = 1;
nodes = (
"161 48 OFFCURVE",
"110 118 OFFCURVE",
"110 217 CURVE SMOOTH",
"110 356 OFFCURVE",
"199 501 OFFCURVE",
"336 501 CURVE SMOOTH",
"432 501 OFFCURVE",
"493 429 OFFCURVE",
"493 325 CURVE SMOOTH",
"493 185 OFFCURVE",
"390 48 OFFCURVE",
"256 48 CURVE SMOOTH"
);
}
);
width = 623;
}
);
leftKerningGroup = c;
note = d;
rightKerningGroup = d;
unicode = 0064;
},
{
color = 1;
glyphname = eth;
lastChange = "2020-04-14 08:45:50 +0000";
layers = (
{
layerId = "2F4EEC1B-9E89-4E08-AD53-AB625B6E887D";
paths = (
{
closed = 1;
nodes = (
"455 -10 OFFCURVE",
"576 237 OFFCURVE",
"576 504 CURVE SMOOTH",
"576 571 OFFCURVE",
"564 630 OFFCURVE",
"538 677 CURVE",
"613 716 LINE",
"597 756 LINE",
"514 712 LINE",
"479 749 OFFCURVE",
"429 771 OFFCURVE",
"360 771 CURVE SMOOTH",
"304 771 OFFCURVE",
"252 757 OFFCURVE",
"211 732 CURVE",
"234 682 LINE",
"268 702 OFFCURVE",
"307 713 OFFCURVE",
"349 713 CURVE SMOOTH",
"390 713 OFFCURVE",
"424 701 OFFCURVE",
"450 678 CURVE",
"285 593 LINE",
"301 553 LINE",
"481 646 LINE",
"504 611 OFFCURVE",
"513 554 OFFCURVE",
"513 495 CURVE SMOOTH",
"513 453 OFFCURVE",
"508 409 OFFCURVE",
"500 371 CURVE",
"477 435 OFFCURVE",
"408 487 OFFCURVE",
"308 487 CURVE SMOOTH",
"147 487 OFFCURVE",
"26 353 OFFCURVE",
"26 192 CURVE SMOOTH",
"26 75 OFFCURVE",
"100 -10 OFFCURVE",
"223 -10 CURVE SMOOTH"
);
},
{
closed = 1;
nodes = (
"144 48 OFFCURVE",
"92 115 OFFCURVE",
"92 203 CURVE SMOOTH",
"92 324 OFFCURVE",
"183 429 OFFCURVE",
"301 429 CURVE SMOOTH",
"398 429 OFFCURVE",
"463 365 OFFCURVE",
"463 277 CURVE SMOOTH",
"463 159 OFFCURVE",
"361 48 OFFCURVE",
"234 48 CURVE SMOOTH"
);
}
);
width = 600;
},
{
layerId = "11907447-A26F-432E-A335-7727E0303767";
paths = (
{
closed = 1;
nodes = (
"462 -9 OFFCURVE",
"583 238 OFFCURVE",
"583 504 CURVE SMOOTH",
"583 570 OFFCURVE",
"572 627 OFFCURVE",
"548 672 CURVE",
"616 708 LINE",
"594 763 LINE",
"511 720 LINE",
"476 753 OFFCURVE",
"428 772 OFFCURVE",
"362 772 CURVE SMOOTH",
"308 772 OFFCURVE",
"259 760 OFFCURVE",
"220 739 CURVE",
"253 672 LINE",
"281 688 OFFCURVE",
"313 697 OFFCURVE",
"349 697 CURVE SMOOTH",
"380 697 OFFCURVE",
"407 688 OFFCURVE",
"427 676 CURVE",
"282 600 LINE",
"304 545 LINE",
"472 632 LINE",
"492 598 OFFCURVE",
"500 551 OFFCURVE",
"500 499 CURVE SMOOTH",
"500 466 OFFCURVE",
"497 431 OFFCURVE",
"491 394 CURVE",
"451 459 OFFCURVE",
"388 492 OFFCURVE",
"311 492 CURVE SMOOTH",
"144 492 OFFCURVE",
"22 359 OFFCURVE",
"22 194 CURVE SMOOTH",
"22 75 OFFCURVE",
"100 -9 OFFCURVE",
"227 -9 CURVE SMOOTH"
);
},
{
closed = 1;
nodes = (
"157 66 OFFCURVE",
"109 130 OFFCURVE",
"109 211 CURVE SMOOTH",
"109 320 OFFCURVE",
"192 417 OFFCURVE",
"306 417 CURVE SMOOTH",
"392 417 OFFCURVE",
"449 359 OFFCURVE",
"449 280 CURVE SMOOTH",
"449 170 OFFCURVE",
"357 66 OFFCURVE",
"241 66 CURVE SMOOTH"
);
}
);
width = 605;
},
{
layerId = "FD6EB2BB-8839-4CDB-86BF-4EEAE3F02079";
paths = (
{
closed = 1;
nodes = (
"480 -17 OFFCURVE",
"609 225 OFFCURVE",
"609 484 CURVE SMOOTH",
"609 565 OFFCURVE",
"591 629 OFFCURVE",
"558 677 CURVE",
"617 708 LINE",
"595 763 LINE",
"515 722 LINE",
"469 760 OFFCURVE",
"407 779 OFFCURVE",
"331 779 CURVE SMOOTH",
"281 779 OFFCURVE",
"229 774 OFFCURVE",
"169 755 CURVE",
"214 622 LINE",
"243 631 OFFCURVE",
"271 634 OFFCURVE",
"296 634 CURVE SMOOTH",
"312 634 OFFCURVE",
"326 634 OFFCURVE",
"342 630 CURVE",
"283 600 LINE",
"305 545 LINE",
"409 600 LINE",
"438 573 OFFCURVE",
"456 535 OFFCURVE",
"456 489 CURVE SMOOTH",
"456 475 OFFCURVE",
"454 461 OFFCURVE",
"451 446 CURVE",
"412 496 OFFCURVE",
"352 511 OFFCURVE",
"301 511 CURVE SMOOTH",
"126 511 OFFCURVE",
"5 375 OFFCURVE",
"5 201 CURVE SMOOTH",
"5 68 OFFCURVE",
"96 -17 OFFCURVE",
"236 -17 CURVE SMOOTH"
);
},
{
closed = 1;
nodes = (
"208 138 OFFCURVE",
"168 179 OFFCURVE",
"168 237 CURVE SMOOTH",
"168 312 OFFCURVE",
"234 377 OFFCURVE",
"308 377 CURVE SMOOTH",
"368 377 OFFCURVE",
"409 335 OFFCURVE",
"409 280 CURVE SMOOTH",
"409 208 OFFCURVE",
"344 138 OFFCURVE",
"266 138 CURVE SMOOTH"
);
}
);
width = 620;
}
);
unicode = 00F0;
},
{
color = 1;
glyphname = e;
lastChange = "2020-07-09 08:28:46 +0000";
layers = (
{
anchors = (
{
name = bottom;
position = "{275, 0}";
},
{
name = ogonek;
position = "{359, 0}";
},
{
name = top;
position = "{375, 567}";
}
);
background = {
paths = (
{
closed = 1;
nodes = (
"488 -12 OFFCURVE",
"575 84 OFFCURVE",
"607 196 CURVE",
"438 196 LINE",
"424 161 OFFCURVE",
"388 132 OFFCURVE",
"337 132 CURVE SMOOTH",
"295 132 OFFCURVE",
"261 145 OFFCURVE",
"237 175 CURVE SMOOTH",
"214 203 OFFCURVE",
"219 231 OFFCURVE",
"197 237 CURVE",
"201 248 LINE",
"616 248 LINE",
"616 277 LINE SMOOTH",
"616 496 OFFCURVE",
"472 579 OFFCURVE",
"323 579 CURVE SMOOTH",
"118 579 OFFCURVE",
"32 423 OFFCURVE",
"32 279 CURVE SMOOTH",
"32 111 OFFCURVE",
"148 -12 OFFCURVE",
"328 -12 CURVE SMOOTH"
);
},
{
closed = 1;
nodes = (
"203 370 LINE",
"223 376 OFFCURVE",
"211 390 OFFCURVE",
"239 418 CURVE SMOOTH",
"263 442 OFFCURVE",
"295 451 OFFCURVE",
"329 451 CURVE SMOOTH",
"363 451 OFFCURVE",
"395 442 OFFCURVE",
"419 418 CURVE SMOOTH",
"447 390 OFFCURVE",
"435 376 OFFCURVE",
"455 370 CURVE",
"454 367 LINE",
"204 367 LINE"
);
}
);
};
layerId = "FD6EB2BB-8839-4CDB-86BF-4EEAE3F02079";
paths = (
{
closed = 1;
nodes = (
"436 -12 OFFCURVE",
"540 84 OFFCURVE",
"592 196 CURVE",
"423 196 LINE",
"402 161 OFFCURVE",
"361 132 OFFCURVE",
"310 132 CURVE SMOOTH",
"239 132 OFFCURVE",
"202 171 OFFCURVE",
"202 242 CURVE SMOOTH",
"202 244 OFFCURVE",
"202 246 OFFCURVE",
"202 248 CURVE",
"610 248 LINE",
"618 295 OFFCURVE",
"622 321 OFFCURVE",
"622 350 CURVE SMOOTH",
"622 515 OFFCURVE",
"506 579 OFFCURVE",
"375 579 CURVE SMOOTH",
"178 579 OFFCURVE",
"26 416 OFFCURVE",
"26 221 CURVE SMOOTH",
"26 83 OFFCURVE",
"118 -12 OFFCURVE",
"276 -12 CURVE SMOOTH"
);
},
{
closed = 1;
nodes = (
"232 380 OFFCURVE",
"240 399 OFFCURVE",
"263 418 CURVE SMOOTH",
"291 442 OFFCURVE",
"325 451 OFFCURVE",
"359 451 CURVE SMOOTH",
"393 451 OFFCURVE",
"423 442 OFFCURVE",
"443 418 CURVE SMOOTH",
"458 400 OFFCURVE",
"460 380 OFFCURVE",
"461 367 CURVE",
"228 367 LINE"
);
}
);
width = 648;
},
{
anchors = (
{
name = bottom;
position = "{265, 0}";
},
{
name = ogonek;
position = "{332, 0}";
},
{
name = top;
position = "{363, 553}";
}
);
background = {
paths = (
{
closed = 1;
nodes = (
"454 -10 OFFCURVE",
"538 74 OFFCURVE",
"572 178 CURVE",
"481 178 LINE",
"457 117 OFFCURVE",
"400 65 OFFCURVE",
"316 65 CURVE SMOOTH",
"236 65 OFFCURVE",
"171 120 OFFCURVE",
"143 205 CURVE SMOOTH",
"134 232 OFFCURVE",
"137 243 OFFCURVE",
"119 246 CURVE",
"122 262 LINE",
"100 260 LINE",
"582 260 LINE",
"582 290 LINE SMOOTH",
"582 468 OFFCURVE",
"454 563 OFFCURVE",
"315 563 CURVE SMOOTH",
"144 563 OFFCURVE",
"48 425 OFFCURVE",
"48 275 CURVE SMOOTH",
"48 112 OFFCURVE",
"158 -10 OFFCURVE",
"317 -10 CURVE SMOOTH"
);
},
{
closed = 1;
nodes = (
"128 328 LINE",
"154 348 OFFCURVE",
"137 350 OFFCURVE",
"156 389 CURVE SMOOTH",
"186 452 OFFCURVE",
"243 488 OFFCURVE",
"317 488 CURVE SMOOTH",
"388 488 OFFCURVE",
"450 453 OFFCURVE",
"479 389 CURVE SMOOTH",
"497 350 OFFCURVE",
"481 348 OFFCURVE",
"506 328 CURVE",
"495 316 LINE",
"525 335 LINE",
"114 335 LINE",
"139 316 LINE"
);
}
);
};
layerId = "11907447-A26F-432E-A335-7727E0303767";
paths = (
{
closed = 1;
nodes = (
"403 -10 OFFCURVE",
"502 74 OFFCURVE",
"555 178 CURVE",
"464 178 LINE",
"429 117 OFFCURVE",
"363 65 OFFCURVE",
"279 65 CURVE SMOOTH",
"186 65 OFFCURVE",
"128 142 OFFCURVE",
"128 235 CURVE SMOOTH",
"128 244 OFFCURVE",
"128 252 OFFCURVE",
"129 260 CURVE",
"579 260 LINE",
"586 301 OFFCURVE",
"589 324 OFFCURVE",
"590 349 CURVE SMOOTH",
"590 489 OFFCURVE",
"489 563 OFFCURVE",
"366 563 CURVE SMOOTH",
"183 563 OFFCURVE",
"43 398 OFFCURVE",
"43 215 CURVE SMOOTH",
"43 83 OFFCURVE",
"127 -10 OFFCURVE",
"266 -10 CURVE SMOOTH"
);
},
{
closed = 1;
nodes = (
"156 352 OFFCURVE",
"165 372 OFFCURVE",
"176 389 CURVE SMOOTH",
"217 452 OFFCURVE",
"280 488 OFFCURVE",
"354 488 CURVE SMOOTH",
"437 488 OFFCURVE",
"502 438 OFFCURVE",
"502 358 CURVE SMOOTH",
"502 350 OFFCURVE",
"502 342 OFFCURVE",
"501 335 CURVE",
"150 335 LINE"
);
}
);
width = 629;
},
{
anchors = (
{
name = bottom;
position = "{260, 0}";
},
{
name = ogonek;
position = "{314, 0}";
},
{
name = top;
position = "{356, 549}";
}
);
background = {
paths = (
{
closed = 1;
nodes = (
"442 -10 OFFCURVE",
"526 71 OFFCURVE",
"558 173 CURVE",
"489 173 LINE",
"464 104 OFFCURVE",
"401 48 OFFCURVE",
"310 48 CURVE SMOOTH",
"226 48 OFFCURVE",
"157 101 OFFCURVE",
"128 187 CURVE SMOOTH",
"116 222 OFFCURVE",
"119 245 OFFCURVE",
"100 250 CURVE",
"104 265 LINE",
"83 263 LINE",
"570 263 LINE",
"570 274 OFFCURVE",
"570 284 OFFCURVE",
"569 293 CURVE SMOOTH",
"560 461 OFFCURVE",
"446 559 OFFCURVE",
"309 559 CURVE SMOOTH",
"147 559 OFFCURVE",
"48 426 OFFCURVE",
"48 274 CURVE SMOOTH",
"48 112 OFFCURVE",
"157 -10 OFFCURVE",
"310 -10 CURVE SMOOTH"
);
},
{
closed = 1;
nodes = (
"108 317 LINE",
"122 329 OFFCURVE",
"120 352 OFFCURVE",
"136 388 CURVE SMOOTH",
"167 459 OFFCURVE",
"230 501 OFFCURVE",
"310 501 CURVE SMOOTH",
"389 501 OFFCURVE",
"458 458 OFFCURVE",
"489 384 CURVE SMOOTH",
"503 350 OFFCURVE",
"501 329 OFFCURVE",
"514 317 CURVE",
"504 303 LINE",
"537 316 LINE",
"78 316 LINE",
"117 303 LINE"
);
}
);
};
layerId = "2F4EEC1B-9E89-4E08-AD53-AB625B6E887D";
paths = (
{
closed = 1;
nodes = (
"392 -10 OFFCURVE",
"490 71 OFFCURVE",
"540 173 CURVE",
"471 173 LINE",
"434 104 OFFCURVE",
"361 48 OFFCURVE",
"270 48 CURVE SMOOTH",
"166 48 OFFCURVE",
"108 128 OFFCURVE",
"108 233 CURVE SMOOTH",
"108 243 OFFCURVE",
"109 253 OFFCURVE",
"110 263 CURVE",
"568 263 LINE",
"572 284 OFFCURVE",
"575 313 OFFCURVE",
"575 332 CURVE SMOOTH",
"575 466 OFFCURVE",
"498 559 OFFCURVE",
"359 559 CURVE SMOOTH",
"181 559 OFFCURVE",
"43 393 OFFCURVE",
"43 214 CURVE SMOOTH",
"43 83 OFFCURVE",
"127 -10 OFFCURVE",
"260 -10 CURVE SMOOTH"
);
},
{
closed = 1;
nodes = (
"130 338 OFFCURVE",
"142 366 OFFCURVE",
"156 388 CURVE SMOOTH",
"200 459 OFFCURVE",
"270 501 OFFCURVE",
"350 501 CURVE SMOOTH",
"447 501 OFFCURVE",
"514 436 OFFCURVE",
"514 332 CURVE SMOOTH",
"514 327 OFFCURVE",
"514 321 OFFCURVE",
"514 316 CURVE",
"123 316 LINE"
);
}
);
width = 617;
}
);
leftKerningGroup = c;
note = e;
rightKerningGroup = o;
unicode = 0065;
},
{
color = 1;
glyphname = f;
lastChange = "2020-04-14 08:31:16 +0000";
layers = (
{
anchors = (
{
name = bottom;
position = "{138, 0}";
},
{
name = top;
position = "{273, 763}";
}
);
layerId = "FD6EB2BB-8839-4CDB-86BF-4EEAE3F02079";
paths = (
{
closed = 1;
nodes = (
"222 0 LINE",
"299 437 LINE",
"384 437 LINE",
"407 567 LINE",
"322 567 LINE",
"327 597 LINE SMOOTH",
"333 628 OFFCURVE",
"354 634 OFFCURVE",
"367 634 CURVE SMOOTH",
"419 634 LINE",
"442 763 LINE",
"349 763 LINE SMOOTH",
"245 763 OFFCURVE",
"177 711 OFFCURVE",
"162 622 CURVE SMOOTH",
"152 567 LINE",
"71 567 LINE",
"48 437 LINE",
"129 437 LINE",
"52 0 LINE"
);
}
);
width = 378;
},
{
anchors = (
{
name = bottom;
position = "{128, 0}";
},
{
name = top;
position = "{263, 763}";
}
);
layerId = "11907447-A26F-432E-A335-7727E0303767";
paths = (
{
closed = 1;
nodes = (
"154 0 LINE",
"239 478 LINE",
"368 478 LINE",
"381 553 LINE",
"252 553 LINE",
"260 602 LINE SMOOTH",
"271 661 OFFCURVE",
"300 688 OFFCURVE",
"353 688 CURVE SMOOTH",
"405 688 LINE",
"418 763 LINE",
"347 763 LINE SMOOTH",
"252 763 OFFCURVE",
"195 711 OFFCURVE",
"177 613 CURVE SMOOTH",
"167 553 LINE",
"75 553 LINE",
"62 478 LINE",
"154 478 LINE",
"69 0 LINE"
);
}
);
width = 353;
},
{
anchors = (
{
name = bottom;
position = "{124, 0}";
},
{
name = top;
position = "{258, 763}";
}
);
layerId = "2F4EEC1B-9E89-4E08-AD53-AB625B6E887D";
paths = (
{
closed = 1;
nodes = (
"135 0 LINE",
"221 491 LINE",
"360 491 LINE",
"370 549 LINE",
"231 549 LINE",
"244 618 LINE SMOOTH",
"256 690 OFFCURVE",
"295 705 OFFCURVE",
"346 705 CURVE SMOOTH",
"398 705 LINE",
"408 763 LINE",
"342 763 LINE SMOOTH",
"250 763 OFFCURVE",
"195 711 OFFCURVE",
"177 611 CURVE SMOOTH",
"166 549 LINE",
"74 549 LINE",
"64 491 LINE",
"156 491 LINE",
"70 0 LINE"
);
}
);
width = 343;
}
);
leftKerningGroup = f;
note = f;
rightKerningGroup = f;
unicode = 0066;
},
{
color = 1;
glyphname = g;
lastChange = "2020-04-14 08:53:42 +0000";
layers = (
{
anchors = (
{
name = bottom;
position = "{233, -237}";
},
{
name = top;
position = "{375, 567}";
}
);
guideLines = (
{
angle = 270;
position = "{592, 567}";
}
);
layerId = "FD6EB2BB-8839-4CDB-86BF-4EEAE3F02079";
paths = (
{
closed = 1;
nodes = (
"385 -208 OFFCURVE",
"517 -153 OFFCURVE",
"553 48 CURVE SMOOTH",
"645 567 LINE",
"477 567 LINE",
"466 506 LINE",
"438 563 OFFCURVE",
"394 579 OFFCURVE",
"334 579 CURVE SMOOTH",
"161 579 OFFCURVE",
"31 408 OFFCURVE",
"31 229 CURVE SMOOTH",
"31 99 OFFCURVE",
"108 8 OFFCURVE",
"233 8 CURVE SMOOTH",
"293 8 OFFCURVE",
"343 24 OFFCURVE",
"391 81 CURVE",
"378 5 LINE SMOOTH",
"370 -42 OFFCURVE",
"332 -83 OFFCURVE",
"256 -83 CURVE SMOOTH",
"206 -83 OFFCURVE",
"177 -68 OFFCURVE",
"167 -20 CURVE",
"-1 -20 LINE",
"-1 -173 OFFCURVE",
"118 -208 OFFCURVE",
"235 -208 CURVE SMOOTH"
);
},
{
closed = 1;
nodes = (
"241 151 OFFCURVE",
"204 198 OFFCURVE",
"204 261 CURVE SMOOTH",
"204 348 OFFCURVE",
"266 436 OFFCURVE",
"356 436 CURVE SMOOTH",
"420 436 OFFCURVE",
"458 390 OFFCURVE",
"458 325 CURVE SMOOTH",
"458 238 OFFCURVE",
"395 151 OFFCURVE",
"306 151 CURVE SMOOTH"
);
}
);
width = 650;
},
{
anchors = (
{
name = bottom;
position = "{227, -237}";
},
{
name = top;
position = "{367, 553}";
}
);
layerId = "11907447-A26F-432E-A335-7727E0303767";
paths = (
{
closed = 1;
nodes = (
"372 -220 OFFCURVE",
"487 -161 OFFCURVE",
"519 19 CURVE SMOOTH",
"613 553 LINE",
"528 553 LINE",
"513 467 LINE",
"469 539 OFFCURVE",
"424 563 OFFCURVE",
"348 563 CURVE SMOOTH",
"168 563 OFFCURVE",
"46 390 OFFCURVE",
"46 205 CURVE SMOOTH",
"46 76 OFFCURVE",
"120 -10 OFFCURVE",
"247 -10 CURVE SMOOTH",
"321 -10 OFFCURVE",
"375 12 OFFCURVE",
"445 86 CURVE",
"431 3 LINE SMOOTH",
"415 -89 OFFCURVE",
"356 -145 OFFCURVE",
"240 -145 CURVE SMOOTH",
"149 -145 OFFCURVE",
"104 -111 OFFCURVE",
"98 -45 CURVE",
"11 -45 LINE",
"11 -179 OFFCURVE",
"115 -220 OFFCURVE",
"227 -220 CURVE SMOOTH"
);
},
{
closed = 1;
nodes = (
"181 65 OFFCURVE",
"132 130 OFFCURVE",
"132 224 CURVE SMOOTH",
"132 353 OFFCURVE",
"216 488 OFFCURVE",
"343 488 CURVE SMOOTH",
"431 488 OFFCURVE",
"487 422 OFFCURVE",
"487 326 CURVE SMOOTH",
"487 198 OFFCURVE",
"397 65 OFFCURVE",
"269 65 CURVE SMOOTH"
);
}
);
width = 635;
},
{
anchors = (
{
name = bottom;
position = "{221, -237}";
},
{
name = top;
position = "{370, 549}";
}
);
layerId = "2F4EEC1B-9E89-4E08-AD53-AB625B6E887D";
paths = (
{
closed = 1;
nodes = (
"370 -224 OFFCURVE",
"475 -161 OFFCURVE",
"504 7 CURVE SMOOTH",
"599 549 LINE",
"534 549 LINE",
"516 447 LINE",
"481 517 OFFCURVE",
"421 559 OFFCURVE",
"340 559 CURVE SMOOTH",
"168 559 OFFCURVE",
"44 389 OFFCURVE",
"44 208 CURVE SMOOTH",
"44 78 OFFCURVE",
"117 -10 OFFCURVE",
"240 -10 CURVE SMOOTH",
"319 -10 OFFCURVE",
"394 30 OFFCURVE",
"456 102 CURVE",
"437 -4 LINE SMOOTH",
"418 -108 OFFCURVE",
"356 -166 OFFCURVE",
"229 -166 CURVE SMOOTH",
"125 -166 OFFCURVE",
"82 -129 OFFCURVE",
"73 -56 CURVE",
"8 -56 LINE",
"18 -177 OFFCURVE",
"99 -224 OFFCURVE",
"220 -224 CURVE SMOOTH"
);
},
{
closed = 1;
nodes = (
"161 48 OFFCURVE",
"110 118 OFFCURVE",
"110 217 CURVE SMOOTH",
"110 357 OFFCURVE",
"198 501 OFFCURVE",
"336 501 CURVE SMOOTH",
"432 501 OFFCURVE",
"493 429 OFFCURVE",
"493 325 CURVE SMOOTH",
"493 185 OFFCURVE",
"390 48 OFFCURVE",
"256 48 CURVE SMOOTH"
);
}
);
width = 622;
}
);
leftKerningGroup = c;
note = g;
rightKerningGroup = g;
rightMetricsKey = u;
unicode = 0067;
},
{
color = 1;
glyphname = h;
lastChange = "2020-04-14 08:54:00 +0000";
layers = (
{
anchors = (
{
name = bottom;
position = "{262, 0}";
},
{
name = center;
position = "{211, 660}";
},
{
name = top;
position = "{224, 763}";
}
);
layerId = "FD6EB2BB-8839-4CDB-86BF-4EEAE3F02079";
paths = (
{
closed = 1;
nodes = (
"173 0 LINE",
"229 319 LINE SMOOTH",
"244 402 OFFCURVE",
"271 444 OFFCURVE",
"347 444 CURVE SMOOTH",
"396 444 OFFCURVE",
"417 425 OFFCURVE",
"417 377 CURVE SMOOTH",
"417 362 OFFCURVE",
"415 343 OFFCURVE",
"411 319 CURVE SMOOTH",
"355 0 LINE",
"523 0 LINE",
"579 317 LINE SMOOTH",
"587 362 OFFCURVE",
"593 396 OFFCURVE",
"593 428 CURVE SMOOTH",
"593 533 OFFCURVE",
"531 579 OFFCURVE",
"420 579 CURVE SMOOTH",
"360 579 OFFCURVE",
"310 563 OFFCURVE",
"262 506 CURVE",
"308 763 LINE",
"140 763 LINE",
"5 0 LINE"
);
}
);
width = 624;
},
{
anchors = (
{
name = bottom;
position = "{241, 0}";
},
{
name = center;
position = "{184, 660}";
},
{
name = top;
position = "{202, 763}";
}
);
layerId = "11907447-A26F-432E-A335-7727E0303767";
paths = (
{
closed = 1;
nodes = (
"108 0 LINE",
"150 236 LINE SMOOTH",
"175 379 OFFCURVE",
"220 488 OFFCURVE",
"345 488 CURVE SMOOTH",
"412 488 OFFCURVE",
"441 459 OFFCURVE",
"441 392 CURVE SMOOTH",
"441 375 OFFCURVE",
"439 355 OFFCURVE",
"435 333 CURVE SMOOTH",
"376 0 LINE",
"461 0 LINE",
"520 333 LINE SMOOTH",
"524 354 OFFCURVE",
"528 382 OFFCURVE",
"528 412 CURVE SMOOTH",
"528 510 OFFCURVE",
"476 563 OFFCURVE",
"372 563 CURVE SMOOTH",
"312 563 OFFCURVE",
"259 539 OFFCURVE",
"191 467 CURVE",
"243 763 LINE",
"158 763 LINE",
"23 0 LINE"
);
}
);
width = 577;
},
{
anchors = (
{
name = bottom;
position = "{228, 0}";
},
{
name = center;
position = "{173, 660}";
},
{
name = top;
position = "{191, 763}";
}
);
layerId = "2F4EEC1B-9E89-4E08-AD53-AB625B6E887D";
paths = (
{
closed = 1;
nodes = (
"89 0 LINE",
"127 217 LINE SMOOTH",
"153 368 OFFCURVE",
"213 501 OFFCURVE",
"343 501 CURVE SMOOTH",
"409 501 OFFCURVE",
"444 466 OFFCURVE",
"444 393 CURVE SMOOTH",
"444 377 OFFCURVE",
"442 359 OFFCURVE",
"439 340 CURVE SMOOTH",
"379 0 LINE",
"444 0 LINE",
"503 337 LINE SMOOTH",
"507 358 OFFCURVE",
"511 383 OFFCURVE",
"511 410 CURVE SMOOTH",
"511 497 OFFCURVE",
"460 559 OFFCURVE",
"367 559 CURVE SMOOTH",
"290 559 OFFCURVE",
"227 528 OFFCURVE",
"169 457 CURVE",
"223 763 LINE",
"158 763 LINE",
"24 0 LINE"
);
}
);
width = 559;
}
);
leftKerningGroup = b;
leftMetricsKey = b;
note = h;
rightKerningGroup = h;
rightMetricsKey = m;
unicode = 0068;
},
{
color = 1;
glyphname = idotless;
lastChange = "2020-04-14 08:31:16 +0000";
layers = (
{
anchors = (
{
name = bottom;
position = "{89, 0}";
},
{
name = ogonek;
position = "{173, 0}";
},
{
name = top;
position = "{189, 567}";
}
);
background = {
anchors = (
{
name = bottom;
position = "{139, 0}";
},
{
name = ogonek;
position = "{207, 0}";
},
{
name = top;
position = "{139, 567}";
}
);
paths = (
{
closed = 1;
nodes = (
"207 0 LINE SMOOTH",
"217 0 OFFCURVE",
"223 6 OFFCURVE",
"223 16 CURVE SMOOTH",
"223 551 LINE SMOOTH",
"223 561 OFFCURVE",
"217 567 OFFCURVE",
"207 567 CURVE SMOOTH",
"71 567 LINE SMOOTH",
"61 567 OFFCURVE",
"55 561 OFFCURVE",
"55 551 CURVE SMOOTH",
"55 16 LINE SMOOTH",
"55 6 OFFCURVE",
"61 0 OFFCURVE",
"71 0 CURVE SMOOTH"
);
}
);
};
layerId = "FD6EB2BB-8839-4CDB-86BF-4EEAE3F02079";
paths = (
{
closed = 1;
nodes = (
"173 0 LINE",
"273 567 LINE",
"105 567 LINE",
"5 0 LINE"
);
}
);
width = 278;
},
{
anchors = (
{
name = bottom;
position = "{65, 0}";
},
{
name = ogonek;
position = "{107, 0}";
},
{
name = top;
position = "{163, 553}";
}
);
background = {
anchors = (
{
name = bottom;
position = "{113, 0}";
},
{
name = ogonek;
position = "{140, 0}";
},
{
name = top;
position = "{113, 553}";
}
);
paths = (
{
closed = 1;
nodes = (
"140 0 LINE SMOOTH",
"150 0 OFFCURVE",
"156 6 OFFCURVE",
"156 16 CURVE SMOOTH",
"156 537 LINE SMOOTH",
"156 547 OFFCURVE",
"150 553 OFFCURVE",
"140 553 CURVE SMOOTH",
"86 553 LINE SMOOTH",
"76 553 OFFCURVE",
"70 547 OFFCURVE",
"70 537 CURVE SMOOTH",
"70 16 LINE SMOOTH",
"70 6 OFFCURVE",
"76 0 OFFCURVE",
"86 0 CURVE SMOOTH"
);
}
);
};
layerId = "11907447-A26F-432E-A335-7727E0303767";
paths = (
{
closed = 1;
nodes = (
"107 0 LINE",
"205 553 LINE",
"120 553 LINE",
"22 0 LINE"
);
}
);
width = 227;
},
{
anchors = (
{
name = bottom;
position = "{57, 0}";
},
{
name = ogonek;
position = "{89, 0}";
},
{
name = top;
position = "{153, 549}";
}
);
background = {
anchors = (
{
name = bottom;
position = "{105, 0}";
},
{
name = ogonek;
position = "{127, 0}";
},
{
name = top;
position = "{105, 549}";
}
);
paths = (
{
closed = 1;
nodes = (
"127 0 LINE SMOOTH",
"133 0 OFFCURVE",
"137 4 OFFCURVE",
"137 10 CURVE SMOOTH",
"137 539 LINE SMOOTH",
"137 545 OFFCURVE",
"133 549 OFFCURVE",
"127 549 CURVE SMOOTH",
"82 549 LINE SMOOTH",
"76 549 OFFCURVE",
"72 545 OFFCURVE",
"72 539 CURVE SMOOTH",
"72 10 LINE SMOOTH",
"72 4 OFFCURVE",
"76 0 OFFCURVE",
"82 0 CURVE SMOOTH"
);
}
);
};
layerId = "2F4EEC1B-9E89-4E08-AD53-AB625B6E887D";
paths = (
{
closed = 1;
nodes = (
"89 0 LINE",
"185 549 LINE",
"120 549 LINE",
"24 0 LINE"
);
}
);
width = 209;
}
);
note = dotlessi;
unicode = 0131;
},
{
color = 1;
glyphname = jdotless;
lastChange = "2020-04-14 08:31:16 +0000";
layers = (
{
anchors = (
{
name = bottom;
position = "{47, -237}";
},
{
name = top;
position = "{189, 567}";
}
);
layerId = "FD6EB2BB-8839-4CDB-86BF-4EEAE3F02079";
paths = (
{
closed = 1;
nodes = (
"8 -196 LINE SMOOTH",
"91 -196 OFFCURVE",
"146 -154 OFFCURVE",
"159 -82 CURVE SMOOTH",
"273 567 LINE",
"105 567 LINE",
"1 -24 LINE SMOOTH",
"-5 -55 OFFCURVE",
"-25 -59 OFFCURVE",
"-41 -59 CURVE SMOOTH",
"-93 -59 LINE",
"-118 -196 LINE"
);
}
);
width = 278;
},
{
anchors = (
{
name = bottom;
position = "{23, -237}";
},
{
name = top;
position = "{163, 553}";
}
);
background = {
paths = (
{
closed = 0;
nodes = (
"72 -48 LINE SMOOTH",
"72 -116 OFFCURVE",
"40 -132 OFFCURVE",
"-6 -132 CURVE SMOOTH",
"-58 -132 LINE",
"-58 -210 LINE",
"14 -210 LINE SMOOTH",
"108 -210 OFFCURVE",
"157 -159 OFFCURVE",
"157 -59 CURVE SMOOTH"
);
}
);
};
layerId = "11907447-A26F-432E-A335-7727E0303767";
paths = (
{
closed = 1;
nodes = (
"-72 -210 LINE SMOOTH",
"22 -210 OFFCURVE",
"80 -159 OFFCURVE",
"98 -59 CURVE SMOOTH",
"206 553 LINE",
"121 553 LINE",
"15 -48 LINE SMOOTH",
"3 -116 OFFCURVE",
"-32 -132 OFFCURVE",
"-78 -132 CURVE SMOOTH",
"-130 -132 LINE",
"-144 -210 LINE"
);
}
);
width = 228;
},
{
anchors = (
{
name = bottom;
position = "{15, -237}";
},
{
name = top;
position = "{153, 549}";
}
);
background = {
paths = (
{
closed = 0;
nodes = (
"72 -51 LINE SMOOTH",
"72 -128 OFFCURVE",
"40 -155 OFFCURVE",
"-16 -155 CURVE SMOOTH",
"-68 -155 LINE",
"-68 -214 LINE",
"-1 -214 LINE SMOOTH",
"90 -214 OFFCURVE",
"137 -163 OFFCURVE",
"137 -61 CURVE SMOOTH"
);
}
);
};
layerId = "2F4EEC1B-9E89-4E08-AD53-AB625B6E887D";
paths = (
{
closed = 1;
nodes = (
"-87 -214 LINE SMOOTH",
"4 -214 OFFCURVE",
"60 -163 OFFCURVE",
"78 -61 CURVE SMOOTH",
"185 549 LINE",
"120 549 LINE",
"15 -51 LINE SMOOTH",
"1 -128 OFFCURVE",
"-36 -155 OFFCURVE",
"-92 -155 CURVE SMOOTH",
"-144 -155 LINE",
"-154 -214 LINE"
);
}
);
width = 209;
}
);
note = uni0237;
unicode = 0237;
},
{
color = 1;
glyphname = k;
lastChange = "2020-04-14 09:30:17 +0000";
layers = (
{
anchors = (
{
name = bottom;
position = "{258, 0}";
},
{
name = top;
position = "{393, 763}";
}
);
background = {
paths = (
{
closed = 1;
nodes = (
"173 0 LINE",
"205 182 LINE SMOOTH",
"209 205 OFFCURVE",
"213 228 OFFCURVE",
"211 271 CURVE",
"224 275 LINE",
"240 237 OFFCURVE",
"250 219 OFFCURVE",
"260 201 CURVE SMOOTH",
"373 0 LINE",
"568 0 LINE",
"413 257 LINE SMOOTH",
"401 277 OFFCURVE",
"388 292 OFFCURVE",
"376 303 CURVE",
"378 317 LINE",
"393 326 OFFCURVE",
"411 336 OFFCURVE",
"430 353 CURVE SMOOTH",
"669 567 LINE",
"453 567 LINE",
"300 426 LINE SMOOTH",
"285 412 OFFCURVE",
"268 397 OFFCURVE",
"239 363 CURVE",
"228 368 LINE",
"246 412 OFFCURVE",
"250 435 OFFCURVE",
"254 459 CURVE SMOOTH",
"308 763 LINE",
"140 763 LINE",
"5 0 LINE"
);
}
);
};
layerId = "FD6EB2BB-8839-4CDB-86BF-4EEAE3F02079";
paths = (
{
closed = 1;
nodes = (
"173 0 LINE",
"221 272 LINE",
"373 0 LINE",
"568 0 LINE",
"381 308 LINE",
"669 567 LINE",
"453 567 LINE",
"238 368 LINE",
"308 763 LINE",
"140 763 LINE",
"5 0 LINE"
);
}
);
width = 624;
},
{
anchors = (
{
name = bottom;
position = "{223, 0}";
},
{
name = top;
position = "{358, 763}";
}
);
background = {
paths = (
{
closed = 1;
nodes = (
"108 0 LINE",
"140 182 LINE SMOOTH",
"145 211 OFFCURVE",
"151 241 OFFCURVE",
"148 280 CURVE",
"160 285 LINE",
"180 261 OFFCURVE",
"191 246 OFFCURVE",
"202 232 CURVE SMOOTH",
"378 0 LINE",
"488 0 LINE",
"281 264 LINE SMOOTH",
"270 279 OFFCURVE",
"258 286 OFFCURVE",
"239 292 CURVE",
"241 306 LINE",
"262 311 OFFCURVE",
"275 317 OFFCURVE",
"292 330 CURVE SMOOTH",
"578 553 LINE",
"449 553 LINE",
"228 380 LINE SMOOTH",
"212 368 OFFCURVE",
"197 355 OFFCURVE",
"169 333 CURVE",
"158 339 LINE",
"174 374 OFFCURVE",
"179 400 OFFCURVE",
"183 425 CURVE SMOOTH",
"243 763 LINE",
"158 763 LINE",
"23 0 LINE"
);
}
);
};
layerId = "11907447-A26F-432E-A335-7727E0303767";
paths = (
{
closed = 1;
nodes = (
"108 0 LINE",
"159 289 LINE",
"378 0 LINE",
"486 0 LINE",
"253 300 LINE",
"577 553 LINE",
"449 553 LINE",
"167 332 LINE",
"243 763 LINE",
"158 763 LINE",
"23 0 LINE"
);
}
);
width = 554;
},
{
anchors = (
{
name = bottom;
position = "{208, 0}";
},
{
name = top;
position = "{342, 763}";
}
);
background = {
paths = (
{
closed = 1;
nodes = (
"89 0 LINE",
"129 228 LINE SMOOTH",
"132 243 OFFCURVE",
"134 259 OFFCURVE",
"128 282 CURVE",
"142 289 LINE",
"159 268 OFFCURVE",
"169 257 OFFCURVE",
"178 246 CURVE SMOOTH",
"382 0 LINE",
"467 0 LINE",
"243 264 LINE SMOOTH",
"235 274 OFFCURVE",
"227 283 OFFCURVE",
"208 293 CURVE",
"211 307 LINE",
"232 315 OFFCURVE",
"244 324 OFFCURVE",
"255 332 CURVE SMOOTH",
"551 549 LINE",
"450 549 LINE",
"199 363 LINE SMOOTH",
"186 353 OFFCURVE",
"172 344 OFFCURVE",
"148 324 CURVE",
"137 330 LINE",
"152 357 OFFCURVE",
"155 375 OFFCURVE",
"158 392 CURVE SMOOTH",
"223 763 LINE",
"158 763 LINE",
"24 0 LINE"
);
}
);
};
guideLines = (
{
angle = 270;
position = "{257, 299}";
}
);
layerId = "2F4EEC1B-9E89-4E08-AD53-AB625B6E887D";
paths = (
{
closed = 1;
nodes = (
"89 0 LINE",
"140 292 LINE",
"382 0 LINE",
"467 0 LINE",
"212 301 LINE",
"552 549 LINE",
"450 549 LINE",
"146 324 LINE",
"223 763 LINE",
"158 763 LINE",
"24 0 LINE"
);
}
);
width = 536;
}
);
leftKerningGroup = b;
leftMetricsKey = b;
note = k;
rightKerningGroup = k;
unicode = 006B;
},
{
color = 1;
glyphname = kgreenlandic;
lastChange = "2020-04-14 09:35:08 +0000";
layers = (
{
anchors = (
{
name = bottom;
position = "{258, 0}";
},
{
name = top;
position = "{362, 567}";
}
);
background = {
components = (
{
name = k;
}
);
};
layerId = "FD6EB2BB-8839-4CDB-86BF-4EEAE3F02079";
paths = (
{
closed = 1;
nodes = (
"173 0 LINE",
"221 272 LINE",
"373 0 LINE",
"568 0 LINE",
"381 308 LINE",
"669 567 LINE",
"453 567 LINE",
"238 368 LINE",
"273 567 LINE",
"105 567 LINE",
"5 0 LINE"
);
}
);
width = 624;
},
{
anchors = (
{
name = bottom;
position = "{223, 0}";
},
{
name = top;
position = "{326, 553}";
}
);
background = {
components = (
{
name = k;
transform = "{1, 0, 0, 1, 1, 0}";
}
);
};
layerId = "11907447-A26F-432E-A335-7727E0303767";
paths = (
{
closed = 1;
nodes = (
"108 0 LINE",
"159 289 LINE",
"378 0 LINE",
"486 0 LINE",
"253 300 LINE",
"577 553 LINE",
"449 553 LINE",
"167 332 LINE",
"206 553 LINE",
"121 553 LINE",
"23 0 LINE"
);
}
);
width = 554;
},
{
anchors = (
{
name = bottom;
position = "{208, 0}";
},
{
name = top;
position = "{316, 549}";
}
);
background = {
paths = (
{
closed = 0;
nodes = (
"137 763 LINE",
"72 763 LINE"
);
}
);
};
layerId = "2F4EEC1B-9E89-4E08-AD53-AB625B6E887D";
paths = (
{
closed = 1;
nodes = (
"89 0 LINE",
"140 292 LINE",
"382 0 LINE",
"467 0 LINE",
"212 301 LINE",
"552 549 LINE",
"450 549 LINE",
"146 324 LINE",
"185 549 LINE",
"120 549 LINE",
"24 0 LINE"
);
}
);
width = 536;
}
);
leftKerningGroup = b;
leftMetricsKey = k;
note = kgreenlandic;
rightKerningGroup = k;
rightMetricsKey = k;
unicode = 0138;
},
{
color = 1;
glyphname = l;
lastChange = "2020-04-14 08:42:02 +0000";
layers = (
{
anchors = (
{
name = bottom;
position = "{103, 0}";
},
{
name = center;
position = "{175, 464}";
},
{
name = top;
position = "{221, 763}";
},
{
name = topright;
position = "{308, 567}";
}
);
background = {
anchors = (
{
name = bottom;
position = "{153, 0}";
},
{
name = center;
position = "{143, 464}";
},
{
name = top;
position = "{153, 763}";
},
{
name = topright;
position = "{258, 567}";
}
);
paths = (
{
closed = 1;
nodes = (
"279 0 LINE SMOOTH",
"289 0 OFFCURVE",
"295 6 OFFCURVE",
"295 16 CURVE SMOOTH",
"295 120 LINE SMOOTH",
"295 130 OFFCURVE",
"289 136 OFFCURVE",
"279 136 CURVE SMOOTH",
"253 136 LINE SMOOTH",
"240 136 OFFCURVE",
"220 140 OFFCURVE",
"220 171 CURVE SMOOTH",
"220 747 LINE SMOOTH",
"220 757 OFFCURVE",
"214 763 OFFCURVE",
"204 763 CURVE SMOOTH",
"68 763 LINE SMOOTH",
"58 763 OFFCURVE",
"52 757 OFFCURVE",
"52 747 CURVE SMOOTH",
"52 113 LINE SMOOTH",
"52 41 OFFCURVE",
"99 0 OFFCURVE",
"182 0 CURVE SMOOTH"
);
}
);
};
layerId = "FD6EB2BB-8839-4CDB-86BF-4EEAE3F02079";
paths = (
{
closed = 1;
nodes = (
"245 0 LINE",
"269 136 LINE",
"227 136 LINE SMOOTH",
"215 136 OFFCURVE",
"199 139 OFFCURVE",
"199 162 CURVE SMOOTH",
"199 164 OFFCURVE",
"199 168 OFFCURVE",
"200 171 CURVE SMOOTH",
"305 763 LINE",
"137 763 LINE",
"22 113 LINE SMOOTH",
"20 104 OFFCURVE",
"20 96 OFFCURVE",
"20 88 CURVE SMOOTH",
"20 31 OFFCURVE",
"59 0 OFFCURVE",
"132 0 CURVE SMOOTH"
);
}
);
width = 318;
},
{
anchors = (
{
name = bottom;
position = "{77, 0}";
},
{
name = center;
position = "{162, 483}";
},
{
name = top;
position = "{198, 763}";
},
{
name = topright;
position = "{249, 553}";
}
);
background = {
anchors = (
{
name = bottom;
position = "{126, 0}";
},
{
name = center;
position = "{126, 483}";
},
{
name = top;
position = "{126, 763}";
},
{
name = topright;
position = "{200, 553}";
}
);
paths = (
{
closed = 1;
nodes = (
"231 0 LINE SMOOTH",
"241 0 OFFCURVE",
"247 6 OFFCURVE",
"247 16 CURVE SMOOTH",
"247 59 LINE SMOOTH",
"247 69 OFFCURVE",
"241 75 OFFCURVE",
"231 75 CURVE SMOOTH",
"220 75 LINE SMOOTH",
"158 75 OFFCURVE",
"155 103 OFFCURVE",
"155 152 CURVE SMOOTH",
"155 747 LINE SMOOTH",
"155 757 OFFCURVE",
"149 763 OFFCURVE",
"139 763 CURVE SMOOTH",
"85 763 LINE SMOOTH",
"75 763 OFFCURVE",
"69 757 OFFCURVE",
"69 747 CURVE SMOOTH",
"69 139 LINE SMOOTH",
"69 28 OFFCURVE",
"117 0 OFFCURVE",
"200 0 CURVE SMOOTH"
);
}
);
};
layerId = "11907447-A26F-432E-A335-7727E0303767";
paths = (
{
closed = 1;
nodes = (
"198 0 LINE",
"211 75 LINE",
"184 75 LINE SMOOTH",
"140 75 OFFCURVE",
"128 89 OFFCURVE",
"128 115 CURVE SMOOTH",
"128 126 OFFCURVE",
"129 138 OFFCURVE",
"132 152 CURVE SMOOTH",
"240 763 LINE",
"155 763 LINE",
"45 139 LINE SMOOTH",
"42 121 OFFCURVE",
"40 105 OFFCURVE",
"40 91 CURVE SMOOTH",
"40 20 OFFCURVE",
"82 0 OFFCURVE",
"151 0 CURVE SMOOTH"
);
}
);
width = 277;
},
{
anchors = (
{
name = bottom;
position = "{70, 0}";
},
{
name = center;
position = "{155, 487}";
},
{
name = top;
position = "{188, 763}";
},
{
name = topright;
position = "{231, 549}";
}
);
layerId = "2F4EEC1B-9E89-4E08-AD53-AB625B6E887D";
paths = (
{
closed = 1;
nodes = (
"185 0 LINE",
"195 58 LINE",
"159 58 LINE SMOOTH",
"118 58 OFFCURVE",
"106 72 OFFCURVE",
"106 100 CURVE SMOOTH",
"106 111 OFFCURVE",
"108 123 OFFCURVE",
"110 138 CURVE SMOOTH",
"220 763 LINE",
"155 763 LINE",
"43 128 LINE SMOOTH",
"40 111 OFFCURVE",
"39 97 OFFCURVE",
"39 84 CURVE SMOOTH",
"39 19 OFFCURVE",
"73 0 OFFCURVE",
"135 0 CURVE SMOOTH"
);
}
);
width = 263;
}
);
leftKerningGroup = b;
note = l;
rightKerningGroup = d;
unicode = 006C;
},
{
color = 1;
glyphname = m;
lastChange = "2020-04-14 08:54:26 +0000";
layers = (
{
anchors = (
{
name = bottom;
position = "{399, 0}";
},
{
name = top;
position = "{499, 567}";
}
);
layerId = "FD6EB2BB-8839-4CDB-86BF-4EEAE3F02079";
paths = (
{
closed = 1;
nodes = (
"173 0 LINE",
"231 328 LINE SMOOTH",
"242 393 OFFCURVE",
"263 444 OFFCURVE",
"325 444 CURVE SMOOTH",
"365 444 OFFCURVE",
"387 429 OFFCURVE",
"387 388 CURVE SMOOTH",
"387 380 OFFCURVE",
"386 370 OFFCURVE",
"384 359 CURVE SMOOTH",
"321 0 LINE",
"489 0 LINE",
"547 328 LINE SMOOTH",
"560 399 OFFCURVE",
"581 444 OFFCURVE",
"642 444 CURVE SMOOTH",
"681 444 OFFCURVE",
"702 429 OFFCURVE",
"702 388 CURVE SMOOTH",
"702 380 OFFCURVE",
"701 370 OFFCURVE",
"699 359 CURVE SMOOTH",
"636 0 LINE",
"804 0 LINE",
"870 374 LINE SMOOTH",
"874 394 OFFCURVE",
"875 413 OFFCURVE",
"875 431 CURVE SMOOTH",
"875 522 OFFCURVE",
"828 579 OFFCURVE",
"721 579 CURVE SMOOTH",
"644 579 OFFCURVE",
"592 549 OFFCURVE",
"550 497 CURVE",
"539 551 OFFCURVE",
"495 579 OFFCURVE",
"420 579 CURVE SMOOTH",
"364 579 OFFCURVE",
"308 559 OFFCURVE",
"262 506 CURVE",
"273 567 LINE",
"105 567 LINE",
"5 0 LINE"
);
}
);
width = 905;
},
{
anchors = (
{
name = bottom;
position = "{401, 0}";
},
{
name = top;
position = "{495, 553}";
}
);
layerId = "11907447-A26F-432E-A335-7727E0303767";
paths = (
{
closed = 1;
nodes = (
"107 0 LINE",
"151 250 LINE SMOOTH",
"174 381 OFFCURVE",
"226 488 OFFCURVE",
"333 488 CURVE SMOOTH",
"390 488 OFFCURVE",
"424 450 OFFCURVE",
"424 383 CURVE SMOOTH",
"424 370 OFFCURVE",
"423 356 OFFCURVE",
"420 340 CURVE SMOOTH",
"360 0 LINE",
"445 0 LINE",
"489 250 LINE SMOOTH",
"512 382 OFFCURVE",
"561 488 OFFCURVE",
"672 488 CURVE SMOOTH",
"730 488 OFFCURVE",
"762 453 OFFCURVE",
"762 386 CURVE SMOOTH",
"762 372 OFFCURVE",
"761 357 OFFCURVE",
"758 340 CURVE SMOOTH",
"698 0 LINE",
"783 0 LINE",
"847 360 LINE SMOOTH",
"851 381 OFFCURVE",
"852 400 OFFCURVE",
"852 418 CURVE SMOOTH",
"852 510 OFFCURVE",
"804 563 OFFCURVE",
"699 563 CURVE SMOOTH",
"631 563 OFFCURVE",
"561 541 OFFCURVE",
"505 461 CURVE",
"501 530 OFFCURVE",
"442 563 OFFCURVE",
"371 563 CURVE SMOOTH",
"310 563 OFFCURVE",
"258 539 OFFCURVE",
"190 467 CURVE",
"205 553 LINE",
"120 553 LINE",
"22 0 LINE"
);
}
);
width = 899;
},
{
anchors = (
{
name = bottom;
position = "{397, 0}";
},
{
name = top;
position = "{489, 549}";
}
);
layerId = "2F4EEC1B-9E89-4E08-AD53-AB625B6E887D";
paths = (
{
closed = 1;
nodes = (
"88 0 LINE",
"132 251 LINE SMOOTH",
"157 392 OFFCURVE",
"216 501 OFFCURVE",
"334 501 CURVE SMOOTH",
"400 501 OFFCURVE",
"431 457 OFFCURVE",
"431 388 CURVE SMOOTH",
"431 373 OFFCURVE",
"430 358 OFFCURVE",
"427 341 CURVE SMOOTH",
"367 0 LINE",
"432 0 LINE",
"476 251 LINE SMOOTH",
"500 387 OFFCURVE",
"555 501 OFFCURVE",
"678 501 CURVE SMOOTH",
"746 501 OFFCURVE",
"774 457 OFFCURVE",
"774 392 CURVE SMOOTH",
"774 376 OFFCURVE",
"772 359 OFFCURVE",
"769 341 CURVE SMOOTH",
"709 0 LINE",
"774 0 LINE",
"837 357 LINE SMOOTH",
"841 378 OFFCURVE",
"842 397 OFFCURVE",
"842 415 CURVE SMOOTH",
"842 508 OFFCURVE",
"794 559 OFFCURVE",
"693 559 CURVE SMOOTH",
"618 559 OFFCURVE",
"542 524 OFFCURVE",
"493 444 CURVE",
"485 522 OFFCURVE",
"427 559 OFFCURVE",
"350 559 CURVE SMOOTH",
"270 559 OFFCURVE",
"205 517 OFFCURVE",
"170 467 CURVE",
"184 549 LINE",
"119 549 LINE",
"23 0 LINE"
);
}
);
width = 889;
}
);
leftKerningGroup = m;
note = m;
rightKerningGroup = h;
unicode = 006D;
},
{
color = 1;
glyphname = n;
lastChange = "2020-04-14 08:54:43 +0000";
layers = (
{
anchors = (
{
name = bottom;
position = "{262, 0}";
},
{
name = top;
position = "{362, 567}";
}
);
layerId = "FD6EB2BB-8839-4CDB-86BF-4EEAE3F02079";
paths = (
{
closed = 1;
nodes = (
"173 0 LINE",
"229 319 LINE SMOOTH",
"244 402 OFFCURVE",
"271 444 OFFCURVE",
"347 444 CURVE SMOOTH",
"396 444 OFFCURVE",
"417 425 OFFCURVE",
"417 377 CURVE SMOOTH",
"417 362 OFFCURVE",
"415 343 OFFCURVE",
"411 319 CURVE SMOOTH",
"355 0 LINE",
"523 0 LINE",
"579 317 LINE SMOOTH",
"587 362 OFFCURVE",
"593 396 OFFCURVE",
"593 428 CURVE SMOOTH",
"593 533 OFFCURVE",
"531 579 OFFCURVE",
"420 579 CURVE SMOOTH",
"360 579 OFFCURVE",
"310 563 OFFCURVE",
"262 506 CURVE",
"273 567 LINE",
"105 567 LINE",
"5 0 LINE"
);
}
);
width = 624;
},
{
anchors = (
{
name = bottom;
position = "{240, 0}";
},
{
name = top;
position = "{338, 553}";
}
);
layerId = "11907447-A26F-432E-A335-7727E0303767";
paths = (
{
closed = 1;
nodes = (
"107 0 LINE",
"149 236 LINE SMOOTH",
"174 379 OFFCURVE",
"219 488 OFFCURVE",
"344 488 CURVE SMOOTH",
"411 488 OFFCURVE",
"440 459 OFFCURVE",
"440 392 CURVE SMOOTH",
"440 375 OFFCURVE",
"438 355 OFFCURVE",
"434 333 CURVE SMOOTH",
"375 0 LINE",
"460 0 LINE",
"519 333 LINE SMOOTH",
"523 354 OFFCURVE",
"527 382 OFFCURVE",
"527 412 CURVE SMOOTH",
"527 510 OFFCURVE",
"475 563 OFFCURVE",
"371 563 CURVE SMOOTH",
"310 563 OFFCURVE",
"258 539 OFFCURVE",
"190 467 CURVE",
"205 553 LINE",
"120 553 LINE",
"22 0 LINE"
);
}
);
width = 576;
},
{
layerId = "2F4EEC1B-9E89-4E08-AD53-AB625B6E887D";
paths = (
{
closed = 1;
nodes = (
"88 0 LINE",
"126 217 LINE SMOOTH",
"152 368 OFFCURVE",
"212 501 OFFCURVE",
"342 501 CURVE SMOOTH",
"408 501 OFFCURVE",
"443 466 OFFCURVE",
"443 393 CURVE SMOOTH",
"443 377 OFFCURVE",
"441 359 OFFCURVE",
"438 340 CURVE SMOOTH",
"378 0 LINE",
"443 0 LINE",
"502 337 LINE SMOOTH",
"506 358 OFFCURVE",
"510 383 OFFCURVE",
"510 410 CURVE SMOOTH",
"510 497 OFFCURVE",
"459 559 OFFCURVE",
"366 559 CURVE SMOOTH",
"289 559 OFFCURVE",
"225 528 OFFCURVE",
"168 457 CURVE",
"184 549 LINE",
"119 549 LINE",
"23 0 LINE"
);
}
);
width = 558;
}
);
leftKerningGroup = m;
leftMetricsKey = m;
note = n;
rightKerningGroup = h;
rightMetricsKey = m;
unicode = 006E;
},
{
color = 1;
glyphname = o;
lastChange = "2020-04-14 08:54:59 +0000";
layers = (
{
anchors = (
{
name = bottom;
position = "{280, 0}";
},
{
name = center;
position = "{330, 284}";
},
{
name = ogonek;
position = "{461, 37}";
},
{
name = top;
position = "{380, 567}";
},
{
name = topright;
position = "{676, 567}";
}
);
layerId = "FD6EB2BB-8839-4CDB-86BF-4EEAE3F02079";
paths = (
{
closed = 1;
nodes = (
"481 -12 OFFCURVE",
"634 147 OFFCURVE",
"634 346 CURVE SMOOTH",
"634 487 OFFCURVE",
"539 579 OFFCURVE",
"382 579 CURVE SMOOTH",
"178 579 OFFCURVE",
"27 423 OFFCURVE",
"27 222 CURVE SMOOTH",
"27 78 OFFCURVE",
"123 -12 OFFCURVE",
"278 -12 CURVE SMOOTH"
);
},
{
closed = 1;
nodes = (
"240 132 OFFCURVE",
"202 175 OFFCURVE",
"202 245 CURVE SMOOTH",
"202 342 OFFCURVE",
"261 436 OFFCURVE",
"357 436 CURVE SMOOTH",
"422 436 OFFCURVE",
"457 392 OFFCURVE",
"457 325 CURVE SMOOTH",
"457 230 OFFCURVE",
"398 132 OFFCURVE",
"303 132 CURVE SMOOTH"
);
}
);
width = 660;
},
{
anchors = (
{
name = bottom;
position = "{270, 0}";
},
{
name = center;
position = "{319, 277}";
},
{
name = ogonek;
position = "{408, 26}";
},
{
name = top;
position = "{368, 553}";
},
{
name = topright;
position = "{654, 553}";
}
);
layerId = "11907447-A26F-432E-A335-7727E0303767";
paths = (
{
closed = 1;
nodes = (
"452 -10 OFFCURVE",
"595 154 OFFCURVE",
"595 338 CURVE SMOOTH",
"595 471 OFFCURVE",
"508 563 OFFCURVE",
"369 563 CURVE SMOOTH",
"186 563 OFFCURVE",
"43 403 OFFCURVE",
"43 218 CURVE SMOOTH",
"43 82 OFFCURVE",
"129 -10 OFFCURVE",
"267 -10 CURVE SMOOTH"
);
},
{
closed = 1;
nodes = (
"190 65 OFFCURVE",
"129 132 OFFCURVE",
"129 232 CURVE SMOOTH",
"129 364 OFFCURVE",
"228 488 OFFCURVE",
"355 488 CURVE SMOOTH",
"448 488 OFFCURVE",
"508 419 OFFCURVE",
"508 323 CURVE SMOOTH",
"508 192 OFFCURVE",
"408 65 OFFCURVE",
"281 65 CURVE SMOOTH"
);
}
);
width = 639;
},
{
anchors = (
{
name = bottom;
position = "{264, 0}";
},
{
name = center;
position = "{312, 275}";
},
{
name = ogonek;
position = "{397, 26}";
},
{
name = top;
position = "{360, 549}";
},
{
name = topright;
position = "{643, 549}";
}
);
layerId = "2F4EEC1B-9E89-4E08-AD53-AB625B6E887D";
paths = (
{
closed = 1;
nodes = (
"440 -10 OFFCURVE",
"581 155 OFFCURVE",
"581 335 CURVE SMOOTH",
"581 466 OFFCURVE",
"495 559 OFFCURVE",
"361 559 CURVE SMOOTH",
"184 559 OFFCURVE",
"43 397 OFFCURVE",
"43 216 CURVE SMOOTH",
"43 82 OFFCURVE",
"127 -10 OFFCURVE",
"261 -10 CURVE SMOOTH"
);
},
{
closed = 1;
nodes = (
"173 48 OFFCURVE",
"109 121 OFFCURVE",
"109 227 CURVE SMOOTH",
"109 368 OFFCURVE",
"215 501 OFFCURVE",
"351 501 CURVE SMOOTH",
"451 501 OFFCURVE",
"515 428 OFFCURVE",
"515 325 CURVE SMOOTH",
"515 184 OFFCURVE",
"407 48 OFFCURVE",
"271 48 CURVE SMOOTH"
);
}
);
width = 625;
}
);
leftKerningGroup = c;
note = o;
rightKerningGroup = o;
unicode = 006F;
},
{
glyphname = oe;
lastChange = "2020-04-16 06:05:10 +0000";
layers = (
{
layerId = "2F4EEC1B-9E89-4E08-AD53-AB625B6E887D";
paths = (
{
closed = 1;
nodes = (
"416 -10 OFFCURVE",
"548 113 OFFCURVE",
"576 277 CURVE SMOOTH",
"605 438 OFFCURVE",
"514 559 OFFCURVE",
"361 559 CURVE SMOOTH",
"208 559 OFFCURVE",
"77 438 OFFCURVE",
"48 277 CURVE SMOOTH",
"19 111 OFFCURVE",
"108 -10 OFFCURVE",
"261 -10 CURVE SMOOTH"
);
},
{
closed = 1;
nodes = (
"158 48 OFFCURVE",
"90 144 OFFCURVE",
"113 277 CURVE SMOOTH",
"136 405 OFFCURVE",
"237 501 OFFCURVE",
"351 501 CURVE SMOOTH",
"466 501 OFFCURVE",
"534 404 OFFCURVE",
"511 277 CURVE SMOOTH",
"488 146 OFFCURVE",
"385 48 OFFCURVE",
"271 48 CURVE SMOOTH"
);
},
{
closed = 1;
nodes = (
"857 -10 OFFCURVE",
"955 71 OFFCURVE",
"1005 173 CURVE",
"936 173 LINE",
"899 104 OFFCURVE",
"826 48 OFFCURVE",
"735 48 CURVE SMOOTH",
"651 48 OFFCURVE",
"592 101 OFFCURVE",
"578 187 CURVE SMOOTH",
"573 212 OFFCURVE",
"572 235 OFFCURVE",
"575 263 CURVE",
"1033 263 LINE",
"1035 274 OFFCURVE",
"1037 286 OFFCURVE",
"1038 297 CURVE SMOOTH",
"1052 450 OFFCURVE",
"975 559 OFFCURVE",
"824 559 CURVE SMOOTH",
"662 559 OFFCURVE",
"540 426 OFFCURVE",
"513 274 CURVE SMOOTH",
"484 112 OFFCURVE",
"572 -10 OFFCURVE",
"725 -10 CURVE SMOOTH"
);
},
{
closed = 1;
nodes = (
"595 338 OFFCURVE",
"607 366 OFFCURVE",
"621 388 CURVE SMOOTH",
"665 459 OFFCURVE",
"735 501 OFFCURVE",
"815 501 CURVE SMOOTH",
"894 501 OFFCURVE",
"954 458 OFFCURVE",
"973 384 CURVE SMOOTH",
"979 361 OFFCURVE",
"980 341 OFFCURVE",
"979 316 CURVE",
"588 316 LINE"
);
}
);
width = 1082;
},
{
layerId = "11907447-A26F-432E-A335-7727E0303767";
paths = (
{
closed = 1;
nodes = (
"452 -10 OFFCURVE",
"595 154 OFFCURVE",
"595 338 CURVE SMOOTH",
"595 471 OFFCURVE",
"508 563 OFFCURVE",
"369 563 CURVE SMOOTH",
"186 563 OFFCURVE",
"43 403 OFFCURVE",
"43 218 CURVE SMOOTH",
"43 82 OFFCURVE",
"129 -10 OFFCURVE",
"267 -10 CURVE SMOOTH"
);
},
{
closed = 1;
nodes = (
"190 65 OFFCURVE",
"129 132 OFFCURVE",
"129 232 CURVE SMOOTH",
"129 364 OFFCURVE",
"228 488 OFFCURVE",
"355 488 CURVE SMOOTH",
"448 488 OFFCURVE",
"508 419 OFFCURVE",
"508 323 CURVE SMOOTH",
"508 192 OFFCURVE",
"408 65 OFFCURVE",
"281 65 CURVE SMOOTH"
);
},
{
closed = 1;
nodes = (
"861 -10 OFFCURVE",
"960 74 OFFCURVE",
"1013 178 CURVE",
"922 178 LINE",
"887 117 OFFCURVE",
"821 65 OFFCURVE",
"737 65 CURVE SMOOTH",
"657 65 OFFCURVE",
"601 120 OFFCURVE",
"588 205 CURVE SMOOTH",
"586 217 OFFCURVE",
"585 247 OFFCURVE",
"587 260 CURVE",
"1037 260 LINE",
"1042 290 LINE SMOOTH",
"1046 311 OFFCURVE",
"1048 331 OFFCURVE",
"1048 349 CURVE SMOOTH",
"1048 489 OFFCURVE",
"947 563 OFFCURVE",
"824 563 CURVE SMOOTH",
"641 563 OFFCURVE",
"501 398 OFFCURVE",
"501 215 CURVE SMOOTH",
"501 83 OFFCURVE",
"585 -10 OFFCURVE",
"724 -10 CURVE SMOOTH"
);
},
{
closed = 1;
nodes = (
"614 352 OFFCURVE",
"623 372 OFFCURVE",
"634 389 CURVE SMOOTH",
"675 452 OFFCURVE",
"738 488 OFFCURVE",
"812 488 CURVE SMOOTH",
"883 488 OFFCURVE",
"939 453 OFFCURVE",
"957 389 CURVE SMOOTH",
"960 377 OFFCURVE",
"960 352 OFFCURVE",
"959 335 CURVE",
"608 335 LINE"
);
}
);
width = 1087;
},
{
layerId = "FD6EB2BB-8839-4CDB-86BF-4EEAE3F02079";
paths = (
{
closed = 1;
nodes = (
"481 -12 OFFCURVE",
"634 147 OFFCURVE",
"634 346 CURVE SMOOTH",
"634 487 OFFCURVE",
"539 579 OFFCURVE",
"382 579 CURVE SMOOTH",
"178 579 OFFCURVE",
"27 423 OFFCURVE",
"27 222 CURVE SMOOTH",
"27 78 OFFCURVE",
"123 -12 OFFCURVE",
"278 -12 CURVE SMOOTH"
);
},
{
closed = 1;
nodes = (
"240 132 OFFCURVE",
"202 175 OFFCURVE",
"202 245 CURVE SMOOTH",
"202 342 OFFCURVE",
"261 436 OFFCURVE",
"357 436 CURVE SMOOTH",
"422 436 OFFCURVE",
"457 392 OFFCURVE",
"457 325 CURVE SMOOTH",
"457 230 OFFCURVE",
"398 132 OFFCURVE",
"303 132 CURVE SMOOTH"
);
},
{
closed = 1;
nodes = (
"861 -12 OFFCURVE",
"965 84 OFFCURVE",
"1017 196 CURVE",
"848 196 LINE",
"827 161 OFFCURVE",
"786 132 OFFCURVE",
"735 132 CURVE SMOOTH",
"693 132 OFFCURVE",
"662 145 OFFCURVE",
"643 175 CURVE SMOOTH",
"632 192 OFFCURVE",
"626 220 OFFCURVE",
"627 248 CURVE",
"1035 248 LINE",
"1040 277 LINE SMOOTH",
"1045 303 OFFCURVE",
"1047 328 OFFCURVE",
"1047 350 CURVE SMOOTH",
"1047 515 OFFCURVE",
"931 579 OFFCURVE",
"800 579 CURVE SMOOTH",
"603 579 OFFCURVE",
"451 416 OFFCURVE",
"451 221 CURVE SMOOTH",
"451 83 OFFCURVE",
"543 -12 OFFCURVE",
"701 -12 CURVE SMOOTH"
);
},
{
closed = 1;
nodes = (
"657 380 OFFCURVE",
"665 399 OFFCURVE",
"688 418 CURVE SMOOTH",
"716 442 OFFCURVE",
"750 451 OFFCURVE",
"784 451 CURVE SMOOTH",
"818 451 OFFCURVE",
"848 442 OFFCURVE",
"868 418 CURVE SMOOTH",
"883 400 OFFCURVE",
"885 380 OFFCURVE",
"886 367 CURVE",
"653 367 LINE"
);
}
);
width = 1073;
}
);
leftKerningGroup = c;
leftMetricsKey = o;
rightKerningGroup = o;
rightMetricsKey = e;
unicode = 0153;
},
{
color = 1;
glyphname = p;
lastChange = "2020-04-14 08:55:33 +0000";
layers = (
{
anchors = (
{
name = bottom;
position = "{227, -196}";
},
{
name = top;
position = "{362, 567}";
}
);
guideLines = (
{
angle = 270;
position = "{-68, -237}";
},
{
position = "{-16, -228}";
}
);
layerId = "FD6EB2BB-8839-4CDB-86BF-4EEAE3F02079";
paths = (
{
closed = 1;
nodes = (
"138 -196 LINE",
"184 61 LINE",
"212 4 OFFCURVE",
"256 -12 OFFCURVE",
"316 -12 CURVE SMOOTH",
"494 -12 OFFCURVE",
"622 167 OFFCURVE",
"622 354 CURVE SMOOTH",
"622 489 OFFCURVE",
"544 579 OFFCURVE",
"420 579 CURVE SMOOTH",
"360 579 OFFCURVE",
"310 563 OFFCURVE",
"262 506 CURVE",
"273 567 LINE",
"105 567 LINE",
"-30 -196 LINE"
);
},
{
closed = 1;
nodes = (
"231 131 OFFCURVE",
"193 175 OFFCURVE",
"193 244 CURVE SMOOTH",
"193 338 OFFCURVE",
"253 436 OFFCURVE",
"348 436 CURVE SMOOTH",
"412 436 OFFCURVE",
"449 391 OFFCURVE",
"449 322 CURVE SMOOTH",
"449 228 OFFCURVE",
"388 131 OFFCURVE",
"294 131 CURVE SMOOTH"
);
}
);
width = 649;
},
{
anchors = (
{
name = bottom;
position = "{230, -210}";
},
{
name = top;
position = "{354, 553}";
}
);
guideLines = (
{
position = "{0, -230}";
}
);
layerId = "11907447-A26F-432E-A335-7727E0303767";
paths = (
{
closed = 1;
nodes = (
"70 -210 LINE",
"122 86 LINE",
"166 12 OFFCURVE",
"212 -10 OFFCURVE",
"286 -10 CURVE SMOOTH",
"467 -10 OFFCURVE",
"589 161 OFFCURVE",
"589 347 CURVE SMOOTH",
"589 477 OFFCURVE",
"515 563 OFFCURVE",
"388 563 CURVE SMOOTH",
"312 563 OFFCURVE",
"258 539 OFFCURVE",
"190 467 CURVE",
"205 553 LINE",
"120 553 LINE",
"-15 -210 LINE"
);
},
{
closed = 1;
nodes = (
"204 65 OFFCURVE",
"148 131 OFFCURVE",
"148 227 CURVE SMOOTH",
"148 359 OFFCURVE",
"241 488 OFFCURVE",
"366 488 CURVE SMOOTH",
"454 488 OFFCURVE",
"503 423 OFFCURVE",
"503 330 CURVE SMOOTH",
"503 200 OFFCURVE",
"419 65 OFFCURVE",
"292 65 CURVE SMOOTH"
);
}
);
width = 633;
},
{
anchors = (
{
name = bottom;
position = "{215, -214}";
},
{
name = top;
position = "{349, 549}";
}
);
guideLines = (
{
position = "{-12, -228}";
}
);
layerId = "2F4EEC1B-9E89-4E08-AD53-AB625B6E887D";
paths = (
{
closed = 1;
nodes = (
"50 -214 LINE",
"106 102 LINE",
"142 30 OFFCURVE",
"202 -10 OFFCURVE",
"282 -10 CURVE SMOOTH",
"455 -10 OFFCURVE",
"578 161 OFFCURVE",
"578 342 CURVE SMOOTH",
"578 472 OFFCURVE",
"505 559 OFFCURVE",
"382 559 CURVE SMOOTH",
"301 559 OFFCURVE",
"227 517 OFFCURVE",
"166 447 CURVE",
"184 549 LINE",
"119 549 LINE",
"-15 -214 LINE"
);
},
{
closed = 1;
nodes = (
"190 48 OFFCURVE",
"129 120 OFFCURVE",
"129 224 CURVE SMOOTH",
"129 364 OFFCURVE",
"232 501 OFFCURVE",
"366 501 CURVE SMOOTH",
"461 501 OFFCURVE",
"512 431 OFFCURVE",
"512 332 CURVE SMOOTH",
"512 193 OFFCURVE",
"423 48 OFFCURVE",
"286 48 CURVE SMOOTH"
);
}
);
width = 622;
}
);
leftKerningGroup = m;
leftMetricsKey = m;
note = p;
rightKerningGroup = b;
rightMetricsKey = b;
unicode = 0070;
},
{
color = 1;
glyphname = thorn;
lastChange = "2020-04-14 08:56:51 +0000";
layers = (
{
anchors = (
{
name = bottom;
position = "{227, -196}";
},
{
name = top;
position = "{362, 567}";
}
);
guideLines = (
{
angle = 270;
position = "{-48, -236}";
}
);
layerId = "FD6EB2BB-8839-4CDB-86BF-4EEAE3F02079";
paths = (
{
closed = 1;
nodes = (
"138 -196 LINE",
"184 61 LINE",
"212 4 OFFCURVE",
"256 -12 OFFCURVE",
"316 -12 CURVE SMOOTH",
"494 -12 OFFCURVE",
"622 167 OFFCURVE",
"622 354 CURVE SMOOTH",
"622 489 OFFCURVE",
"544 579 OFFCURVE",
"420 579 CURVE SMOOTH",
"360 579 OFFCURVE",
"310 563 OFFCURVE",
"262 506 CURVE",
"308 763 LINE",
"140 763 LINE",
"-30 -196 LINE"
);
},
{
closed = 1;
nodes = (
"231 131 OFFCURVE",
"193 175 OFFCURVE",
"193 244 CURVE SMOOTH",
"193 338 OFFCURVE",
"253 436 OFFCURVE",
"348 436 CURVE SMOOTH",
"412 436 OFFCURVE",
"449 391 OFFCURVE",
"449 322 CURVE SMOOTH",
"449 228 OFFCURVE",
"388 131 OFFCURVE",
"294 131 CURVE SMOOTH"
);
}
);
width = 649;
},
{
anchors = (
{
name = bottom;
position = "{230, -210}";
},
{
name = top;
position = "{354, 553}";
}
);
guideLines = (
{
position = "{1, -230}";
}
);
layerId = "11907447-A26F-432E-A335-7727E0303767";
paths = (
{
closed = 1;
nodes = (
"70 -210 LINE",
"122 86 LINE",
"166 12 OFFCURVE",
"212 -10 OFFCURVE",
"286 -10 CURVE SMOOTH",
"467 -10 OFFCURVE",
"589 161 OFFCURVE",
"589 347 CURVE SMOOTH",
"589 477 OFFCURVE",
"515 563 OFFCURVE",
"388 563 CURVE SMOOTH",
"312 563 OFFCURVE",
"258 539 OFFCURVE",
"190 467 CURVE",
"242 763 LINE",
"157 763 LINE",
"-15 -210 LINE"
);
},
{
closed = 1;
nodes = (
"204 65 OFFCURVE",
"148 131 OFFCURVE",
"148 227 CURVE SMOOTH",
"148 359 OFFCURVE",
"241 488 OFFCURVE",
"366 488 CURVE SMOOTH",
"454 488 OFFCURVE",
"503 423 OFFCURVE",
"503 330 CURVE SMOOTH",
"503 200 OFFCURVE",
"419 65 OFFCURVE",
"292 65 CURVE SMOOTH"
);
}
);
width = 633;
},
{
anchors = (
{
name = bottom;
position = "{215, -214}";
},
{
name = top;
position = "{349, 549}";
}
);
guideLines = (
{
position = "{377, -228}";
}
);
layerId = "2F4EEC1B-9E89-4E08-AD53-AB625B6E887D";
paths = (
{
closed = 1;
nodes = (
"50 -214 LINE",
"106 102 LINE",
"142 30 OFFCURVE",
"202 -10 OFFCURVE",
"282 -10 CURVE SMOOTH",
"455 -10 OFFCURVE",
"578 161 OFFCURVE",
"578 342 CURVE SMOOTH",
"578 472 OFFCURVE",
"505 559 OFFCURVE",
"382 559 CURVE SMOOTH",
"301 559 OFFCURVE",
"227 517 OFFCURVE",
"166 447 CURVE",
"222 763 LINE",
"157 763 LINE",
"-15 -214 LINE"
);
},
{
closed = 1;
nodes = (
"190 48 OFFCURVE",
"129 120 OFFCURVE",
"129 224 CURVE SMOOTH",
"129 364 OFFCURVE",
"232 501 OFFCURVE",
"366 501 CURVE SMOOTH",
"461 501 OFFCURVE",
"512 431 OFFCURVE",
"512 332 CURVE SMOOTH",
"512 193 OFFCURVE",
"423 48 OFFCURVE",
"286 48 CURVE SMOOTH"
);
}
);
width = 622;
}
);
leftKerningGroup = b;
leftMetricsKey = p;
note = thorn;
rightKerningGroup = b;
rightMetricsKey = p;
unicode = 00FE;
},
{
color = 1;
glyphname = q;
lastChange = "2020-04-16 06:54:30 +0000";
layers = (
{
anchors = (
{
name = bottom;
position = "{287, 0}";
},
{
name = top;
position = "{387, 567}";
}
);
layerId = "FD6EB2BB-8839-4CDB-86BF-4EEAE3F02079";
paths = (
{
closed = 1;
nodes = (
"584 -196 LINE",
"609 -59 LINE",
"568 -59 LINE SMOOTH",
"558 -59 OFFCURVE",
"539 -57 OFFCURVE",
"539 -34 CURVE SMOOTH",
"539 -31 OFFCURVE",
"539 -28 OFFCURVE",
"540 -24 CURVE SMOOTH",
"644 567 LINE",
"476 567 LINE",
"465 506 LINE",
"437 563 OFFCURVE",
"393 579 OFFCURVE",
"333 579 CURVE SMOOTH",
"155 579 OFFCURVE",
"27 398 OFFCURVE",
"27 212 CURVE SMOOTH",
"27 78 OFFCURVE",
"105 -12 OFFCURVE",
"229 -12 CURVE SMOOTH",
"289 -12 OFFCURVE",
"339 4 OFFCURVE",
"387 61 CURVE",
"362 -81 LINE SMOOTH",
"360 -92 OFFCURVE",
"359 -100 OFFCURVE",
"359 -107 CURVE SMOOTH",
"359 -164 OFFCURVE",
"398 -196 OFFCURVE",
"471 -196 CURVE SMOOTH"
);
},
{
closed = 1;
nodes = (
"237 131 OFFCURVE",
"200 176 OFFCURVE",
"200 244 CURVE SMOOTH",
"200 338 OFFCURVE",
"260 436 OFFCURVE",
"355 436 CURVE SMOOTH",
"418 436 OFFCURVE",
"456 392 OFFCURVE",
"456 322 CURVE SMOOTH",
"456 228 OFFCURVE",
"396 131 OFFCURVE",
"301 131 CURVE SMOOTH"
);
}
);
width = 649;
},
{
anchors = (
{
name = bottom;
position = "{278, 0}";
},
{
name = top;
position = "{376, 553}";
}
);
guideLines = (
{
position = "{0, -230}";
}
);
layerId = "11907447-A26F-432E-A335-7727E0303767";
paths = (
{
closed = 1;
nodes = (
"582 -210 LINE",
"596 -132 LINE",
"547 -132 LINE SMOOTH",
"513 -132 OFFCURVE",
"497 -122 OFFCURVE",
"497 -98 CURVE SMOOTH",
"497 -95 OFFCURVE",
"497 -91 OFFCURVE",
"498 -86 CURVE SMOOTH",
"611 553 LINE",
"526 553 LINE",
"511 467 LINE",
"467 539 OFFCURVE",
"423 563 OFFCURVE",
"347 563 CURVE SMOOTH",
"166 563 OFFCURVE",
"44 392 OFFCURVE",
"44 207 CURVE SMOOTH",
"44 76 OFFCURVE",
"118 -10 OFFCURVE",
"245 -10 CURVE SMOOTH",
"319 -10 OFFCURVE",
"373 12 OFFCURVE",
"443 86 CURVE",
"414 -79 LINE SMOOTH",
"412 -93 OFFCURVE",
"410 -107 OFFCURVE",
"410 -119 CURVE SMOOTH",
"410 -183 OFFCURVE",
"448 -210 OFFCURVE",
"533 -210 CURVE SMOOTH"
);
},
{
closed = 1;
nodes = (
"179 65 OFFCURVE",
"130 130 OFFCURVE",
"130 224 CURVE SMOOTH",
"130 353 OFFCURVE",
"214 488 OFFCURVE",
"341 488 CURVE SMOOTH",
"429 488 OFFCURVE",
"485 422 OFFCURVE",
"485 326 CURVE SMOOTH",
"485 198 OFFCURVE",
"395 65 OFFCURVE",
"267 65 CURVE SMOOTH"
);
}
);
width = 634;
},
{
anchors = (
{
name = bottom;
position = "{275, 0}";
},
{
name = top;
position = "{371, 549}";
}
);
guideLines = (
{
position = "{379, -228}";
}
);
layerId = "2F4EEC1B-9E89-4E08-AD53-AB625B6E887D";
paths = (
{
closed = 1;
nodes = (
"579 -214 LINE",
"589 -155 LINE",
"553 -155 LINE SMOOTH",
"509 -155 OFFCURVE",
"488 -144 OFFCURVE",
"488 -101 CURVE SMOOTH",
"488 -90 OFFCURVE",
"489 -77 OFFCURVE",
"492 -61 CURVE SMOOTH",
"599 549 LINE",
"534 549 LINE",
"516 447 LINE",
"481 517 OFFCURVE",
"421 559 OFFCURVE",
"340 559 CURVE SMOOTH",
"167 559 OFFCURVE",
"44 387 OFFCURVE",
"44 207 CURVE SMOOTH",
"44 77 OFFCURVE",
"117 -10 OFFCURVE",
"240 -10 CURVE SMOOTH",
"319 -10 OFFCURVE",
"394 30 OFFCURVE",
"456 102 CURVE",
"425 -71 LINE SMOOTH",
"422 -87 OFFCURVE",
"421 -101 OFFCURVE",
"421 -114 CURVE SMOOTH",
"421 -185 OFFCURVE",
"461 -214 OFFCURVE",
"539 -214 CURVE SMOOTH"
);
},
{
closed = 1;
nodes = (
"161 48 OFFCURVE",
"110 118 OFFCURVE",
"110 217 CURVE SMOOTH",
"110 357 OFFCURVE",
"200 501 OFFCURVE",
"336 501 CURVE SMOOTH",
"432 501 OFFCURVE",
"493 429 OFFCURVE",
"493 326 CURVE SMOOTH",
"493 185 OFFCURVE",
"390 48 OFFCURVE",
"256 48 CURVE SMOOTH"
);
}
);
width = 622;
}
);
leftKerningGroup = c;
leftMetricsKey = d;
note = q;
rightKerningGroup = q;
unicode = 0071;
},
{
color = 1;
glyphname = r;
lastChange = "2020-04-14 08:31:16 +0000";
layers = (
{
anchors = (
{
name = bottom;
position = "{89, 0}";
},
{
name = top;
position = "{236, 567}";
}
);
layerId = "FD6EB2BB-8839-4CDB-86BF-4EEAE3F02079";
paths = (
{
closed = 1;
nodes = (
"173 0 LINE",
"215 239 LINE SMOOTH",
"229 316 OFFCURVE",
"250 361 OFFCURVE",
"284 389 CURVE SMOOTH",
"307 408 OFFCURVE",
"338 419 OFFCURVE",
"385 419 CURVE SMOOTH",
"417 419 LINE",
"445 579 LINE",
"420 579 LINE SMOOTH",
"360 579 OFFCURVE",
"310 563 OFFCURVE",
"262 506 CURVE",
"273 567 LINE",
"105 567 LINE",
"5 0 LINE"
);
}
);
width = 410;
},
{
anchors = (
{
name = bottom;
position = "{65, 0}";
},
{
name = top;
position = "{231, 553}";
}
);
layerId = "11907447-A26F-432E-A335-7727E0303767";
paths = (
{
closed = 1;
nodes = (
"107 0 LINE",
"159 291 LINE SMOOTH",
"171 360 OFFCURVE",
"196 407 OFFCURVE",
"233 438 CURVE SMOOTH",
"264 464 OFFCURVE",
"303 478 OFFCURVE",
"348 478 CURVE SMOOTH",
"377 478 LINE",
"392 563 LINE",
"388 563 LINE SMOOTH",
"313 563 OFFCURVE",
"253 539 OFFCURVE",
"191 477 CURVE",
"205 553 LINE",
"120 553 LINE",
"22 0 LINE"
);
}
);
width = 363;
},
{
anchors = (
{
name = bottom;
position = "{56, 0}";
},
{
name = top;
position = "{207, 549}";
}
);
layerId = "2F4EEC1B-9E89-4E08-AD53-AB625B6E887D";
paths = (
{
closed = 1;
nodes = (
"217 528 OFFCURVE",
"170 467 CURVE",
"184 549 LINE",
"119 549 LINE",
"23 0 LINE",
"88 0 LINE",
"135 268 LINE SMOOTH",
"149 350 OFFCURVE",
"172 407 OFFCURVE",
"211 447 CURVE SMOOTH",
"243 480 OFFCURVE",
"285 495 OFFCURVE",
"337 495 CURVE SMOOTH",
"362 495 LINE",
"373 559 LINE",
"355 559 LINE SMOOTH",
"278 559 OFFCURVE"
);
}
);
width = 345;
}
);
leftKerningGroup = m;
leftMetricsKey = m;
note = r;
rightKerningGroup = r;
unicode = 0072;
},
{
color = 1;
glyphname = s;
lastChange = "2020-04-14 08:47:01 +0000";
layers = (
{
anchors = (
{
name = bottom;
position = "{243, 0}";
},
{
name = top;
position = "{343, 567}";
}
);
layerId = "FD6EB2BB-8839-4CDB-86BF-4EEAE3F02079";
paths = (
{
closed = 1;
nodes = (
"409 -12 OFFCURVE",
"537 72 OFFCURVE",
"537 208 CURVE SMOOTH",
"537 313 OFFCURVE",
"430 334 OFFCURVE",
"342 350 CURVE SMOOTH",
"282 361 OFFCURVE",
"233 371 OFFCURVE",
"233 404 CURVE SMOOTH",
"233 433 OFFCURVE",
"265 453 OFFCURVE",
"309 453 CURVE SMOOTH",
"352 453 OFFCURVE",
"391 433 OFFCURVE",
"398 379 CURVE",
"557 379 LINE",
"557 508 OFFCURVE",
"470 579 OFFCURVE",
"332 579 CURVE SMOOTH",
"189 579 OFFCURVE",
"71 507 OFFCURVE",
"71 373 CURVE SMOOTH",
"71 268 OFFCURVE",
"176 245 OFFCURVE",
"261 228 CURVE SMOOTH",
"319 216 OFFCURVE",
"368 205 OFFCURVE",
"368 173 CURVE SMOOTH",
"368 137 OFFCURVE",
"326 115 OFFCURVE",
"278 115 CURVE SMOOTH",
"230 115 OFFCURVE",
"186 139 OFFCURVE",
"177 196 CURVE",
"14 196 LINE",
"14 29 OFFCURVE",
"139 -12 OFFCURVE",
"258 -12 CURVE SMOOTH"
);
}
);
width = 588;
},
{
anchors = (
{
name = bottom;
position = "{230, 0}";
},
{
name = top;
position = "{328, 553}";
}
);
layerId = "11907447-A26F-432E-A335-7727E0303767";
paths = (
{
closed = 1;
nodes = (
"381 -10 OFFCURVE",
"489 65 OFFCURVE",
"489 190 CURVE SMOOTH",
"489 287 OFFCURVE",
"391 308 OFFCURVE",
"304 324 CURVE SMOOTH",
"236 337 OFFCURVE",
"174 350 OFFCURVE",
"174 399 CURVE SMOOTH",
"174 454 OFFCURVE",
"225 488 OFFCURVE",
"304 488 CURVE SMOOTH",
"377 488 OFFCURVE",
"427 457 OFFCURVE",
"431 387 CURVE",
"510 387 LINE",
"510 497 OFFCURVE",
"438 563 OFFCURVE",
"318 563 CURVE SMOOTH",
"193 563 OFFCURVE",
"86 492 OFFCURVE",
"86 378 CURVE SMOOTH",
"86 288 OFFCURVE",
"177 268 OFFCURVE",
"262 251 CURVE SMOOTH",
"334 237 OFFCURVE",
"401 221 OFFCURVE",
"401 164 CURVE SMOOTH",
"401 99 OFFCURVE",
"337 65 OFFCURVE",
"258 65 CURVE SMOOTH",
"159 65 OFFCURVE",
"118 111 OFFCURVE",
"115 178 CURVE",
"26 178 LINE",
"26 62 OFFCURVE",
"102 -10 OFFCURVE",
"243 -10 CURVE SMOOTH"
);
}
);
width = 557;
},
{
anchors = (
{
name = bottom;
position = "{223, 0}";
},
{
name = top;
position = "{319, 549}";
}
);
layerId = "2F4EEC1B-9E89-4E08-AD53-AB625B6E887D";
paths = (
{
closed = 1;
nodes = (
"369 -10 OFFCURVE",
"475 62 OFFCURVE",
"475 182 CURVE SMOOTH",
"475 277 OFFCURVE",
"380 297 OFFCURVE",
"293 315 CURVE SMOOTH",
"220 330 OFFCURVE",
"154 344 OFFCURVE",
"154 400 CURVE SMOOTH",
"154 464 OFFCURVE",
"220 501 OFFCURVE",
"301 501 CURVE SMOOTH",
"383 501 OFFCURVE",
"430 462 OFFCURVE",
"430 389 CURVE",
"495 389 LINE",
"495 492 OFFCURVE",
"430 559 OFFCURVE",
"311 559 CURVE SMOOTH",
"190 559 OFFCURVE",
"87 491 OFFCURVE",
"87 380 CURVE SMOOTH",
"87 295 OFFCURVE",
"175 276 OFFCURVE",
"258 259 CURVE SMOOTH",
"335 243 OFFCURVE",
"407 228 OFFCURVE",
"407 163 CURVE SMOOTH",
"407 90 OFFCURVE",
"338 48 OFFCURVE",
"248 48 CURVE SMOOTH",
"139 48 OFFCURVE",
"93 96 OFFCURVE",
"93 173 CURVE",
"27 173 LINE",
"27 59 OFFCURVE",
"96 -10 OFFCURVE",
"235 -10 CURVE SMOOTH"
);
}
);
width = 543;
}
);
leftKerningGroup = s;
note = s;
rightKerningGroup = s;
unicode = 0073;
},
{
color = 1;
glyphname = germandbls;
lastChange = "2020-04-14 08:47:21 +0000";
layers = (
{
anchors = (
{
name = bottom;
position = "{282, 0}";
},
{
name = top;
position = "{416, 763}";
}
);
guideLines = (
{
angle = 90;
position = "{336, 401}";
}
);
layerId = "2F4EEC1B-9E89-4E08-AD53-AB625B6E887D";
paths = (
{
closed = 1;
nodes = (
"98 0 LINE",
"183 482 LINE SMOOTH",
"211 641 OFFCURVE",
"298 715 OFFCURVE",
"424 715 CURVE SMOOTH",
"523 715 OFFCURVE",
"577 675 OFFCURVE",
"577 603 CURVE SMOOTH",
"577 507 OFFCURVE",
"509 433 OFFCURVE",
"404 433 CURVE SMOOTH",
"297 433 LINE",
"287 375 LINE",
"411 375 LINE SMOOTH",
"501 375 OFFCURVE",
"553 328 OFFCURVE",
"553 250 CURVE SMOOTH",
"553 130 OFFCURVE",
"461 58 OFFCURVE",
"328 58 CURVE SMOOTH",
"231 58 LINE",
"221 0 LINE",
"325 0 LINE SMOOTH",
"499 0 OFFCURVE",
"620 103 OFFCURVE",
"620 269 CURVE SMOOTH",
"620 347 OFFCURVE",
"583 397 OFFCURVE",
"511 413 CURVE",
"593 442 OFFCURVE",
"643 523 OFFCURVE",
"643 611 CURVE SMOOTH",
"643 711 OFFCURVE",
"565 773 OFFCURVE",
"434 773 CURVE SMOOTH",
"247 773 OFFCURVE",
"149 660 OFFCURVE",
"118 482 CURVE SMOOTH",
"33 0 LINE"
);
}
);
width = 665;
},
{
anchors = (
{
name = bottom;
position = "{284, 0}";
},
{
name = top;
position = "{419, 763}";
}
);
guideLines = (
{
angle = 90;
position = "{360, 397}";
}
);
layerId = "11907447-A26F-432E-A335-7727E0303767";
paths = (
{
closed = 1;
nodes = (
"116 0 LINE",
"203 493 LINE SMOOTH",
"229 638 OFFCURVE",
"316 698 OFFCURVE",
"422 698 CURVE SMOOTH",
"512 698 OFFCURVE",
"567 656 OFFCURVE",
"567 591 CURVE SMOOTH",
"567 503 OFFCURVE",
"500 439 OFFCURVE",
"403 439 CURVE SMOOTH",
"325 439 LINE",
"311 364 LINE",
"405 364 LINE SMOOTH",
"496 364 OFFCURVE",
"545 324 OFFCURVE",
"545 252 CURVE SMOOTH",
"545 139 OFFCURVE",
"459 75 OFFCURVE",
"332 75 CURVE SMOOTH",
"260 75 LINE",
"247 0 LINE",
"328 0 LINE SMOOTH",
"504 0 OFFCURVE",
"631 100 OFFCURVE",
"631 270 CURVE SMOOTH",
"631 348 OFFCURVE",
"593 395 OFFCURVE",
"515 413 CURVE",
"604 443 OFFCURVE",
"656 522 OFFCURVE",
"656 612 CURVE SMOOTH",
"656 708 OFFCURVE",
"569 773 OFFCURVE",
"436 773 CURVE SMOOTH",
"261 773 OFFCURVE",
"149 671 OFFCURVE",
"118 493 CURVE SMOOTH",
"31 0 LINE"
);
}
);
width = 674;
},
{
anchors = (
{
name = bottom;
position = "{295, 0}";
},
{
name = top;
position = "{430, 763}";
}
);
guideLines = (
{
angle = 90;
position = "{376, 387}";
}
);
layerId = "FD6EB2BB-8839-4CDB-86BF-4EEAE3F02079";
paths = (
{
closed = 1;
nodes = (
"187 0 LINE",
"272 482 LINE SMOOTH",
"288 572 OFFCURVE",
"345 625 OFFCURVE",
"427 625 CURVE SMOOTH",
"482 625 OFFCURVE",
"514 600 OFFCURVE",
"514 558 CURVE SMOOTH",
"514 494 OFFCURVE",
"466 456 OFFCURVE",
"388 456 CURVE SMOOTH",
"351 456 LINE",
"327 320 LINE",
"396 320 LINE SMOOTH",
"465 320 OFFCURVE",
"500 299 OFFCURVE",
"500 256 CURVE SMOOTH",
"500 187 OFFCURVE",
"442 150 OFFCURVE",
"358 150 CURVE SMOOTH",
"297 150 LINE",
"271 0 LINE",
"342 0 LINE SMOOTH",
"515 0 OFFCURVE",
"668 108 OFFCURVE",
"668 272 CURVE SMOOTH",
"668 345 OFFCURVE",
"630 391 OFFCURVE",
"550 414 CURVE",
"639 445 OFFCURVE",
"689 515 OFFCURVE",
"689 604 CURVE SMOOTH",
"689 705 OFFCURVE",
"595 775 OFFCURVE",
"452 775 CURVE SMOOTH",
"264 775 OFFCURVE",
"138 674 OFFCURVE",
"102 472 CURVE SMOOTH",
"19 0 LINE"
);
}
);
width = 698;
}
);
leftKerningGroup = B;
rightKerningGroup = B;
unicode = 00DF;
},
{
color = 1;
glyphname = t;
lastChange = "2020-04-14 08:42:02 +0000";
layers = (
{
anchors = (
{
name = bottom;
position = "{177, 0}";
},
{
name = center;
position = "{207, 284}";
},
{
name = top;
position = "{268, 763}";
},
{
name = topright;
position = "{366, 756}";
}
);
background = {
anchors = (
{
name = bottom;
position = "{227, 0}";
},
{
name = center;
position = "{207, 284}";
},
{
name = top;
position = "{183, 763}";
},
{
name = topright;
position = "{283, 756}";
}
);
paths = (
{
closed = 1;
nodes = (
"348 0 LINE SMOOTH",
"358 0 OFFCURVE",
"364 6 OFFCURVE",
"364 16 CURVE SMOOTH",
"364 120 LINE SMOOTH",
"364 130 OFFCURVE",
"358 136 OFFCURVE",
"348 136 CURVE SMOOTH",
"301 136 LINE SMOOTH",
"272 136 OFFCURVE",
"267 154 OFFCURVE",
"267 170 CURVE SMOOTH",
"267 420 LINE SMOOTH",
"267 430 OFFCURVE",
"273 436 OFFCURVE",
"283 436 CURVE SMOOTH",
"349 436 LINE SMOOTH",
"359 436 OFFCURVE",
"365 442 OFFCURVE",
"365 452 CURVE SMOOTH",
"365 551 LINE SMOOTH",
"365 561 OFFCURVE",
"359 567 OFFCURVE",
"349 567 CURVE SMOOTH",
"283 567 LINE SMOOTH",
"273 567 OFFCURVE",
"267 573 OFFCURVE",
"267 583 CURVE SMOOTH",
"267 747 LINE SMOOTH",
"267 757 OFFCURVE",
"261 763 OFFCURVE",
"251 763 CURVE SMOOTH",
"115 763 LINE SMOOTH",
"105 763 OFFCURVE",
"99 757 OFFCURVE",
"99 747 CURVE SMOOTH",
"99 583 LINE SMOOTH",
"99 573 OFFCURVE",
"93 567 OFFCURVE",
"83 567 CURVE SMOOTH",
"37 567 LINE SMOOTH",
"27 567 OFFCURVE",
"21 561 OFFCURVE",
"21 551 CURVE SMOOTH",
"21 452 LINE SMOOTH",
"21 442 OFFCURVE",
"27 436 OFFCURVE",
"37 436 CURVE SMOOTH",
"83 436 LINE SMOOTH",
"93 436 OFFCURVE",
"99 430 OFFCURVE",
"99 420 CURVE SMOOTH",
"99 113 LINE SMOOTH",
"99 41 OFFCURVE",
"147 0 OFFCURVE",
"230 0 CURVE SMOOTH"
);
}
);
};
layerId = "FD6EB2BB-8839-4CDB-86BF-4EEAE3F02079";
paths = (
{
closed = 1;
nodes = (
"314 0 LINE",
"338 136 LINE",
"275 136 LINE SMOOTH",
"252 136 OFFCURVE",
"246 147 OFFCURVE",
"246 160 CURVE SMOOTH",
"246 163 OFFCURVE",
"246 167 OFFCURVE",
"247 170 CURVE SMOOTH",
"294 436 LINE",
"392 436 LINE",
"415 567 LINE",
"317 567 LINE",
"352 763 LINE",
"184 763 LINE",
"149 567 LINE",
"71 567 LINE",
"48 436 LINE",
"126 436 LINE",
"69 113 LINE SMOOTH",
"67 104 OFFCURVE",
"67 96 OFFCURVE",
"67 88 CURVE SMOOTH",
"67 32 OFFCURVE",
"107 0 OFFCURVE",
"180 0 CURVE SMOOTH"
);
}
);
width = 398;
},
{
anchors = (
{
name = bottom;
position = "{156, 0}";
},
{
name = center;
position = "{185, 277}";
},
{
name = top;
position = "{245, 763}";
},
{
name = topright;
position = "{320, 690}";
}
);
layerId = "11907447-A26F-432E-A335-7727E0303767";
paths = (
{
closed = 1;
nodes = (
"275 0 LINE",
"288 75 LINE",
"231 75 LINE SMOOTH",
"187 75 OFFCURVE",
"175 91 OFFCURVE",
"175 118 CURVE SMOOTH",
"175 129 OFFCURVE",
"177 142 OFFCURVE",
"180 156 CURVE SMOOTH",
"237 478 LINE",
"361 478 LINE",
"374 553 LINE",
"250 553 LINE",
"287 763 LINE",
"202 763 LINE",
"165 553 LINE",
"76 553 LINE",
"63 478 LINE",
"152 478 LINE",
"92 139 LINE SMOOTH",
"89 121 OFFCURVE",
"87 105 OFFCURVE",
"87 91 CURVE SMOOTH",
"87 20 OFFCURVE",
"129 0 OFFCURVE",
"198 0 CURVE SMOOTH"
);
}
);
width = 361;
},
{
anchors = (
{
name = bottom;
position = "{148, 0}";
},
{
name = center;
position = "{176, 275}";
},
{
name = top;
position = "{235, 763}";
},
{
name = topright;
position = "{304, 679}";
}
);
layerId = "2F4EEC1B-9E89-4E08-AD53-AB625B6E887D";
paths = (
{
closed = 1;
nodes = (
"261 0 LINE",
"271 58 LINE",
"216 58 LINE SMOOTH",
"168 58 OFFCURVE",
"154 74 OFFCURVE",
"154 106 CURVE SMOOTH",
"154 118 OFFCURVE",
"156 133 OFFCURVE",
"159 151 CURVE SMOOTH",
"219 491 LINE",
"348 491 LINE",
"358 549 LINE",
"229 549 LINE",
"267 763 LINE",
"202 763 LINE",
"164 549 LINE",
"75 549 LINE",
"65 491 LINE",
"154 491 LINE",
"92 138 LINE SMOOTH",
"89 118 OFFCURVE",
"87 101 OFFCURVE",
"87 87 CURVE SMOOTH",
"87 19 OFFCURVE",
"123 0 OFFCURVE",
"191 0 CURVE SMOOTH"
);
}
);
width = 346;
}
);
leftKerningGroup = t;
note = t;
rightKerningGroup = t;
unicode = 0074;
},
{
color = 1;
glyphname = u;
lastChange = "2020-04-14 08:42:02 +0000";
layers = (
{
anchors = (
{
name = bottom;
position = "{262, 0}";
},
{
name = ogonek;
position = "{519, 0}";
},
{
name = top;
position = "{362, 567}";
},
{
name = topright;
position = "{654, 567}";
}
);
layerId = "FD6EB2BB-8839-4CDB-86BF-4EEAE3F02079";
paths = (
{
closed = 1;
nodes = (
"272 -12 OFFCURVE",
"319 10 OFFCURVE",
"362 61 CURVE",
"351 0 LINE",
"519 0 LINE",
"619 567 LINE",
"451 567 LINE",
"395 248 LINE SMOOTH",
"386 201 OFFCURVE",
"375 172 OFFCURVE",
"357 152 CURVE SMOOTH",
"339 133 OFFCURVE",
"314 123 OFFCURVE",
"277 123 CURVE SMOOTH",
"248 123 OFFCURVE",
"229 130 OFFCURVE",
"218 144 CURVE SMOOTH",
"211 154 OFFCURVE",
"207 169 OFFCURVE",
"207 190 CURVE SMOOTH",
"207 205 OFFCURVE",
"209 224 OFFCURVE",
"213 248 CURVE SMOOTH",
"269 567 LINE",
"101 567 LINE",
"45 250 LINE SMOOTH",
"36 196 OFFCURVE",
"31 163 OFFCURVE",
"31 136 CURVE SMOOTH",
"31 117 OFFCURVE",
"33 102 OFFCURVE",
"38 86 CURVE SMOOTH",
"56 21 OFFCURVE",
"111 -12 OFFCURVE",
"204 -12 CURVE SMOOTH"
);
}
);
width = 624;
},
{
anchors = (
{
name = bottom;
position = "{240, 0}";
},
{
name = ogonek;
position = "{458, 0}";
},
{
name = top;
position = "{338, 553}";
},
{
name = topright;
position = "{607, 553}";
}
);
layerId = "11907447-A26F-432E-A335-7727E0303767";
paths = (
{
closed = 1;
nodes = (
"271 -10 OFFCURVE",
"323 18 OFFCURVE",
"388 86 CURVE",
"373 0 LINE",
"458 0 LINE",
"556 553 LINE",
"471 553 LINE",
"429 317 LINE SMOOTH",
"409 204 OFFCURVE",
"384 144 OFFCURVE",
"342 106 CURVE SMOOTH",
"312 79 OFFCURVE",
"275 65 OFFCURVE",
"234 65 CURVE SMOOTH",
"195 65 OFFCURVE",
"169 75 OFFCURVE",
"154 96 CURVE SMOOTH",
"143 112 OFFCURVE",
"138 132 OFFCURVE",
"138 160 CURVE SMOOTH",
"138 178 OFFCURVE",
"140 197 OFFCURVE",
"144 220 CURVE SMOOTH",
"203 553 LINE",
"118 553 LINE",
"59 220 LINE SMOOTH",
"54 189 OFFCURVE",
"51 162 OFFCURVE",
"51 139 CURVE SMOOTH",
"51 115 OFFCURVE",
"54 94 OFFCURVE",
"60 77 CURVE SMOOTH",
"80 19 OFFCURVE",
"130 -10 OFFCURVE",
"207 -10 CURVE SMOOTH"
);
}
);
width = 578;
},
{
anchors = (
{
name = bottom;
position = "{231, 0}";
},
{
name = ogonek;
position = "{439, 0}";
},
{
name = top;
position = "{327, 549}";
},
{
name = topright;
position = "{586, 549}";
}
);
layerId = "2F4EEC1B-9E89-4E08-AD53-AB625B6E887D";
paths = (
{
closed = 1;
nodes = (
"270 -10 OFFCURVE",
"333 22 OFFCURVE",
"390 92 CURVE",
"374 0 LINE",
"439 0 LINE",
"535 549 LINE",
"470 549 LINE",
"432 332 LINE SMOOTH",
"411 214 OFFCURVE",
"379 139 OFFCURVE",
"329 93 CURVE SMOOTH",
"296 64 OFFCURVE",
"257 48 OFFCURVE",
"216 48 CURVE SMOOTH",
"171 48 OFFCURVE",
"140 65 OFFCURVE",
"125 99 CURVE SMOOTH",
"118 114 OFFCURVE",
"115 134 OFFCURVE",
"115 156 CURVE SMOOTH",
"115 172 OFFCURVE",
"117 190 OFFCURVE",
"120 209 CURVE SMOOTH",
"180 549 LINE",
"115 549 LINE",
"56 212 LINE SMOOTH",
"51 184 OFFCURVE",
"48 158 OFFCURVE",
"48 136 CURVE SMOOTH",
"48 112 OFFCURVE",
"52 91 OFFCURVE",
"59 74 CURVE SMOOTH",
"80 20 OFFCURVE",
"127 -10 OFFCURVE",
"192 -10 CURVE SMOOTH"
);
}
);
width = 558;
}
);
leftKerningGroup = u;
note = u;
rightKerningGroup = u;
unicode = 0075;
},
{
color = 1;
glyphname = v;
lastChange = "2020-04-14 09:44:05 +0000";
layers = (
{
anchors = (
{
name = bottom;
position = "{232, 0}";
},
{
name = top;
position = "{332, 567}";
}
);
guideLines = (
{
position = "{307, 334}";
}
);
layerId = "FD6EB2BB-8839-4CDB-86BF-4EEAE3F02079";
paths = (
{
closed = 1;
nodes = (
"298 0 LINE",
"608 567 LINE",
"420 567 LINE",
"264 249 LINE",
"224 567 LINE",
"56 567 LINE",
"165 0 LINE"
);
}
);
width = 564;
},
{
anchors = (
{
name = bottom;
position = "{211, 0}";
},
{
name = top;
position = "{309, 553}";
}
);
layerId = "11907447-A26F-432E-A335-7727E0303767";
paths = (
{
closed = 1;
nodes = (
"245 0 LINE",
"548 553 LINE",
"449 553 LINE",
"230 144 LINE",
"157 553 LINE",
"69 553 LINE",
"175 0 LINE"
);
}
);
width = 519;
},
{
anchors = (
{
name = bottom;
position = "{205, 0}";
},
{
name = top;
position = "{301, 549}";
}
);
layerId = "2F4EEC1B-9E89-4E08-AD53-AB625B6E887D";
paths = (
{
closed = 1;
nodes = (
"232 0 LINE",
"531 549 LINE",
"457 549 LINE",
"217 88 LINE",
"138 549 LINE",
"71 549 LINE",
"178 0 LINE"
);
}
);
width = 506;
}
);
leftKerningGroup = v;
note = v;
rightKerningGroup = v;
unicode = 0076;
},
{
color = 1;
glyphname = w;
lastChange = "2020-04-15 13:04:40 +0000";
layers = (
{
anchors = (
{
name = bottom;
position = "{379, 0}";
},
{
name = top;
position = "{479, 567}";
}
);
background = {
paths = (
{
closed = 1;
nodes = (
"346 0 LINE",
"430 341 LINE",
"510 0 LINE",
"669 0 LINE",
"850 567 LINE",
"672 567 LINE",
"586 239 LINE",
"500 567 LINE",
"356 567 LINE",
"271 237 LINE",
"188 567 LINE",
"9 567 LINE",
"186 0 LINE"
);
}
);
};
layerId = "FD6EB2BB-8839-4CDB-86BF-4EEAE3F02079";
paths = (
{
closed = 1;
nodes = (
"296 0 LINE",
"440 341 LINE",
"460 0 LINE",
"619 0 LINE",
"900 567 LINE",
"717 567 LINE",
"573 239 LINE",
"545 567 LINE",
"401 567 LINE",
"258 237 LINE",
"233 567 LINE",
"59 567 LINE",
"136 0 LINE"
);
}
);
width = 860;
},
{
anchors = (
{
name = bottom;
position = "{361, 0}";
},
{
name = top;
position = "{459, 553}";
}
);
layerId = "11907447-A26F-432E-A335-7727E0303767";
paths = (
{
closed = 1;
nodes = (
"217 0 LINE",
"438 433 LINE",
"503 0 LINE",
"582 0 LINE",
"844 553 LINE",
"750 553 LINE",
"560 138 LINE",
"494 553 LINE",
"417 553 LINE",
"205 138 LINE",
"162 553 LINE",
"74 553 LINE",
"138 0 LINE"
);
}
);
width = 820;
},
{
anchors = (
{
name = bottom;
position = "{354, 0}";
},
{
name = top;
position = "{450, 549}";
}
);
layerId = "2F4EEC1B-9E89-4E08-AD53-AB625B6E887D";
paths = (
{
closed = 1;
nodes = (
"197 0 LINE",
"436 463 LINE",
"510 0 LINE",
"571 0 LINE",
"826 549 LINE",
"755 549 LINE",
"552 98 LINE",
"477 549 LINE",
"417 549 LINE",
"184 99 LINE",
"140 549 LINE",
"75 549 LINE",
"137 0 LINE"
);
}
);
width = 805;
}
);
leftKerningGroup = w;
note = w;
rightKerningGroup = w;
unicode = 0077;
},
{
color = 1;
glyphname = x;
lastChange = "2020-04-14 09:45:10 +0000";
layers = (
{
anchors = (
{
name = bottom;
position = "{252, 0}";
},
{
name = top;
position = "{352, 567}";
}
);
layerId = "FD6EB2BB-8839-4CDB-86BF-4EEAE3F02079";
paths = (
{
closed = 1;
nodes = (
"152 0 LINE",
"286 173 LINE",
"360 0 LINE",
"547 0 LINE",
"406 287 LINE",
"648 567 LINE",
"449 567 LINE",
"314 398 LINE",
"242 567 LINE",
"57 567 LINE",
"196 287 LINE",
"-42 0 LINE"
);
}
);
width = 604;
},
{
anchors = (
{
name = bottom;
position = "{226, 0}";
},
{
name = top;
position = "{324, 553}";
}
);
layerId = "11907447-A26F-432E-A335-7727E0303767";
paths = (
{
closed = 1;
nodes = (
"77 0 LINE",
"269 217 LINE",
"384 0 LINE",
"481 0 LINE",
"328 277 LINE",
"579 553 LINE",
"472 553 LINE",
"279 336 LINE",
"165 553 LINE",
"69 553 LINE",
"219 277 LINE",
"-29 0 LINE"
);
}
);
width = 550;
},
{
anchors = (
{
name = bottom;
position = "{222, 0}";
},
{
name = top;
position = "{318, 549}";
}
);
layerId = "2F4EEC1B-9E89-4E08-AD53-AB625B6E887D";
paths = (
{
closed = 1;
nodes = (
"56 0 LINE",
"265 232 LINE",
"393 0 LINE",
"469 0 LINE",
"311 276 LINE",
"564 549 LINE",
"482 549 LINE",
"274 318 LINE",
"145 549 LINE",
"71 549 LINE",
"227 276 LINE",
"-25 0 LINE"
);
}
);
width = 541;
}
);
leftKerningGroup = x;
note = x;
rightKerningGroup = x;
unicode = 0078;
},
{
color = 1;
glyphname = y;
lastChange = "2020-04-14 09:45:27 +0000";
layers = (
{
anchors = (
{
name = bottom;
position = "{237, 0}";
},
{
name = top;
position = "{332, 567}";
}
);
layerId = "FD6EB2BB-8839-4CDB-86BF-4EEAE3F02079";
paths = (
{
closed = 1;
nodes = (
"85 -196 LINE SMOOTH",
"194 -196 OFFCURVE",
"252 -149 OFFCURVE",
"310 -36 CURVE SMOOTH",
"617 567 LINE",
"431 567 LINE",
"268 165 LINE",
"232 567 LINE",
"57 567 LINE",
"157 -8 LINE",
"149 -20 LINE SMOOTH",
"127 -53 OFFCURVE",
"105 -59 OFFCURVE",
"77 -59 CURVE SMOOTH",
"9 -59 LINE",
"-16 -196 LINE"
);
}
);
width = 576;
},
{
anchors = (
{
name = bottom;
position = "{225, 0}";
},
{
name = top;
position = "{323, 553}";
}
);
layerId = "11907447-A26F-432E-A335-7727E0303767";
paths = (
{
closed = 1;
nodes = (
"67 -210 LINE SMOOTH",
"133 -210 OFFCURVE",
"171 -192 OFFCURVE",
"215 -111 CURVE SMOOTH",
"577 553 LINE",
"480 553 LINE",
"248 124 LINE",
"156 553 LINE",
"67 553 LINE",
"187 8 LINE",
"142 -74 LINE SMOOTH",
"113 -128 OFFCURVE",
"96 -132 OFFCURVE",
"51 -132 CURVE SMOOTH",
"-1 -132 LINE",
"-15 -210 LINE"
);
}
);
width = 549;
},
{
anchors = (
{
name = bottom;
position = "{223, 0}";
},
{
name = top;
position = "{319, 549}";
}
);
layerId = "2F4EEC1B-9E89-4E08-AD53-AB625B6E887D";
paths = (
{
closed = 1;
nodes = (
"71 -214 LINE SMOOTH",
"105 -214 OFFCURVE",
"156 -206 OFFCURVE",
"201 -123 CURVE SMOOTH",
"567 549 LINE",
"492 549 LINE",
"245 88 LINE",
"137 549 LINE",
"68 549 LINE",
"200 5 LINE",
"142 -101 LINE SMOOTH",
"118 -145 OFFCURVE",
"97 -155 OFFCURVE",
"51 -155 CURVE SMOOTH",
"-9 -155 LINE",
"-19 -214 LINE"
);
}
);
width = 542;
}
);
leftKerningGroup = y;
note = y;
rightKerningGroup = y;
unicode = 0079;
},
{
color = 1;
glyphname = z;
lastChange = "2020-04-14 08:31:16 +0000";
layers = (
{
anchors = (
{
name = bottom;
position = "{237, 0}";
},
{
name = center;
position = "{287, 284}";
},
{
name = top;
position = "{337, 567}";
}
);
layerId = "FD6EB2BB-8839-4CDB-86BF-4EEAE3F02079";
paths = (
{
closed = 1;
nodes = (
"486 0 LINE",
"509 132 LINE",
"230 132 LINE",
"567 458 LINE",
"586 567 LINE",
"95 567 LINE",
"72 435 LINE",
"347 435 LINE",
"-3 101 LINE",
"-21 0 LINE"
);
}
);
width = 570;
},
{
anchors = (
{
name = bottom;
position = "{219, 0}";
},
{
name = center;
position = "{268, 277}";
},
{
name = top;
position = "{317, 553}";
}
);
layerId = "11907447-A26F-432E-A335-7727E0303767";
paths = (
{
closed = 1;
nodes = (
"445 0 LINE",
"458 75 LINE",
"108 75 LINE",
"532 473 LINE",
"546 553 LINE",
"102 553 LINE",
"89 478 LINE",
"430 478 LINE",
"-2 72 LINE",
"-15 0 LINE"
);
}
);
width = 533;
},
{
anchors = (
{
name = bottom;
position = "{214, 0}";
},
{
name = center;
position = "{262, 275}";
},
{
name = top;
position = "{310, 549}";
}
);
layerId = "2F4EEC1B-9E89-4E08-AD53-AB625B6E887D";
paths = (
{
closed = 1;
nodes = (
"433 0 LINE",
"443 58 LINE",
"78 58 LINE",
"522 485 LINE",
"533 549 LINE",
"101 549 LINE",
"91 491 LINE",
"447 491 LINE",
"-4 59 LINE",
"-14 0 LINE"
);
}
);
width = 521;
}
);
leftKerningGroup = z;
note = z;
rightKerningGroup = z;
unicode = 007A;
},
{
color = 1;
glyphname = s_a_u_c_e_l_o_g_o.liga;
lastChange = "2020-04-14 08:31:28 +0000";
layers = (
{
layerId = "FD6EB2BB-8839-4CDB-86BF-4EEAE3F02079";
paths = (
{
closed = 1;
nodes = (
"763 0 LINE SMOOTH",
"769 0 OFFCURVE",
"774 4 OFFCURVE",
"775 10 CURVE SMOOTH",
"906 753 LINE SMOOTH",
"907 759 OFFCURVE",
"904 763 OFFCURVE",
"898 763 CURVE SMOOTH",
"154 763 LINE SMOOTH",
"148 763 OFFCURVE",
"144 759 OFFCURVE",
"143 753 CURVE SMOOTH",
"12 10 LINE SMOOTH",
"11 4 OFFCURVE",
"13 0 OFFCURVE",
"19 0 CURVE SMOOTH"
);
},
{
closed = 1;
nodes = (
"428 339 OFFCURVE",
"411 359 OFFCURVE",
"415 382 CURVE SMOOTH",
"419 404 OFFCURVE",
"443 424 OFFCURVE",
"466 424 CURVE SMOOTH",
"479 424 OFFCURVE",
"490 419 OFFCURVE",
"495 409 CURVE",
"489 403 LINE",
"483 411 OFFCURVE",
"474 416 OFFCURVE",
"464 416 CURVE SMOOTH",
"446 416 OFFCURVE",
"428 400 OFFCURVE",
"424 382 CURVE SMOOTH",
"421 363 OFFCURVE",
"434 347 OFFCURVE",
"452 347 CURVE SMOOTH",
"462 347 OFFCURVE",
"473 352 OFFCURVE",
"480 360 CURVE",
"485 354 LINE",
"477 344 OFFCURVE",
"464 339 OFFCURVE",
"451 339 CURVE SMOOTH"
);
},
{
closed = 1;
nodes = (
"144 79 OFFCURVE",
"130 84 OFFCURVE",
"121 95 CURVE SMOOTH",
"112 107 OFFCURVE",
"109 121 OFFCURVE",
"112 136 CURVE SMOOTH",
"115 151 OFFCURVE",
"122 166 OFFCURVE",
"135 176 CURVE SMOOTH",
"186 221 OFFCURVE",
"226 186 OFFCURVE",
"363 306 CURVE SMOOTH",
"394 333 LINE SMOOTH",
"400 339 OFFCURVE",
"400 343 OFFCURVE",
"399 349 CURVE SMOOTH",
"396 355 OFFCURVE",
"395 361 OFFCURVE",
"394 366 CURVE SMOOTH",
"393 373 OFFCURVE",
"389 377 OFFCURVE",
"383 377 CURVE SMOOTH",
"347 377 LINE SMOOTH",
"240 377 OFFCURVE",
"229 345 OFFCURVE",
"190 345 CURVE SMOOTH",
"171 345 OFFCURVE",
"157 362 OFFCURVE",
"160 382 CURVE SMOOTH",
"164 401 OFFCURVE",
"184 419 OFFCURVE",
"203 419 CURVE SMOOTH",
"242 419 OFFCURVE",
"242 387 OFFCURVE",
"349 387 CURVE SMOOTH",
"385 387 LINE SMOOTH",
"391 387 OFFCURVE",
"396 391 OFFCURVE",
"399 398 CURVE SMOOTH",
"402 403 OFFCURVE",
"405 409 OFFCURVE",
"409 414 CURVE SMOOTH",
"412 417 OFFCURVE",
"413 420 OFFCURVE",
"413 422 CURVE SMOOTH",
"414 425 OFFCURVE",
"413 427 OFFCURVE",
"411 430 CURVE SMOOTH",
"389 455 LINE SMOOTH",
"290 572 OFFCURVE",
"243 541 OFFCURVE",
"208 585 CURVE SMOOTH",
"199 596 OFFCURVE",
"197 611 OFFCURVE",
"199 626 CURVE SMOOTH",
"202 641 OFFCURVE",
"210 656 OFFCURVE",
"224 668 CURVE SMOOTH",
"237 678 OFFCURVE",
"252 684 OFFCURVE",
"267 684 CURVE SMOOTH",
"283 684 OFFCURVE",
"296 678 OFFCURVE",
"304 668 CURVE SMOOTH",
"341 624 OFFCURVE",
"299 579 OFFCURVE",
"398 462 CURVE SMOOTH",
"419 438 LINE SMOOTH",
"423 433 OFFCURVE",
"429 432 OFFCURVE",
"436 436 CURVE SMOOTH",
"442 440 OFFCURVE",
"448 441 OFFCURVE",
"454 443 CURVE SMOOTH",
"460 445 OFFCURVE",
"465 449 OFFCURVE",
"466 456 CURVE SMOOTH",
"473 492 LINE SMOOTH",
"491 598 OFFCURVE",
"462 604 OFFCURVE",
"468 643 CURVE SMOOTH",
"472 662 OFFCURVE",
"492 679 OFFCURVE",
"512 679 CURVE SMOOTH",
"531 679 OFFCURVE",
"545 662 OFFCURVE",
"541 643 CURVE SMOOTH",
"535 604 OFFCURVE",
"502 598 OFFCURVE",
"484 492 CURVE SMOOTH",
"477 456 LINE SMOOTH",
"476 449 OFFCURVE",
"479 445 OFFCURVE",
"485 443 CURVE SMOOTH",
"491 441 OFFCURVE",
"496 439 OFFCURVE",
"501 436 CURVE SMOOTH",
"504 434 OFFCURVE",
"506 434 OFFCURVE",
"508 434 CURVE SMOOTH",
"512 434 OFFCURVE",
"515 435 OFFCURVE",
"517 438 CURVE SMOOTH",
"546 462 LINE SMOOTH",
"685 580 OFFCURVE",
"661 624 OFFCURVE",
"714 668 CURVE SMOOTH",
"726 678 OFFCURVE",
"740 683 OFFCURVE",
"756 683 CURVE SMOOTH",
"771 683 OFFCURVE",
"786 678 OFFCURVE",
"795 667 CURVE SMOOTH",
"804 656 OFFCURVE",
"807 641 OFFCURVE",
"804 626 CURVE SMOOTH",
"802 611 OFFCURVE",
"793 597 OFFCURVE",
"780 585 CURVE SMOOTH",
"729 541 OFFCURVE",
"692 573 OFFCURVE",
"553 455 CURVE SMOOTH",
"523 429 LINE SMOOTH",
"519 426 OFFCURVE",
"518 423 OFFCURVE",
"517 421 CURVE SMOOTH",
"517 419 OFFCURVE",
"517 416 OFFCURVE",
"519 413 CURVE SMOOTH",
"521 408 OFFCURVE",
"522 403 OFFCURVE",
"523 398 CURVE SMOOTH",
"524 391 OFFCURVE",
"527 387 OFFCURVE",
"533 387 CURVE SMOOTH",
"569 387 LINE SMOOTH",
"676 387 OFFCURVE",
"688 419 OFFCURVE",
"727 419 CURVE SMOOTH",
"746 419 OFFCURVE",
"760 401 OFFCURVE",
"756 382 CURVE SMOOTH",
"753 362 OFFCURVE",
"733 345 OFFCURVE",
"714 345 CURVE SMOOTH",
"675 345 OFFCURVE",
"674 377 OFFCURVE",
"567 377 CURVE SMOOTH",
"531 377 LINE SMOOTH",
"525 377 OFFCURVE",
"521 373 OFFCURVE",
"518 366 CURVE SMOOTH",
"515 360 OFFCURVE",
"511 354 OFFCURVE",
"507 348 CURVE SMOOTH",
"505 345 OFFCURVE",
"503 342 OFFCURVE",
"503 341 CURVE SMOOTH",
"503 338 OFFCURVE",
"503 335 OFFCURVE",
"506 332 CURVE SMOOTH",
"527 306 LINE SMOOTH",
"624 188 OFFCURVE",
"674 221 OFFCURVE",
"709 176 CURVE SMOOTH",
"718 166 OFFCURVE",
"721 151 OFFCURVE",
"718 136 CURVE SMOOTH",
"715 121 OFFCURVE",
"708 106 OFFCURVE",
"694 94 CURVE SMOOTH",
"682 84 OFFCURVE",
"666 79 OFFCURVE",
"650 79 CURVE SMOOTH",
"635 79 OFFCURVE",
"622 84 OFFCURVE",
"613 94 CURVE SMOOTH",
"576 138 OFFCURVE",
"615 181 OFFCURVE",
"518 299 CURVE SMOOTH",
"496 325 LINE SMOOTH",
"494 328 OFFCURVE",
"491 329 OFFCURVE",
"488 329 CURVE SMOOTH",
"486 329 OFFCURVE",
"483 328 OFFCURVE",
"479 326 CURVE SMOOTH",
"475 323 OFFCURVE",
"470 322 OFFCURVE",
"463 320 CURVE SMOOTH",
"457 318 OFFCURVE",
"452 314 OFFCURVE",
"451 307 CURVE SMOOTH",
"445 271 LINE SMOOTH",
"426 165 OFFCURVE",
"456 159 OFFCURVE",
"449 120 CURVE SMOOTH",
"446 101 OFFCURVE",
"426 84 OFFCURVE",
"406 84 CURVE SMOOTH",
"387 84 OFFCURVE",
"373 101 OFFCURVE",
"376 120 CURVE SMOOTH",
"383 159 OFFCURVE",
"415 165 OFFCURVE",
"434 271 CURVE SMOOTH",
"440 307 LINE SMOOTH",
"441 314 OFFCURVE",
"438 318 OFFCURVE",
"432 320 CURVE SMOOTH",
"427 321 OFFCURVE",
"421 323 OFFCURVE",
"416 326 CURVE SMOOTH",
"414 328 OFFCURVE",
"411 329 OFFCURVE",
"408 329 CURVE SMOOTH",
"405 329 OFFCURVE",
"403 328 OFFCURVE",
"399 325 CURVE SMOOTH",
"370 299 LINE SMOOTH",
"233 179 OFFCURVE",
"254 138 OFFCURVE",
"203 94 CURVE SMOOTH",
"191 84 OFFCURVE",
"175 79 OFFCURVE",
"160 79 CURVE SMOOTH"
);
},
{
closed = 1;
nodes = (
"479 327 OFFCURVE",
"507 352 OFFCURVE",
"512 382 CURVE SMOOTH",
"517 411 OFFCURVE",
"498 436 OFFCURVE",
"468 436 CURVE SMOOTH",
"439 436 OFFCURVE",
"409 411 OFFCURVE",
"404 382 CURVE SMOOTH",
"399 352 OFFCURVE",
"420 327 OFFCURVE",
"449 327 CURVE SMOOTH"
);
}
);
width = 884;
},
{
layerId = "11907447-A26F-432E-A335-7727E0303767";
paths = (
{
closed = 1;
nodes = (
"783 0 LINE SMOOTH",
"789 0 OFFCURVE",
"794 4 OFFCURVE",
"795 10 CURVE SMOOTH",
"926 753 LINE SMOOTH",
"927 759 OFFCURVE",
"924 763 OFFCURVE",
"918 763 CURVE SMOOTH",
"174 763 LINE SMOOTH",
"168 763 OFFCURVE",
"164 759 OFFCURVE",
"163 753 CURVE SMOOTH",
"32 10 LINE SMOOTH",
"31 4 OFFCURVE",
"33 0 OFFCURVE",
"39 0 CURVE SMOOTH"
);
},
{
closed = 1;
nodes = (
"448 339 OFFCURVE",
"432 359 OFFCURVE",
"436 382 CURVE SMOOTH",
"439 404 OFFCURVE",
"463 424 OFFCURVE",
"486 424 CURVE SMOOTH",
"499 424 OFFCURVE",
"510 419 OFFCURVE",
"515 409 CURVE",
"509 403 LINE",
"504 411 OFFCURVE",
"495 416 OFFCURVE",
"485 416 CURVE SMOOTH",
"467 416 OFFCURVE",
"448 400 OFFCURVE",
"445 382 CURVE SMOOTH",
"441 363 OFFCURVE",
"454 347 OFFCURVE",
"472 347 CURVE SMOOTH",
"482 347 OFFCURVE",
"493 352 OFFCURVE",
"501 360 CURVE",
"506 354 LINE",
"497 344 OFFCURVE",
"484 339 OFFCURVE",
"471 339 CURVE SMOOTH"
);
},
{
closed = 1;
nodes = (
"164 79 OFFCURVE",
"150 84 OFFCURVE",
"141 95 CURVE SMOOTH",
"132 107 OFFCURVE",
"130 121 OFFCURVE",
"132 136 CURVE SMOOTH",
"135 151 OFFCURVE",
"143 166 OFFCURVE",
"155 176 CURVE SMOOTH",
"206 221 OFFCURVE",
"246 186 OFFCURVE",
"383 306 CURVE SMOOTH",
"414 333 LINE SMOOTH",
"420 339 OFFCURVE",
"421 343 OFFCURVE",
"419 349 CURVE SMOOTH",
"416 355 OFFCURVE",
"415 361 OFFCURVE",
"414 366 CURVE SMOOTH",
"413 373 OFFCURVE",
"410 377 OFFCURVE",
"404 377 CURVE SMOOTH",
"368 377 LINE SMOOTH",
"261 377 OFFCURVE",
"249 345 OFFCURVE",
"210 345 CURVE SMOOTH",
"191 345 OFFCURVE",
"177 362 OFFCURVE",
"181 382 CURVE SMOOTH",
"184 401 OFFCURVE",
"204 419 OFFCURVE",
"223 419 CURVE SMOOTH",
"262 419 OFFCURVE",
"262 387 OFFCURVE",
"369 387 CURVE SMOOTH",
"405 387 LINE SMOOTH",
"411 387 OFFCURVE",
"416 391 OFFCURVE",
"419 398 CURVE SMOOTH",
"422 403 OFFCURVE",
"425 409 OFFCURVE",
"429 414 CURVE SMOOTH",
"432 417 OFFCURVE",
"433 420 OFFCURVE",
"434 422 CURVE SMOOTH",
"434 425 OFFCURVE",
"434 427 OFFCURVE",
"431 430 CURVE SMOOTH",
"409 455 LINE SMOOTH",
"310 572 OFFCURVE",
"264 541 OFFCURVE",
"228 585 CURVE SMOOTH",
"219 596 OFFCURVE",
"217 611 OFFCURVE",
"220 626 CURVE SMOOTH",
"222 641 OFFCURVE",
"230 656 OFFCURVE",
"244 668 CURVE SMOOTH",
"257 678 OFFCURVE",
"272 684 OFFCURVE",
"287 684 CURVE SMOOTH",
"303 684 OFFCURVE",
"316 678 OFFCURVE",
"324 668 CURVE SMOOTH",
"361 624 OFFCURVE",
"319 579 OFFCURVE",
"419 462 CURVE SMOOTH",
"439 438 LINE SMOOTH",
"444 433 OFFCURVE",
"449 432 OFFCURVE",
"456 436 CURVE SMOOTH",
"462 440 OFFCURVE",
"468 441 OFFCURVE",
"474 443 CURVE SMOOTH",
"481 445 OFFCURVE",
"485 449 OFFCURVE",
"487 456 CURVE SMOOTH",
"493 492 LINE SMOOTH",
"512 598 OFFCURVE",
"482 604 OFFCURVE",
"489 643 CURVE SMOOTH",
"492 662 OFFCURVE",
"512 679 OFFCURVE",
"532 679 CURVE SMOOTH",
"551 679 OFFCURVE",
"565 662 OFFCURVE",
"562 643 CURVE SMOOTH",
"555 604 OFFCURVE",
"523 598 OFFCURVE",
"504 492 CURVE SMOOTH",
"498 456 LINE SMOOTH",
"496 449 OFFCURVE",
"500 445 OFFCURVE",
"505 443 CURVE SMOOTH",
"511 441 OFFCURVE",
"517 439 OFFCURVE",
"521 436 CURVE SMOOTH",
"524 434 OFFCURVE",
"526 434 OFFCURVE",
"528 434 CURVE SMOOTH",
"532 434 OFFCURVE",
"535 435 OFFCURVE",
"537 438 CURVE SMOOTH",
"567 462 LINE SMOOTH",
"706 580 OFFCURVE",
"681 624 OFFCURVE",
"734 668 CURVE SMOOTH",
"746 678 OFFCURVE",
"761 683 OFFCURVE",
"777 683 CURVE SMOOTH",
"792 683 OFFCURVE",
"806 678 OFFCURVE",
"815 667 CURVE SMOOTH",
"824 656 OFFCURVE",
"827 641 OFFCURVE",
"825 626 CURVE SMOOTH",
"822 611 OFFCURVE",
"814 597 OFFCURVE",
"800 585 CURVE SMOOTH",
"750 541 OFFCURVE",
"712 573 OFFCURVE",
"573 455 CURVE SMOOTH",
"543 429 LINE SMOOTH",
"539 426 OFFCURVE",
"538 423 OFFCURVE",
"537 421 CURVE SMOOTH",
"537 419 OFFCURVE",
"538 416 OFFCURVE",
"539 413 CURVE SMOOTH",
"541 408 OFFCURVE",
"542 403 OFFCURVE",
"543 398 CURVE SMOOTH",
"544 391 OFFCURVE",
"547 387 OFFCURVE",
"553 387 CURVE SMOOTH",
"589 387 LINE SMOOTH",
"696 387 OFFCURVE",
"708 419 OFFCURVE",
"747 419 CURVE SMOOTH",
"766 419 OFFCURVE",
"780 401 OFFCURVE",
"777 382 CURVE SMOOTH",
"773 362 OFFCURVE",
"753 345 OFFCURVE",
"734 345 CURVE SMOOTH",
"695 345 OFFCURVE",
"695 377 OFFCURVE",
"588 377 CURVE SMOOTH",
"552 377 LINE SMOOTH",
"546 377 OFFCURVE",
"541 373 OFFCURVE",
"538 366 CURVE SMOOTH",
"536 360 OFFCURVE",
"532 354 OFFCURVE",
"528 348 CURVE SMOOTH",
"525 345 OFFCURVE",
"524 342 OFFCURVE",
"523 341 CURVE SMOOTH",
"523 338 OFFCURVE",
"523 335 OFFCURVE",
"526 332 CURVE SMOOTH",
"547 306 LINE SMOOTH",
"644 188 OFFCURVE",
"694 221 OFFCURVE",
"729 176 CURVE SMOOTH",
"739 166 OFFCURVE",
"741 151 OFFCURVE",
"738 136 CURVE SMOOTH",
"736 121 OFFCURVE",
"728 106 OFFCURVE",
"714 94 CURVE SMOOTH",
"702 84 OFFCURVE",
"686 79 OFFCURVE",
"670 79 CURVE SMOOTH",
"655 79 OFFCURVE",
"642 84 OFFCURVE",
"633 94 CURVE SMOOTH",
"597 138 OFFCURVE",
"635 181 OFFCURVE",
"538 299 CURVE SMOOTH",
"517 325 LINE SMOOTH",
"514 328 OFFCURVE",
"511 329 OFFCURVE",
"508 329 CURVE SMOOTH",
"506 329 OFFCURVE",
"503 328 OFFCURVE",
"500 326 CURVE SMOOTH",
"495 323 OFFCURVE",
"490 322 OFFCURVE",
"484 320 CURVE SMOOTH",
"477 318 OFFCURVE",
"473 314 OFFCURVE",
"471 307 CURVE SMOOTH",
"465 271 LINE SMOOTH",
"446 165 OFFCURVE",
"476 159 OFFCURVE",
"469 120 CURVE SMOOTH",
"466 101 OFFCURVE",
"446 84 OFFCURVE",
"426 84 CURVE SMOOTH",
"407 84 OFFCURVE",
"393 101 OFFCURVE",
"396 120 CURVE SMOOTH",
"403 159 OFFCURVE",
"435 165 OFFCURVE",
"454 271 CURVE SMOOTH",
"460 307 LINE SMOOTH",
"462 314 OFFCURVE",
"458 318 OFFCURVE",
"453 320 CURVE SMOOTH",
"447 321 OFFCURVE",
"441 323 OFFCURVE",
"437 326 CURVE SMOOTH",
"434 328 OFFCURVE",
"431 329 OFFCURVE",
"428 329 CURVE SMOOTH",
"425 329 OFFCURVE",
"423 328 OFFCURVE",
"420 325 CURVE SMOOTH",
"390 299 LINE SMOOTH",
"253 179 OFFCURVE",
"275 138 OFFCURVE",
"223 94 CURVE SMOOTH",
"211 84 OFFCURVE",
"195 79 OFFCURVE",
"180 79 CURVE SMOOTH"
);
},
{
closed = 1;
nodes = (
"499 327 OFFCURVE",
"527 352 OFFCURVE",
"533 382 CURVE SMOOTH",
"538 411 OFFCURVE",
"518 436 OFFCURVE",
"488 436 CURVE SMOOTH",
"459 436 OFFCURVE",
"430 411 OFFCURVE",
"425 382 CURVE SMOOTH",
"419 352 OFFCURVE",
"440 327 OFFCURVE",
"469 327 CURVE SMOOTH"
);
}
);
width = 921;
},
{
layerId = "2F4EEC1B-9E89-4E08-AD53-AB625B6E887D";
paths = (
{
closed = 1;
nodes = (
"784 0 LINE SMOOTH",
"790 0 OFFCURVE",
"794 4 OFFCURVE",
"795 10 CURVE SMOOTH",
"926 753 LINE SMOOTH",
"927 759 OFFCURVE",
"924 763 OFFCURVE",
"918 763 CURVE SMOOTH",
"174 763 LINE SMOOTH",
"168 763 OFFCURVE",
"164 759 OFFCURVE",
"163 753 CURVE SMOOTH",
"32 10 LINE SMOOTH",
"31 4 OFFCURVE",
"34 0 OFFCURVE",
"40 0 CURVE SMOOTH"
);
},
{
closed = 1;
nodes = (
"448 339 OFFCURVE",
"432 359 OFFCURVE",
"436 382 CURVE SMOOTH",
"440 404 OFFCURVE",
"463 424 OFFCURVE",
"486 424 CURVE SMOOTH",
"499 424 OFFCURVE",
"510 419 OFFCURVE",
"516 409 CURVE",
"510 403 LINE",
"504 411 OFFCURVE",
"495 416 OFFCURVE",
"485 416 CURVE SMOOTH",
"467 416 OFFCURVE",
"448 400 OFFCURVE",
"445 382 CURVE SMOOTH",
"442 363 OFFCURVE",
"455 347 OFFCURVE",
"473 347 CURVE SMOOTH",
"483 347 OFFCURVE",
"494 352 OFFCURVE",
"501 360 CURVE",
"506 354 LINE",
"497 344 OFFCURVE",
"484 339 OFFCURVE",
"471 339 CURVE SMOOTH"
);
},
{
closed = 1;
nodes = (
"165 79 OFFCURVE",
"150 84 OFFCURVE",
"141 95 CURVE SMOOTH",
"132 107 OFFCURVE",
"130 121 OFFCURVE",
"133 136 CURVE SMOOTH",
"135 151 OFFCURVE",
"143 166 OFFCURVE",
"156 176 CURVE SMOOTH",
"207 221 OFFCURVE",
"246 186 OFFCURVE",
"384 306 CURVE SMOOTH",
"414 333 LINE SMOOTH",
"420 339 OFFCURVE",
"421 343 OFFCURVE",
"419 349 CURVE SMOOTH",
"416 355 OFFCURVE",
"415 361 OFFCURVE",
"414 366 CURVE SMOOTH",
"413 373 OFFCURVE",
"410 377 OFFCURVE",
"404 377 CURVE SMOOTH",
"368 377 LINE SMOOTH",
"261 377 OFFCURVE",
"249 345 OFFCURVE",
"210 345 CURVE SMOOTH",
"191 345 OFFCURVE",
"177 362 OFFCURVE",
"181 382 CURVE SMOOTH",
"184 401 OFFCURVE",
"204 419 OFFCURVE",
"223 419 CURVE SMOOTH",
"262 419 OFFCURVE",
"263 387 OFFCURVE",
"370 387 CURVE SMOOTH",
"406 387 LINE SMOOTH",
"412 387 OFFCURVE",
"417 391 OFFCURVE",
"420 398 CURVE SMOOTH",
"423 403 OFFCURVE",
"426 409 OFFCURVE",
"430 414 CURVE SMOOTH",
"432 417 OFFCURVE",
"434 420 OFFCURVE",
"434 422 CURVE SMOOTH",
"435 425 OFFCURVE",
"434 427 OFFCURVE",
"431 430 CURVE SMOOTH",
"410 455 LINE SMOOTH",
"310 572 OFFCURVE",
"264 541 OFFCURVE",
"229 585 CURVE SMOOTH",
"220 596 OFFCURVE",
"217 611 OFFCURVE",
"220 626 CURVE SMOOTH",
"223 641 OFFCURVE",
"230 656 OFFCURVE",
"244 668 CURVE SMOOTH",
"257 678 OFFCURVE",
"272 684 OFFCURVE",
"287 684 CURVE SMOOTH",
"303 684 OFFCURVE",
"316 678 OFFCURVE",
"324 668 CURVE SMOOTH",
"362 624 OFFCURVE",
"320 579 OFFCURVE",
"419 462 CURVE SMOOTH",
"440 438 LINE SMOOTH",
"444 433 OFFCURVE",
"450 432 OFFCURVE",
"456 436 CURVE SMOOTH",
"462 440 OFFCURVE",
"468 441 OFFCURVE",
"475 443 CURVE SMOOTH",
"481 445 OFFCURVE",
"486 449 OFFCURVE",
"487 456 CURVE SMOOTH",
"493 492 LINE SMOOTH",
"512 598 OFFCURVE",
"482 604 OFFCURVE",
"489 643 CURVE SMOOTH",
"492 662 OFFCURVE",
"512 679 OFFCURVE",
"532 679 CURVE SMOOTH",
"551 679 OFFCURVE",
"565 662 OFFCURVE",
"562 643 CURVE SMOOTH",
"555 604 OFFCURVE",
"523 598 OFFCURVE",
"504 492 CURVE SMOOTH",
"498 456 LINE SMOOTH",
"497 449 OFFCURVE",
"500 445 OFFCURVE",
"506 443 CURVE SMOOTH",
"511 441 OFFCURVE",
"517 439 OFFCURVE",
"521 436 CURVE SMOOTH",
"524 434 OFFCURVE",
"526 434 OFFCURVE",
"528 434 CURVE SMOOTH",
"532 434 OFFCURVE",
"535 435 OFFCURVE",
"538 438 CURVE SMOOTH",
"567 462 LINE SMOOTH",
"706 580 OFFCURVE",
"682 624 OFFCURVE",
"734 668 CURVE SMOOTH",
"746 678 OFFCURVE",
"761 683 OFFCURVE",
"777 683 CURVE SMOOTH",
"792 683 OFFCURVE",
"806 678 OFFCURVE",
"815 667 CURVE SMOOTH",
"824 656 OFFCURVE",
"828 641 OFFCURVE",
"825 626 CURVE SMOOTH",
"822 611 OFFCURVE",
"814 597 OFFCURVE",
"801 585 CURVE SMOOTH",
"750 541 OFFCURVE",
"713 573 OFFCURVE",
"574 455 CURVE SMOOTH",
"543 429 LINE SMOOTH",
"540 426 OFFCURVE",
"538 423 OFFCURVE",
"538 421 CURVE SMOOTH",
"537 419 OFFCURVE",
"538 416 OFFCURVE",
"539 413 CURVE SMOOTH",
"542 408 OFFCURVE",
"543 403 OFFCURVE",
"544 398 CURVE SMOOTH",
"545 391 OFFCURVE",
"548 387 OFFCURVE",
"554 387 CURVE SMOOTH",
"590 387 LINE SMOOTH",
"697 387 OFFCURVE",
"708 419 OFFCURVE",
"747 419 CURVE SMOOTH",
"766 419 OFFCURVE",
"780 401 OFFCURVE",
"777 382 CURVE SMOOTH",
"773 362 OFFCURVE",
"753 345 OFFCURVE",
"734 345 CURVE SMOOTH",
"695 345 OFFCURVE",
"695 377 OFFCURVE",
"588 377 CURVE SMOOTH",
"552 377 LINE SMOOTH",
"546 377 OFFCURVE",
"541 373 OFFCURVE",
"538 366 CURVE SMOOTH",
"536 360 OFFCURVE",
"532 354 OFFCURVE",
"528 348 CURVE SMOOTH",
"525 345 OFFCURVE",
"524 342 OFFCURVE",
"524 341 CURVE SMOOTH",
"523 338 OFFCURVE",
"524 335 OFFCURVE",
"526 332 CURVE SMOOTH",
"548 306 LINE SMOOTH",
"645 188 OFFCURVE",
"695 221 OFFCURVE",
"730 176 CURVE SMOOTH",
"739 166 OFFCURVE",
"741 151 OFFCURVE",
"739 136 CURVE SMOOTH",
"736 121 OFFCURVE",
"728 106 OFFCURVE",
"714 94 CURVE SMOOTH",
"702 84 OFFCURVE",
"687 79 OFFCURVE",
"671 79 CURVE SMOOTH",
"656 79 OFFCURVE",
"642 84 OFFCURVE",
"633 94 CURVE SMOOTH",
"597 138 OFFCURVE",
"636 181 OFFCURVE",
"538 299 CURVE SMOOTH",
"517 325 LINE SMOOTH",
"514 328 OFFCURVE",
"512 329 OFFCURVE",
"509 329 CURVE SMOOTH",
"507 329 OFFCURVE",
"503 328 OFFCURVE",
"500 326 CURVE SMOOTH",
"496 323 OFFCURVE",
"490 322 OFFCURVE",
"484 320 CURVE SMOOTH",
"478 318 OFFCURVE",
"473 314 OFFCURVE",
"472 307 CURVE SMOOTH",
"465 271 LINE SMOOTH",
"447 165 OFFCURVE",
"477 159 OFFCURVE",
"470 120 CURVE SMOOTH",
"466 101 OFFCURVE",
"446 84 OFFCURVE",
"426 84 CURVE SMOOTH",
"407 84 OFFCURVE",
"393 101 OFFCURVE",
"397 120 CURVE SMOOTH",
"404 159 OFFCURVE",
"436 165 OFFCURVE",
"454 271 CURVE SMOOTH",
"461 307 LINE SMOOTH",
"462 314 OFFCURVE",
"459 318 OFFCURVE",
"453 320 CURVE SMOOTH",
"447 321 OFFCURVE",
"442 323 OFFCURVE",
"437 326 CURVE SMOOTH",
"434 328 OFFCURVE",
"432 329 OFFCURVE",
"429 329 CURVE SMOOTH",
"426 329 OFFCURVE",
"423 328 OFFCURVE",
"420 325 CURVE SMOOTH",
"390 299 LINE SMOOTH",
"253 179 OFFCURVE",
"275 138 OFFCURVE",
"223 94 CURVE SMOOTH",
"211 84 OFFCURVE",
"196 79 OFFCURVE",
"181 79 CURVE SMOOTH"
);
},
{
closed = 1;
nodes = (
"499 327 OFFCURVE",
"528 352 OFFCURVE",
"533 382 CURVE SMOOTH",
"538 411 OFFCURVE",
"518 436 OFFCURVE",
"488 436 CURVE SMOOTH",
"459 436 OFFCURVE",
"430 411 OFFCURVE",
"425 382 CURVE SMOOTH",
"420 352 OFFCURVE",
"440 327 OFFCURVE",
"469 327 CURVE SMOOTH"
);
}
);
width = 921;
}
);
leftMetricsKey = M;
note = h_d_c_o.liga;
rightMetricsKey = M;
},
{
glyphname = Delta;
lastChange = "2020-04-14 08:39:14 +0000";
layers = (
{
layerId = "2F4EEC1B-9E89-4E08-AD53-AB625B6E887D";
paths = (
{
closed = 1;
nodes = (
"624 0 LINE",
"470 763 LINE",
"390 763 LINE",
"-32 0 LINE"
);
},
{
closed = 1;
nodes = (
"418 693 LINE",
"539 65 LINE",
"74 65 LINE"
);
}
);
width = 688;
},
{
guideLines = (
{
position = "{261, 161}";
}
);
layerId = "11907447-A26F-432E-A335-7727E0303767";
paths = (
{
closed = 1;
nodes = (
"631 0 LINE",
"485 763 LINE",
"381 763 LINE",
"-35 0 LINE"
);
},
{
closed = 1;
nodes = (
"416 670 LINE",
"523 85 LINE",
"102 85 LINE"
);
}
);
width = 694;
},
{
guideLines = (
{
position = "{316, 216}";
}
);
layerId = "FD6EB2BB-8839-4CDB-86BF-4EEAE3F02079";
paths = (
{
closed = 1;
nodes = (
"668 0 LINE",
"542 763 LINE",
"348 763 LINE",
"-48 0 LINE"
);
},
{
closed = 1;
nodes = (
"409 562 LINE",
"459 155 LINE",
"214 155 LINE"
);
}
);
width = 720;
}
);
leftMetricsKey = A;
rightMetricsKey = A;
unicode = 0394;
},
{
color = 1;
glyphname = pi;
lastChange = "2020-04-14 08:39:20 +0000";
layers = (
{
layerId = "FD6EB2BB-8839-4CDB-86BF-4EEAE3F02079";
paths = (
{
closed = 1;
nodes = (
"199 0 LINE",
"273 422 LINE",
"389 422 LINE",
"339 135 LINE SMOOTH",
"323 48 OFFCURVE",
"368 0 OFFCURVE",
"469 0 CURVE SMOOTH",
"557 0 LINE",
"580 131 LINE",
"532 131 LINE SMOOTH",
"509 131 OFFCURVE",
"500 139 OFFCURVE",
"504 163 CURVE SMOOTH",
"549 422 LINE",
"631 422 LINE",
"657 567 LINE",
"80 567 LINE",
"54 422 LINE",
"112 422 LINE",
"38 0 LINE"
);
}
);
width = 649;
},
{
layerId = "11907447-A26F-432E-A335-7727E0303767";
paths = (
{
closed = 1;
nodes = (
"134 0 LINE",
"219 478 LINE",
"394 478 LINE",
"333 136 LINE SMOOTH",
"314 28 OFFCURVE",
"357 0 OFFCURVE",
"440 0 CURVE SMOOTH",
"496 0 LINE",
"509 75 LINE",
"469 75 LINE SMOOTH",
"416 75 OFFCURVE",
"410 88 OFFCURVE",
"423 163 CURVE SMOOTH",
"479 478 LINE",
"581 478 LINE",
"594 553 LINE",
"70 553 LINE",
"57 478 LINE",
"134 478 LINE",
"49 0 LINE"
);
}
);
width = 576;
},
{
layerId = "2F4EEC1B-9E89-4E08-AD53-AB625B6E887D";
paths = (
{
closed = 1;
nodes = (
"119 0 LINE",
"205 491 LINE",
"390 491 LINE",
"326 126 LINE SMOOTH",
"309 28 OFFCURVE",
"354 0 OFFCURVE",
"428 0 CURVE SMOOTH",
"478 0 LINE",
"488 58 LINE",
"449 58 LINE SMOOTH",
"401 58 OFFCURVE",
"381 73 OFFCURVE",
"394 144 CURVE SMOOTH",
"455 491 LINE",
"564 491 LINE",
"574 549 LINE",
"60 549 LINE",
"50 491 LINE",
"139 491 LINE",
"53 0 LINE"
);
}
);
width = 556;
}
);
note = pi;
unicode = 03C0;
},
